STARTFONT 2.3
FONT -FontForge-Source Code Pro-Book-R-Normal--24-240-72-72-M-140-ISO10646-1
SIZE 24 72 72  2
FONTBOUNDINGBOX 24 36 -5 -11
COMMENT "Generated by fontforge, http://fontforge.sourceforge.net"
COMMENT "Copyright 2010, 2012 Adobe Systems Incorporated (http://www.adobe.com/), with Reserved Font Name `Source'."
STARTPROPERTIES 41
FOUNDRY "FontForge"
FAMILY_NAME "Source Code Pro"
WEIGHT_NAME "Book"
SLANT "R"
SETWIDTH_NAME "Normal"
ADD_STYLE_NAME ""
PIXEL_SIZE 24
POINT_SIZE 240
RESOLUTION_X 72
RESOLUTION_Y 72
SPACING "M"
AVERAGE_WIDTH 140
CHARSET_REGISTRY "ISO10646"
CHARSET_ENCODING "1"
FONTNAME_REGISTRY ""
CHARSET_COLLECTIONS "ASCII ISOLatin1Encoding ISO8859-2 ISO8859-5 ISO8859-7 ISO8859-9 ISO8859-4 ISO10646-1"
BITS_PER_PIXEL 2
FONT_NAME "SourceCodePro-Regular"
FACE_NAME "Source Code Pro"
COPYRIGHT "Copyright 2010, 2012 Adobe Systems Incorporated (http://www.adobe.com/), with Reserved Font Name `Source'."
FONT_VERSION "2.030;PS 1.000;hotconv 16.6.51;makeotf.lib2.5.65220"
FONT_ASCENT 18
FONT_DESCENT 6
UNDERLINE_POSITION -2
UNDERLINE_THICKNESS 2
X_HEIGHT 11
CAP_HEIGHT 15
RAW_ASCENT 750
RAW_DESCENT 250
NORM_SPACE 14
RELATIVE_WEIGHT 40
RELATIVE_SETWIDTH 50
SUPERSCRIPT_X 0
SUPERSCRIPT_Y 8
SUPERSCRIPT_SIZE 14
SUBSCRIPT_X 0
SUBSCRIPT_Y 1
SUBSCRIPT_SIZE 14
FIGURE_WIDTH 14
AVG_LOWERCASE_WIDTH 140
AVG_UPPERCASE_WIDTH 140
ENDPROPERTIES
CHARS 1564
STARTCHAR space
ENCODING 32
SWIDTH 600 0
DWIDTH 14 0
BBX 1 1 0 0
BITMAP
00
ENDCHAR
STARTCHAR exclam
ENCODING 33
SWIDTH 600 0
DWIDTH 14 0
BBX 4 16 5 0
BITMAP
2C
2C
2C
2C
2C
2C
2C
2C
2C
1C
00
00
2D
7F
7F
2D
ENDCHAR
STARTCHAR quotedbl
ENCODING 34
SWIDTH 600 0
DWIDTH 14 0
BBX 9 8 3 8
BITMAP
F81F40
F81F40
B81F40
B81F00
B80F00
740F00
740E00
740A00
ENDCHAR
STARTCHAR numbersign
ENCODING 35
SWIDTH 600 0
DWIDTH 14 0
BBX 11 15 2 0
BITMAP
0281C0
0341C0
034280
7F4280
7FABE4
0757A4
0A0340
0A0700
FE5700
FFFFF0
0D0A50
1C0A00
1C0900
1C0D00
280D00
ENDCHAR
STARTCHAR dollar
ENCODING 36
SWIDTH 600 0
DWIDTH 14 0
BBX 11 20 2 -2
BITMAP
007000
007000
007000
06FE00
1FFFD0
3D02E0
780000
3C0000
2F8000
07F900
006F80
0006E0
0000F4
1000B4
B901F0
2FFFD0
06FE00
007000
007000
007000
ENDCHAR
STARTCHAR percent
ENCODING 37
SWIDTH 600 0
DWIDTH 14 0
BBX 14 16 0 0
BITMAP
0BE00000
2FF80090
382C02D0
741D0B40
741D1D00
382C7400
2FF81000
0BE00000
00007E40
0011FFC0
00E2D1E0
038380A0
0F0380A0
3C02D1E0
2401FFC0
00007E40
ENDCHAR
STARTCHAR ampersand
ENCODING 38
SWIDTH 600 0
DWIDTH 14 0
BBX 13 16 1 0
BITMAP
01F90000
07FF0000
0F4B4000
0E074000
0E0B4000
0B1E0000
07FC0000
07F00640
1FD00B40
78B40F00
B03D1D00
F00F7C00
F403F400
BD06F900
3FFFAF80
0BF90640
ENDCHAR
STARTCHAR quotesingle
ENCODING 39
SWIDTH 600 0
DWIDTH 14 0
BBX 3 8 6 8
BITMAP
F8
F4
F4
F4
F4
B0
B0
B0
ENDCHAR
STARTCHAR parenleft
ENCODING 40
SWIDTH 600 0
DWIDTH 14 0
BBX 6 22 5 -4
BITMAP
0060
01F0
03C0
0B40
1D00
3C00
7800
B400
B000
F000
E000
E000
F000
B000
B400
7800
3C00
1D00
0B00
03C0
01F0
0060
ENDCHAR
STARTCHAR parenright
ENCODING 41
SWIDTH 600 0
DWIDTH 14 0
BBX 7 22 3 -4
BITMAP
A000
B800
2D00
0B40
0380
02D0
00E0
00B0
00B4
0074
0074
0074
0074
00B4
00B0
00E0
02D0
0380
0B40
2D00
B800
A000
ENDCHAR
STARTCHAR asterisk
ENCODING 42
SWIDTH 600 0
DWIDTH 14 0
BBX 10 11 2 3
BITMAP
006000
007000
00B000
90B060
BEBBE0
0BFF40
01F800
02ED00
074B00
1D0380
180180
ENDCHAR
STARTCHAR plus
ENCODING 43
SWIDTH 600 0
DWIDTH 14 0
BBX 11 12 2 2
BITMAP
006000
00B000
00B000
00B000
00B000
FFFFF4
FFFFF4
00B000
00B000
00B000
00B000
006000
ENDCHAR
STARTCHAR comma
ENCODING 44
SWIDTH 600 0
DWIDTH 14 0
BBX 5 9 5 -5
BITMAP
2E00
7F40
7F40
2F40
0740
0B00
1E00
7800
E000
ENDCHAR
STARTCHAR hyphen
ENCODING 45
SWIDTH 600 0
DWIDTH 14 0
BBX 11 2 2 7
BITMAP
FFFFF4
FFFFF4
ENDCHAR
STARTCHAR period
ENCODING 46
SWIDTH 600 0
DWIDTH 14 0
BBX 4 4 5 0
BITMAP
2D
BF
BF
2D
ENDCHAR
STARTCHAR slash
ENCODING 47
SWIDTH 600 0
DWIDTH 14 0
BBX 10 21 2 -4
BITMAP
0000F0
0001D0
0002C0
000380
000740
000B00
001E00
002D00
003C00
007400
00B000
00E000
01D000
02C000
078000
0B4000
0F0000
1D0000
2C0000
380000
740000
ENDCHAR
STARTCHAR zero
ENCODING 48
SWIDTH 600 0
DWIDTH 14 0
BBX 12 15 1 0
BITMAP
01BE40
07FFE0
1F41F8
2D003C
3C002D
38001E
783D1E
787E1E
782D1E
38001E
3C002D
2D003C
1F81F8
07FFE0
01BE40
ENDCHAR
STARTCHAR one
ENCODING 49
SWIDTH 600 0
DWIDTH 14 0
BBX 11 15 2 0
BITMAP
01B800
2FF800
15B800
007800
007800
007800
007800
007800
007800
007800
007800
007800
007800
BFFFF8
BFFFF8
ENDCHAR
STARTCHAR two
ENCODING 50
SWIDTH 600 0
DWIDTH 14 0
BBX 12 15 1 0
BITMAP
01FE40
1FFFE0
3E01F4
240078
000078
000074
0000F0
0002D0
000B80
002E00
00B800
02E000
0F4000
3FFFFE
7FFFFE
ENDCHAR
STARTCHAR three
ENCODING 51
SWIDTH 600 0
DWIDTH 14 0
BBX 12 15 1 0
BITMAP
01BE40
1FFFF0
2E41F8
04007C
000078
0006F0
00FF80
00FF90
0005F4
00003C
00002D
20002D
7D01BC
1FFFF4
02FE80
ENDCHAR
STARTCHAR four
ENCODING 52
SWIDTH 600 0
DWIDTH 14 0
BBX 12 15 1 0
BITMAP
0002E0
000BE0
001EE0
0078E0
01F0E0
03C1E0
0B41E0
2D01E0
7801E0
FFFFFF
FFFFFF
0001E0
0001E0
0001E0
0001E0
ENDCHAR
STARTCHAR five
ENCODING 53
SWIDTH 600 0
DWIDTH 14 0
BBX 12 15 1 0
BITMAP
0FFFF8
0FFFF8
0E0000
0E0000
1E0000
1EBF90
1FFFF4
0901BC
00003D
00002D
00002D
10003D
7D01F8
2FFFE0
06FE40
ENDCHAR
STARTCHAR six
ENCODING 54
SWIDTH 600 0
DWIDTH 14 0
BBX 11 15 2 0
BITMAP
01BF80
0BFFF0
2F41B0
7C0000
B40000
F0BE40
E7FFE0
FE41F4
F80078
F00038
F00078
B400B8
3E42F0
1FFFD0
02FE40
ENDCHAR
STARTCHAR seven
ENCODING 55
SWIDTH 600 0
DWIDTH 14 0
BBX 12 15 1 0
BITMAP
7FFFFE
7FFFFE
00003C
0000B0
0001D0
000380
000B40
000E00
001D00
002C00
003C00
007800
007800
007800
00B800
ENDCHAR
STARTCHAR eight
ENCODING 56
SWIDTH 600 0
DWIDTH 14 0
BBX 12 15 1 0
BITMAP
01BF80
0BFFF0
1F41B8
1E003C
1D002C
0B4038
02E4B4
06FFD0
1F46E0
3C002C
74001E
78001E
3E407E
1FFFF8
02BF90
ENDCHAR
STARTCHAR nine
ENCODING 57
SWIDTH 600 0
DWIDTH 14 0
BBX 12 15 1 0
BITMAP
02FE40
0FFFE0
2E41F4
78003C
78002D
78002D
3E01FE
1FFFEE
06FE1D
00002D
00003C
0000B8
2D06F0
2FFFD0
06FE00
ENDCHAR
STARTCHAR colon
ENCODING 58
SWIDTH 600 0
DWIDTH 14 0
BBX 4 13 5 0
BITMAP
2D
BF
BF
2D
00
00
00
00
00
2D
BF
BF
2D
ENDCHAR
STARTCHAR semicolon
ENCODING 59
SWIDTH 600 0
DWIDTH 14 0
BBX 5 18 5 -5
BITMAP
2D00
BF00
BF00
2D00
0000
0000
0000
0000
0000
2E00
7F40
7F40
2F40
0740
0B00
1E00
7800
E000
ENDCHAR
STARTCHAR less
ENCODING 60
SWIDTH 600 0
DWIDTH 14 0
BBX 9 14 3 1
BITMAP
000080
000780
002F40
01F800
0BD000
7E0000
F40000
F40000
7E0000
0BD000
01F800
002F40
000780
000080
ENDCHAR
STARTCHAR equal
ENCODING 61
SWIDTH 600 0
DWIDTH 14 0
BBX 11 8 2 4
BITMAP
FFFFF4
FFFFF4
000000
000000
000000
000000
FFFFF4
FFFFF4
ENDCHAR
STARTCHAR greater
ENCODING 62
SWIDTH 600 0
DWIDTH 14 0
BBX 10 14 2 1
BITMAP
500000
780000
2F4000
07E000
00BD00
001F80
0002E0
0002E0
001F80
00BD00
07E000
2F4000
780000
500000
ENDCHAR
STARTCHAR question
ENCODING 63
SWIDTH 600 0
DWIDTH 14 0
BBX 9 17 3 0
BITMAP
1BE400
BFFE00
E41F40
000B40
000740
000F00
002D00
00B400
02D000
038000
078000
000000
000000
078000
0BE000
0BE000
078000
ENDCHAR
STARTCHAR at
ENCODING 64
SWIDTH 600 0
DWIDTH 14 0
BBX 12 20 1 -4
BITMAP
006F90
02FFF8
0BD06D
1E000A
3C0007
780007
7002FF
B01FEB
A07D07
A0B407
A0B00B
A0782F
B03FFB
741B93
380000
2C0000
1E0000
0BD01C
02FFF8
006F90
ENDCHAR
STARTCHAR A
ENCODING 65
SWIDTH 600 0
DWIDTH 14 0
BBX 13 16 1 0
BITMAP
003D0000
007E0000
00BB0000
00E74000
01D38000
02C2C000
0381D000
0740E000
0B00B000
0FFFF400
1FFFF800
2C002C00
3C002D00
78001E00
B4000F00
F0000B40
ENDCHAR
STARTCHAR B
ENCODING 66
SWIDTH 600 0
DWIDTH 14 0
BBX 11 16 2 0
BITMAP
BFFE40
BFFFD0
B406F0
B400F4
B400F0
B406E0
BFFF40
BFFF90
B401F4
B4007C
B4003C
B4003C
B4007C
B406F4
BFFFE0
BFFE40
ENDCHAR
STARTCHAR C
ENCODING 67
SWIDTH 600 0
DWIDTH 14 0
BBX 12 16 1 0
BITMAP
006FE0
02FFFD
0BD02E
1F4004
3D0000
3C0000
780000
780000
780000
780000
3C0000
3D0000
1F4005
0BD01F
02FFFD
006FE0
ENDCHAR
STARTCHAR D
ENCODING 68
SWIDTH 600 0
DWIDTH 14 0
BBX 12 16 2 0
BITMAP
FFF900
FFFF80
F01BE0
F001F4
F000B8
F0003C
F0003D
F0002D
F0003D
F0003C
F0003C
F000B8
F001F4
F01BE0
FFFF80
FFF900
ENDCHAR
STARTCHAR E
ENCODING 69
SWIDTH 600 0
DWIDTH 14 0
BBX 11 16 2 0
BITMAP
7FFFF4
7FFFF4
780000
780000
780000
780000
7FFFD0
7FFFD0
780000
780000
780000
780000
780000
780000
7FFFF8
7FFFF8
ENDCHAR
STARTCHAR F
ENCODING 70
SWIDTH 600 0
DWIDTH 14 0
BBX 10 16 3 0
BITMAP
BFFFF0
BFFFF0
B40000
B40000
B40000
B40000
B40000
BFFF80
BFFF80
B40000
B40000
B40000
B40000
B40000
B40000
B40000
ENDCHAR
STARTCHAR G
ENCODING 71
SWIDTH 600 0
DWIDTH 14 0
BBX 12 16 1 0
BITMAP
006F90
07FFF8
0FD06D
2E0004
3C0000
780000
B40000
B407FE
B407FE
B4000E
78000E
3C000E
2E000E
0F906E
07FFFD
00AFE0
ENDCHAR
STARTCHAR H
ENCODING 72
SWIDTH 600 0
DWIDTH 14 0
BBX 11 16 2 0
BITMAP
F000B8
F000B8
F000B8
F000B8
F000B8
F000B8
FFFFF8
FFFFF8
F000B8
F000B8
F000B8
F000B8
F000B8
F000B8
F000B8
F000B8
ENDCHAR
STARTCHAR I
ENCODING 73
SWIDTH 600 0
DWIDTH 14 0
BBX 10 16 2 0
BITMAP
BFFFF0
BFFFF0
00B400
00B400
00B400
00B400
00B400
00B400
00B400
00B400
00B400
00B400
00B400
00B400
BFFFF0
BFFFF0
ENDCHAR
STARTCHAR J
ENCODING 74
SWIDTH 600 0
DWIDTH 14 0
BBX 10 16 2 0
BITMAP
2FFFE0
2FFFE0
0000E0
0000E0
0000E0
0000E0
0000E0
0000E0
0000E0
0000E0
0001E0
0001E0
6002E0
B90BD0
3FFF80
07F900
ENDCHAR
STARTCHAR K
ENCODING 75
SWIDTH 600 0
DWIDTH 14 0
BBX 12 16 2 0
BITMAP
B4007C
B401F0
B403D0
B40B40
B42E00
B47800
B5F800
BBFC00
BF5E00
BE0F40
B80780
B402D0
B401F0
B400B8
B4007C
B4002E
ENDCHAR
STARTCHAR L
ENCODING 76
SWIDTH 600 0
DWIDTH 14 0
BBX 10 16 3 0
BITMAP
B40000
B40000
B40000
B40000
B40000
B40000
B40000
B40000
B40000
B40000
B40000
B40000
B40000
B40000
BFFFF0
BFFFF0
ENDCHAR
STARTCHAR M
ENCODING 77
SWIDTH 600 0
DWIDTH 14 0
BBX 12 16 1 0
BITMAP
7D003E
7E007E
7F00BE
7B40EE
7B81DE
7AC2DE
79D39E
78E75E
78B71E
787E1E
783D1E
78281E
78001E
78001E
78001E
78001E
ENDCHAR
STARTCHAR N
ENCODING 78
SWIDTH 600 0
DWIDTH 14 0
BBX 11 16 2 0
BITMAP
F40074
FC0074
FD0074
EF0074
E74074
E3C074
F2D074
F0F074
F0B474
F03C74
F02D74
F00F74
F00BB4
F003F4
F002F4
F000F4
ENDCHAR
STARTCHAR O
ENCODING 79
SWIDTH 600 0
DWIDTH 14 0
BBX 13 16 1 0
BITMAP
01BE4000
0BFFF000
1F41F800
3D003D00
7C001E00
B8000F00
B4000F00
B4000F40
B4000F40
B4000F00
B8000F00
7C001E00
3D003D00
1F41F800
0BFFE000
01BE4000
ENDCHAR
STARTCHAR P
ENCODING 80
SWIDTH 600 0
DWIDTH 14 0
BBX 11 16 2 0
BITMAP
BFFE40
BFFFE0
B401F8
B4007C
B4003C
B4003C
B40078
B401F4
BFFFE0
BFFE40
B40000
B40000
B40000
B40000
B40000
B40000
ENDCHAR
STARTCHAR Q
ENCODING 81
SWIDTH 600 0
DWIDTH 14 0
BBX 13 20 1 -4
BITMAP
01BE4000
0BFFF000
1F41F800
3D003D00
78001E00
B8000F00
B4000F00
B4000F40
B4000F40
B4000F00
B8000F00
7C001E00
3D003D00
1F41F800
0BFFF000
01BF8000
002E0000
000F9000
0007FF00
0000BF40
ENDCHAR
STARTCHAR R
ENCODING 82
SWIDTH 600 0
DWIDTH 14 0
BBX 11 16 2 0
BITMAP
BFFE40
BFFFE0
B401F4
B40078
B40078
B400B8
B402F4
BFFFE0
BFFE40
B42E00
B40F40
B40780
B403D0
B401F0
B400B4
B4007C
ENDCHAR
STARTCHAR S
ENCODING 83
SWIDTH 600 0
DWIDTH 14 0
BBX 11 16 2 0
BITMAP
06FE40
2FFFE0
7D01F0
B80010
B40000
7D0000
2F9000
07FD00
006FD0
0006F4
0000B8
00007C
900078
F901F4
7FFFE0
06FE40
ENDCHAR
STARTCHAR T
ENCODING 84
SWIDTH 600 0
DWIDTH 14 0
BBX 13 16 1 0
BITMAP
FFFFFF40
FFFFFF40
002D0000
002D0000
002D0000
002D0000
002D0000
002D0000
002D0000
002D0000
002D0000
002D0000
002D0000
002D0000
002D0000
002D0000
ENDCHAR
STARTCHAR U
ENCODING 85
SWIDTH 600 0
DWIDTH 14 0
BBX 11 16 2 0
BITMAP
F00078
F00078
F00078
F00078
F00078
F00078
F00078
F00078
F00078
F00074
F00074
F000B4
B800F0
7D06E0
2FFFC0
06FE00
ENDCHAR
STARTCHAR V
ENCODING 86
SWIDTH 600 0
DWIDTH 14 0
BBX 13 16 1 0
BITMAP
B4000B40
B8000F00
7C001E00
3C002D00
2D003C00
1E007800
0F00B400
0B40F000
0780E000
03C1D000
02D2C000
01D38000
00E74000
00BB0000
007F0000
003E0000
ENDCHAR
STARTCHAR W
ENCODING 87
SWIDTH 600 0
DWIDTH 14 0
BBX 14 16 0 0
BITMAP
B80000F0
B80001F0
780001E0
7C0001E0
3C0B41E0
3C0F82D0
2D1FC2D0
2D2EC2C0
1D2DD3C0
1E39E380
1E74F380
0EB0B780
0FB07B40
0BE07F40
0BD03F00
07D02F00
ENDCHAR
STARTCHAR X
ENCODING 88
SWIDTH 600 0
DWIDTH 14 0
BBX 12 16 1 0
BITMAP
3C002E
2E003C
0F40B4
0781E0
02D2D0
01E780
00BF00
007E00
007E00
00FB40
02D3C0
03C2E0
0B40F0
1E0078
3D003D
78001E
ENDCHAR
STARTCHAR Y
ENCODING 89
SWIDTH 600 0
DWIDTH 14 0
BBX 13 16 1 0
BITMAP
B4000B40
78001E00
2D002D00
1E007800
0B40B400
0781E000
02D2C000
01E78000
00BF0000
007E0000
003D0000
002D0000
002D0000
002D0000
002D0000
002D0000
ENDCHAR
STARTCHAR Z
ENCODING 90
SWIDTH 600 0
DWIDTH 14 0
BBX 12 16 1 0
BITMAP
2FFFFE
2FFFFE
00003C
0000B4
0001E0
0003C0
000B40
002E00
007C00
00F400
02D000
078000
0F0000
2D0000
7FFFFF
7FFFFF
ENDCHAR
STARTCHAR bracketleft
ENCODING 91
SWIDTH 600 0
DWIDTH 14 0
BBX 7 21 5 -4
BITMAP
BFFC
BFFC
B000
B000
B000
B000
B000
B000
B000
B000
B000
B000
B000
B000
B000
B000
B000
B000
B000
BFFC
BFFC
ENDCHAR
STARTCHAR backslash
ENCODING 92
SWIDTH 600 0
DWIDTH 14 0
BBX 10 21 2 -4
BITMAP
740000
380000
2C0000
1D0000
0F0000
0B4000
078000
02C000
01D000
00E000
00B000
007400
003C00
002D00
001E00
000B00
000740
000380
0002C0
0001D0
0000F0
ENDCHAR
STARTCHAR bracketright
ENCODING 93
SWIDTH 600 0
DWIDTH 14 0
BBX 7 21 2 -4
BITMAP
BFFC
BFFC
002C
002C
002C
002C
002C
002C
002C
002C
002C
002C
002C
002C
002C
002C
002C
002C
002C
BFFC
BFFC
ENDCHAR
STARTCHAR asciicircum
ENCODING 94
SWIDTH 600 0
DWIDTH 14 0
BBX 9 9 3 7
BITMAP
03D000
07E000
0B7000
0E3400
2C2C00
381D00
740E00
B00B00
E00780
ENDCHAR
STARTCHAR underscore
ENCODING 95
SWIDTH 600 0
DWIDTH 14 0
BBX 12 2 1 -4
BITMAP
BFFFFF
BFFFFF
ENDCHAR
STARTCHAR grave
ENCODING 96
SWIDTH 600 0
DWIDTH 14 0
BBX 5 5 4 14
BITMAP
6000
B800
2D00
0B40
0240
ENDCHAR
STARTCHAR a
ENCODING 97
SWIDTH 600 0
DWIDTH 14 0
BBX 11 12 2 0
BITMAP
06FE40
2FFFD0
7902F0
1000B4
006BF4
1BFFF4
7E94B4
F400B4
F000B4
F807F4
7FFEB4
1BE474
ENDCHAR
STARTCHAR b
ENCODING 98
SWIDTH 600 0
DWIDTH 14 0
BBX 11 17 2 0
BITMAP
B40000
B40000
B40000
B40000
B40000
B1BE40
BBFFE0
BE42F4
B800B8
B4007C
B4003C
B4003C
B40078
B400F4
BE06F0
BBFFD0
B1BE00
ENDCHAR
STARTCHAR c
ENCODING 99
SWIDTH 600 0
DWIDTH 14 0
BBX 11 12 2 0
BITMAP
01BF80
0FFFF4
3F40B4
BC0000
F40000
F00000
F00000
F40000
BC0000
3F4078
1FFFF4
01BF80
ENDCHAR
STARTCHAR d
ENCODING 100
SWIDTH 600 0
DWIDTH 14 0
BBX 12 17 1 0
BITMAP
00002D
00002D
00002D
00002D
00002D
01BE2D
0BFFFD
2F41FD
3D003D
78002D
B8002D
B8002D
78002D
7C007D
2F41FD
0FFFED
02FD2D
ENDCHAR
STARTCHAR e
ENCODING 101
SWIDTH 600 0
DWIDTH 14 0
BBX 12 12 1 0
BITMAP
01BF90
07FFF4
1F907C
3D001E
7C000E
7FFFFF
7FFFFF
780000
3D0000
1F902C
07FFF8
00BF90
ENDCHAR
STARTCHAR f
ENCODING 102
SWIDTH 600 0
DWIDTH 14 0
BBX 12 17 2 0
BITMAP
001BF9
007FFE
00F805
00F000
01E000
7FFFF8
BFFFF8
01E000
01E000
01E000
01E000
01E000
01E000
01E000
01E000
01E000
01E000
ENDCHAR
STARTCHAR g
ENCODING 103
SWIDTH 600 0
DWIDTH 14 0
BBX 13 17 1 -5
BITMAP
01BFFF80
0BFFFF80
1F41E000
2D007400
2D007400
1F41F400
0BFFE000
0BBF4000
1D000000
2E000000
0FFFF900
0BFFFF40
28000B80
78000B40
3D006F00
2FFFFD00
06FF9000
ENDCHAR
STARTCHAR h
ENCODING 104
SWIDTH 600 0
DWIDTH 14 0
BBX 11 17 2 0
BITMAP
B40000
B40000
B40000
B40000
B40000
B0BF80
B7FFE0
BF41F4
BC00B4
B400B8
B40078
B40078
B40078
B40078
B40078
B40078
B40078
ENDCHAR
STARTCHAR i
ENCODING 105
SWIDTH 600 0
DWIDTH 14 0
BBX 8 17 2 0
BITMAP
002D
007F
002D
0000
0000
FFFE
FFFE
001E
001E
001E
001E
001E
001E
001E
001E
001E
001E
ENDCHAR
STARTCHAR j
ENCODING 106
SWIDTH 600 0
DWIDTH 14 0
BBX 9 22 1 -5
BITMAP
000B40
001FC0
000B40
000000
000000
3FFF80
3FFF80
000780
000780
000780
000780
000780
000780
000780
000780
000780
000780
000740
000B40
101F00
7FFE00
2FE400
ENDCHAR
STARTCHAR k
ENCODING 107
SWIDTH 600 0
DWIDTH 14 0
BBX 12 17 2 0
BITMAP
780000
780000
780000
780000
780000
7800B8
7802E0
780B80
781E00
787C00
79FC00
7BAE00
7E0B40
7803D0
7801F0
7800B8
78002D
ENDCHAR
STARTCHAR l
ENCODING 108
SWIDTH 600 0
DWIDTH 14 0
BBX 12 17 1 0
BITMAP
7FFC00
7FFC00
003C00
003C00
003C00
003C00
003C00
003C00
003C00
003C00
003C00
003C00
003C00
003C00
003E05
001FFE
0006F9
ENDCHAR
STARTCHAR m
ENCODING 109
SWIDTH 600 0
DWIDTH 14 0
BBX 13 12 1 0
BITMAP
B2F4BD00
BBFEFF00
BD3F4F40
B82E0B40
B42D0B40
B42D0B40
B42D0B40
B42D0B40
B42D0B40
B42D0B40
B42D0B40
B42D0B40
ENDCHAR
STARTCHAR n
ENCODING 110
SWIDTH 600 0
DWIDTH 14 0
BBX 11 12 2 0
BITMAP
B0BF80
B3FFE0
BF41F4
BC00B4
B400B8
B40078
B40078
B40078
B40078
B40078
B40078
B40078
ENDCHAR
STARTCHAR o
ENCODING 111
SWIDTH 600 0
DWIDTH 14 0
BBX 12 12 1 0
BITMAP
01BF80
0BFFF4
2F41BC
3D003D
78001E
B8000F
B8000F
78001E
3D003D
2F41BC
0BFFF4
01BF80
ENDCHAR
STARTCHAR p
ENCODING 112
SWIDTH 600 0
DWIDTH 14 0
BBX 11 17 2 -5
BITMAP
B1BE40
BBFFE0
BE42F4
B800B8
B4007C
B4003C
B4003C
B40078
B400B4
BE06F0
BBFFD0
B1BE00
B40000
B40000
B40000
B40000
B40000
ENDCHAR
STARTCHAR q
ENCODING 113
SWIDTH 600 0
DWIDTH 14 0
BBX 12 17 1 -5
BITMAP
01BE1D
0BFFED
2F41FD
3D003D
78002D
B8002D
B8002D
78002D
7C003D
2F41FD
0FFFAD
02FD2D
00002D
00002D
00002D
00002D
00002D
ENDCHAR
STARTCHAR r
ENCODING 114
SWIDTH 600 0
DWIDTH 14 0
BBX 10 12 3 0
BITMAP
B42FE0
B5FFE0
BB9010
BE0000
B80000
B40000
B40000
B40000
B40000
B40000
B40000
B40000
ENDCHAR
STARTCHAR s
ENCODING 115
SWIDTH 600 0
DWIDTH 14 0
BBX 11 12 2 0
BITMAP
06FE00
3FFFD0
7D01E0
B80000
7E4000
1FFA00
016FE0
0001B4
400078
F901F4
7FFFE0
06FE40
ENDCHAR
STARTCHAR t
ENCODING 116
SWIDTH 600 0
DWIDTH 14 0
BBX 12 16 1 0
BITMAP
00B000
00B000
00F000
00F000
7FFFFE
7FFFFE
00F000
00F000
00F000
00F000
00F000
00F000
00F000
00B905
007FFF
001BF9
ENDCHAR
STARTCHAR u
ENCODING 117
SWIDTH 600 0
DWIDTH 14 0
BBX 10 12 2 0
BITMAP
F000F0
F000F0
F000F0
F000F0
F000F0
F000F0
F000F0
F000F0
F002F0
F91BF0
7FFDB0
1BE4B0
ENDCHAR
STARTCHAR v
ENCODING 118
SWIDTH 600 0
DWIDTH 14 0
BBX 12 12 1 0
BITMAP
B4000F
78001E
2D002D
1E0038
0F0074
0B40F0
0381E0
02C2C0
01E380
00F740
007F00
003E00
ENDCHAR
STARTCHAR w
ENCODING 119
SWIDTH 600 0
DWIDTH 14 0
BBX 14 12 0 0
BITMAP
B40500B0
740F40F0
780F80E0
3C1EC1D0
3C2EC2D0
2D29D2C0
1D38E3C0
1E74E380
0EB0B740
0BB07B40
0BE07F00
07D03E00
ENDCHAR
STARTCHAR x
ENCODING 120
SWIDTH 600 0
DWIDTH 14 0
BBX 11 12 2 0
BITMAP
B400F4
3C02D0
1E0780
0B4F00
03ED00
01F800
02F800
07AE00
0F0F40
2D07C0
7801E0
F000B4
ENDCHAR
STARTCHAR y
ENCODING 121
SWIDTH 600 0
DWIDTH 14 0
BBX 12 17 1 -5
BITMAP
B4000F
38001E
2D002D
1E0038
0B0074
0780B0
03C0E0
01D2D0
00E380
00B740
003F00
002E00
002D00
007800
01F400
3FE000
7E4000
ENDCHAR
STARTCHAR z
ENCODING 122
SWIDTH 600 0
DWIDTH 14 0
BBX 12 12 1 0
BITMAP
1FFFFE
1FFFFD
0000B8
0002E0
000B80
002E00
00B800
01E000
07C000
1F0000
7FFFFE
7FFFFE
ENDCHAR
STARTCHAR braceleft
ENCODING 123
SWIDTH 600 0
DWIDTH 14 0
BBX 9 21 3 -4
BITMAP
006FC0
02FFC0
02D000
03C000
02C000
02C000
02C000
02C000
07C000
FE4000
FE0000
0B8000
02C000
02C000
02C000
02C000
02C000
03C000
02E000
01FFC0
006FC0
ENDCHAR
STARTCHAR bar
ENCODING 124
SWIDTH 600 0
DWIDTH 14 0
BBX 2 24 6 -6
BITMAP
B0
B0
B0
B0
B0
B0
B0
B0
B0
B0
B0
B0
B0
B0
B0
B0
B0
B0
B0
B0
B0
B0
B0
B0
ENDCHAR
STARTCHAR braceright
ENCODING 125
SWIDTH 600 0
DWIDTH 14 0
BBX 10 21 2 -4
BITMAP
BF8000
BFF000
01F400
007400
007400
007000
00B000
00B000
007900
002FE0
002FE0
007900
00B000
00B000
007000
007000
007400
007400
01F400
BFF000
BF8000
ENDCHAR
STARTCHAR asciitilde
ENCODING 126
SWIDTH 600 0
DWIDTH 14 0
BBX 11 4 2 6
BITMAP
1F8024
7FF4B4
B0BFE0
901F80
ENDCHAR
STARTCHAR uni00A0
ENCODING 160
SWIDTH 600 0
DWIDTH 14 0
BBX 1 1 0 0
BITMAP
00
ENDCHAR
STARTCHAR exclamdown
ENCODING 161
SWIDTH 600 0
DWIDTH 14 0
BBX 4 17 5 -5
BITMAP
2D
7F
7F
2D
00
00
1C
2C
2C
2C
2C
2C
2C
2C
2C
2C
2C
ENDCHAR
STARTCHAR cent
ENCODING 162
SWIDTH 600 0
DWIDTH 14 0
BBX 10 15 2 0
BITMAP
001800
001800
01BF40
0BFFE0
1F6990
3D1800
781800
781800
781800
3D1800
2F68A0
0BFFE0
01BF40
001800
001800
ENDCHAR
STARTCHAR sterling
ENCODING 163
SWIDTH 600 0
DWIDTH 14 0
BBX 11 15 2 0
BITMAP
01BF80
0BFFF4
1F40B4
2D0000
1D0000
0E0000
FFFF80
FFFF80
078000
078000
074000
0B0000
2D0000
FFFFF8
FFFFF8
ENDCHAR
STARTCHAR currency
ENCODING 164
SWIDTH 600 0
DWIDTH 14 0
BBX 12 12 1 2
BITMAP
74000A
3DBE6D
0FFFF4
0F81F4
1E0078
1D0038
1D0038
1E0078
0B81F4
0FFFF4
3DBE6D
74000A
ENDCHAR
STARTCHAR yen
ENCODING 165
SWIDTH 600 0
DWIDTH 14 0
BBX 12 15 1 0
BITMAP
78000E
2C002D
1E0078
0B40B0
0381D0
01D380
00B740
2ABFA9
3FFFFE
157D55
002C00
2ABEA9
3FFFFE
157D55
002C00
ENDCHAR
STARTCHAR brokenbar
ENCODING 166
SWIDTH 600 0
DWIDTH 14 0
BBX 2 24 6 -6
BITMAP
B0
B0
B0
B0
B0
B0
B0
B0
B0
B0
60
00
00
60
B0
B0
B0
B0
B0
B0
B0
B0
B0
B0
ENDCHAR
STARTCHAR section
ENCODING 167
SWIDTH 600 0
DWIDTH 14 0
BBX 11 19 2 -2
BITMAP
02F900
0BFF80
1E0680
1D0000
0E0000
0FD000
3DBD00
B41B80
B001E0
B000B0
7D00B4
1F90B0
02FAD0
002F40
000780
000380
390B80
2FFF00
06F800
ENDCHAR
STARTCHAR dieresis
ENCODING 168
SWIDTH 600 0
DWIDTH 14 0
BBX 8 3 3 14
BITMAP
381D
7C2E
381D
ENDCHAR
STARTCHAR copyright
ENCODING 169
SWIDTH 600 0
DWIDTH 14 0
BBX 14 15 0 0
BITMAP
006FE000
02FFFD00
0B901F40
1D000380
280641D0
307FD090
71F9A0A0
71D00060
71E5A0A0
30BFE090
281A41D0
1D000380
0B901F40
02FFFD00
006FE000
ENDCHAR
STARTCHAR ordfeminine
ENCODING 170
SWIDTH 600 0
DWIDTH 14 0
BBX 7 8 4 9
BITMAP
1BE0
BFF4
5078
1AF8
BFF8
E478
FFE8
6E00
ENDCHAR
STARTCHAR guillemotleft
ENCODING 171
SWIDTH 600 0
DWIDTH 14 0
BBX 10 10 2 1
BITMAP
024060
0B41E0
2D07C0
B80F40
F02D00
F02D00
B80F40
2D07C0
0B01E0
024060
ENDCHAR
STARTCHAR logicalnot
ENCODING 172
SWIDTH 600 0
DWIDTH 14 0
BBX 11 7 2 2
BITMAP
FFFFF4
FFFFF4
000074
000074
000074
000074
000024
ENDCHAR
STARTCHAR uni00AD
ENCODING 173
SWIDTH 600 0
DWIDTH 14 0
BBX 11 2 2 7
BITMAP
FFFFF4
FFFFF4
ENDCHAR
STARTCHAR registered
ENCODING 174
SWIDTH 600 0
DWIDTH 14 0
BBX 10 9 2 8
BITMAP
06F900
1D0680
2544D0
624C60
62F860
625860
2544D0
1D0680
06F900
ENDCHAR
STARTCHAR macron
ENCODING 175
SWIDTH 600 0
DWIDTH 14 0
BBX 7 1 4 15
BITMAP
FFF4
ENDCHAR
STARTCHAR degree
ENCODING 176
SWIDTH 600 0
DWIDTH 14 0
BBX 7 7 4 10
BITMAP
1F80
7FE0
A070
9034
A070
7FE0
1F80
ENDCHAR
STARTCHAR plusminus
ENCODING 177
SWIDTH 600 0
DWIDTH 14 0
BBX 11 14 2 0
BITMAP
00B000
00B000
00B000
00B000
00B000
FFFFF4
FFFFF4
00B000
00B000
00B000
000000
000000
FFFFF4
FFFFF4
ENDCHAR
STARTCHAR two.sups
ENCODING 178
SWIDTH 600 0
DWIDTH 14 0
BBX 8 11 3 9
BITMAP
0BE0
2FF8
747C
001D
001C
0034
00A0
0380
1E00
3FFE
3FFE
ENDCHAR
STARTCHAR three.sups
ENCODING 179
SWIDTH 600 0
DWIDTH 14 0
BBX 8 11 3 9
BITMAP
07E0
2FF8
342D
001D
006C
03F4
03F8
001E
741E
2FFD
0BE4
ENDCHAR
STARTCHAR acute
ENCODING 180
SWIDTH 600 0
DWIDTH 14 0
BBX 5 5 6 14
BITMAP
0600
1F40
3D00
F400
9000
ENDCHAR
STARTCHAR uni00B5
ENCODING 181
SWIDTH 600 0
DWIDTH 14 0
BBX 11 17 2 -5
BITMAP
F000F0
F000F0
F000F0
F000F0
F000F0
F000F0
F000F0
F000F0
F402F0
F91BF0
FFFDBC
F7E47C
F00000
F00000
F00000
F00000
F00000
ENDCHAR
STARTCHAR paragraph
ENCODING 182
SWIDTH 600 0
DWIDTH 14 0
BBX 11 18 1 -2
BITMAP
01BD78
0FFD78
2FFD78
3FFD78
7FFD78
7FFD78
3FFD78
2FFD78
1FFD78
06FD78
001478
000078
000078
000078
000078
000078
000078
000078
ENDCHAR
STARTCHAR periodcentered
ENCODING 183
SWIDTH 600 0
DWIDTH 14 0
BBX 4 4 5 7
BITMAP
2D
BF
BF
2D
ENDCHAR
STARTCHAR cedilla
ENCODING 184
SWIDTH 600 0
DWIDTH 14 0
BBX 4 6 5 -6
BITMAP
28
34
3D
0B
1B
E8
ENDCHAR
STARTCHAR one.sups
ENCODING 185
SWIDTH 600 0
DWIDTH 14 0
BBX 8 10 4 9
BITMAP
0B80
7F80
0380
0380
0380
0380
0380
0380
BFFD
BFFD
ENDCHAR
STARTCHAR ordmasculine
ENCODING 186
SWIDTH 600 0
DWIDTH 14 0
BBX 8 8 3 9
BITMAP
0BE4
2FFD
781E
B00B
B00B
781E
2FFD
0BE4
ENDCHAR
STARTCHAR guillemotright
ENCODING 187
SWIDTH 600 0
DWIDTH 14 0
BBX 11 10 2 1
BITMAP
600900
780B40
1E03C0
0B41F0
03C074
03C074
0B41F0
1E03C0
780B40
600900
ENDCHAR
STARTCHAR onequarter
ENCODING 188
SWIDTH 600 0
DWIDTH 14 0
BBX 13 15 1 0
BITMAP
1B000240
7F000B40
07002D00
07007400
0701D000
07004000
07000000
00006000
0040D500
03828A00
0E074A00
3C0BFF80
F00BFF80
90000A00
00000A00
ENDCHAR
STARTCHAR onehalf
ENCODING 189
SWIDTH 600 0
DWIDTH 14 0
BBX 13 15 1 0
BITMAP
1B000240
7F000B40
07002D00
07007400
0701D000
07004000
07000000
0000B900
0042FF00
03824B00
0E000A00
3C001800
F000A000
9003FF80
0007FF80
ENDCHAR
STARTCHAR threequarters
ENCODING 190
SWIDTH 600 0
DWIDTH 14 0
BBX 13 16 1 0
BITMAP
2F400000
BFD00180
51D00380
02C00F00
0F802C00
91E0B000
BFE04000
2F800000
00006000
0040D500
01D28A00
07474A00
1D0BFF80
780BFF80
60000A00
00000A00
ENDCHAR
STARTCHAR questiondown
ENCODING 191
SWIDTH 600 0
DWIDTH 14 0
BBX 9 17 3 -5
BITMAP
02E000
03F400
03F400
02E000
000000
000000
00E000
01D000
03C000
0F4000
3D0000
B40000
F00000
F00000
F80B40
7FFF00
1BF400
ENDCHAR
STARTCHAR Agrave
ENCODING 192
SWIDTH 600 0
DWIDTH 14 0
BBX 13 21 1 0
BITMAP
00800000
01F40000
007D0000
00090000
00000000
003D0000
007E0000
00BB0000
00E74000
01D38000
02C2C000
0381D000
0740E000
0B00B000
0FFFF400
1FFFF800
2C002C00
3C002D00
78001E00
B4000F00
F0000B40
ENDCHAR
STARTCHAR Aacute
ENCODING 193
SWIDTH 600 0
DWIDTH 14 0
BBX 13 21 1 0
BITMAP
00024000
000B8000
002E0000
00240000
00000000
003D0000
007E0000
00BB0000
00E74000
01D38000
02C2C000
0381D000
0740E000
0B00B000
0FFFF400
1FFFF800
2C002C00
3C002D00
78001E00
B4000F00
F0000B40
ENDCHAR
STARTCHAR Acircumflex
ENCODING 194
SWIDTH 600 0
DWIDTH 14 0
BBX 13 20 1 0
BITMAP
007E0000
01E78000
02409000
00000000
003D0000
007E0000
00BB0000
00E74000
01D38000
02C2C000
0381D000
0740E000
0B00B000
0FFFF400
1FFFF800
2C002C00
3C002D00
78001E00
B4000F00
F0000B40
ENDCHAR
STARTCHAR Atilde
ENCODING 195
SWIDTH 600 0
DWIDTH 14 0
BBX 13 20 1 0
BITMAP
02E02400
0A2C7000
0907D000
00000000
003D0000
007E0000
00BB0000
00E74000
01D38000
02C2C000
0381D000
0740E000
0B00B000
0FFFF400
1FFFF800
2C002C00
3C002D00
78001E00
B4000F00
F0000B40
ENDCHAR
STARTCHAR Adieresis
ENCODING 196
SWIDTH 600 0
DWIDTH 14 0
BBX 13 19 1 0
BITMAP
03C2D000
03C2D000
00000000
003D0000
007E0000
00BB0000
00E74000
01D38000
02C2C000
0381D000
0740E000
0B00B000
0FFFF400
1FFFF800
2C002C00
3C002D00
78001E00
B4000F00
F0000B40
ENDCHAR
STARTCHAR Aring
ENCODING 197
SWIDTH 600 0
DWIDTH 14 0
BBX 13 22 1 0
BITMAP
007E0000
00D34000
00C24000
00D34000
007E0000
00000000
003D0000
007E0000
00BB0000
00E74000
01D38000
02C2C000
0381D000
0740E000
0B00B000
0FFFF400
1FFFF800
2C002C00
3C002D00
78001E00
B4000F00
F0000B40
ENDCHAR
STARTCHAR AE
ENCODING 198
SWIDTH 600 0
DWIDTH 14 0
BBX 15 16 0 0
BITMAP
000FFFF0
001FFFF0
002ED000
003DD000
0075D000
00F1D000
01E1FFC0
02D1FFC0
03C1D000
0781D000
0FFFD000
1FFFD000
2E01D000
3C01D000
7801FFF4
F401FFF4
ENDCHAR
STARTCHAR Ccedilla
ENCODING 199
SWIDTH 600 0
DWIDTH 14 0
BBX 12 22 1 -6
BITMAP
006FE0
02FFFD
0BD02E
1F4004
3D0000
3C0000
780000
780000
780000
780000
3C0000
3D0000
1F4005
0BD01F
02FFFD
006FE0
000700
000A00
000F80
0002D0
0006C0
002E40
ENDCHAR
STARTCHAR Egrave
ENCODING 200
SWIDTH 600 0
DWIDTH 14 0
BBX 11 21 2 0
BITMAP
018000
02E000
007800
001800
000000
7FFFF4
7FFFF4
780000
780000
780000
780000
7FFFD0
7FFFD0
780000
780000
780000
780000
780000
780000
7FFFF8
7FFFF8
ENDCHAR
STARTCHAR Eacute
ENCODING 201
SWIDTH 600 0
DWIDTH 14 0
BBX 11 21 2 0
BITMAP
000240
000B80
003D00
006000
000000
7FFFF4
7FFFF4
780000
780000
780000
780000
7FFFD0
7FFFD0
780000
780000
780000
780000
780000
780000
7FFFF8
7FFFF8
ENDCHAR
STARTCHAR Ecircumflex
ENCODING 202
SWIDTH 600 0
DWIDTH 14 0
BBX 11 20 2 0
BITMAP
00BD00
02D780
060190
000000
7FFFF4
7FFFF4
780000
780000
780000
780000
7FFFD0
7FFFD0
780000
780000
780000
780000
780000
780000
7FFFF8
7FFFF8
ENDCHAR
STARTCHAR Edieresis
ENCODING 203
SWIDTH 600 0
DWIDTH 14 0
BBX 11 19 2 0
BITMAP
0782D0
0782D0
000000
7FFFF4
7FFFF4
780000
780000
780000
780000
7FFFD0
7FFFD0
780000
780000
780000
780000
780000
780000
7FFFF8
7FFFF8
ENDCHAR
STARTCHAR Igrave
ENCODING 204
SWIDTH 600 0
DWIDTH 14 0
BBX 10 21 2 0
BITMAP
020000
07D000
01F400
002400
000000
BFFFF0
BFFFF0
00B400
00B400
00B400
00B400
00B400
00B400
00B400
00B400
00B400
00B400
00B400
00B400
BFFFF0
BFFFF0
ENDCHAR
STARTCHAR Iacute
ENCODING 205
SWIDTH 600 0
DWIDTH 14 0
BBX 10 21 2 0
BITMAP
000900
002E00
00B800
009000
000000
BFFFF0
BFFFF0
00B400
00B400
00B400
00B400
00B400
00B400
00B400
00B400
00B400
00B400
00B400
00B400
BFFFF0
BFFFF0
ENDCHAR
STARTCHAR Icircumflex
ENCODING 206
SWIDTH 600 0
DWIDTH 14 0
BBX 10 20 2 0
BITMAP
01F800
079E00
090240
000000
BFFFF0
BFFFF0
00B400
00B400
00B400
00B400
00B400
00B400
00B400
00B400
00B400
00B400
00B400
00B400
BFFFF0
BFFFF0
ENDCHAR
STARTCHAR Idieresis
ENCODING 207
SWIDTH 600 0
DWIDTH 14 0
BBX 10 19 2 0
BITMAP
0F0B40
0F0B40
000000
BFFFF0
BFFFF0
00B400
00B400
00B400
00B400
00B400
00B400
00B400
00B400
00B400
00B400
00B400
00B400
BFFFF0
BFFFF0
ENDCHAR
STARTCHAR Eth
ENCODING 208
SWIDTH 600 0
DWIDTH 14 0
BBX 14 16 0 0
BITMAP
0FFF9000
0FFFF800
0F01BE00
0F001F40
0F000B80
0F0003C0
BFFE03D0
BFFE03D0
0F0003D0
0F0003C0
0F0007C0
0F000B80
0F001F40
0F01BE00
0FFFF800
0FFF9000
ENDCHAR
STARTCHAR Ntilde
ENCODING 209
SWIDTH 600 0
DWIDTH 14 0
BBX 11 20 2 0
BITMAP
0B9090
1C74D0
281F80
000000
F40074
FC0074
FD0074
EF0074
E74074
E3C074
F2D074
F0F074
F0B474
F03C74
F02D74
F00F74
F00BB4
F003F4
F002F4
F000F4
ENDCHAR
STARTCHAR Ograve
ENCODING 210
SWIDTH 600 0
DWIDTH 14 0
BBX 13 21 1 0
BITMAP
00800000
01F40000
007D0000
00090000
00000000
01BE4000
0BFFF000
1F41F800
3D003D00
7C001E00
B8000F00
B4000F00
B4000F40
B4000F40
B4000F00
B8000F00
7C001E00
3D003D00
1F41F800
0BFFE000
01BE4000
ENDCHAR
STARTCHAR Oacute
ENCODING 211
SWIDTH 600 0
DWIDTH 14 0
BBX 13 21 1 0
BITMAP
00024000
000B8000
002E0000
00240000
00000000
01BE4000
0BFFF000
1F41F800
3D003D00
7C001E00
B8000F00
B4000F00
B4000F40
B4000F40
B4000F00
B8000F00
7C001E00
3D003D00
1F41F800
0BFFE000
01BE4000
ENDCHAR
STARTCHAR Ocircumflex
ENCODING 212
SWIDTH 600 0
DWIDTH 14 0
BBX 13 20 1 0
BITMAP
007E0000
01E78000
02409000
00000000
01BE4000
0BFFF000
1F41F800
3D003D00
7C001E00
B8000F00
B4000F00
B4000F40
B4000F40
B4000F00
B8000F00
7C001E00
3D003D00
1F41F800
0BFFE000
01BE4000
ENDCHAR
STARTCHAR Otilde
ENCODING 213
SWIDTH 600 0
DWIDTH 14 0
BBX 13 20 1 0
BITMAP
02E02400
0A2C7000
0907D000
00000000
01BE4000
0BFFF000
1F41F800
3D003D00
7C001E00
B8000F00
B4000F00
B4000F40
B4000F40
B4000F00
B8000F00
7C001E00
3D003D00
1F41F800
0BFFE000
01BE4000
ENDCHAR
STARTCHAR Odieresis
ENCODING 214
SWIDTH 600 0
DWIDTH 14 0
BBX 13 19 1 0
BITMAP
03C2D000
03C2D000
00000000
01BE4000
0BFFF000
1F41F800
3D003D00
7C001E00
B8000F00
B4000F00
B4000F40
B4000F40
B4000F00
B8000F00
7C001E00
3D003D00
1F41F800
0BFFE000
01BE4000
ENDCHAR
STARTCHAR multiply
ENCODING 215
SWIDTH 600 0
DWIDTH 14 0
BBX 10 10 2 3
BITMAP
200090
7802E0
1E0780
079E00
01F800
01F800
079E00
1E0780
7802E0
200090
ENDCHAR
STARTCHAR Oslash
ENCODING 216
SWIDTH 600 0
DWIDTH 14 0
BBX 13 18 1 -1
BITMAP
00000100
01BF4B40
0BFFFE00
1F41BC00
3D00BD00
7C01FE00
B8038F00
B40B4F00
B41D0F40
B4780F40
B4F00F00
BAD00F00
7F801E00
3F003D00
2F41F800
7FFFE000
F1BE4000
10000000
ENDCHAR
STARTCHAR Ugrave
ENCODING 217
SWIDTH 600 0
DWIDTH 14 0
BBX 11 21 2 0
BITMAP
020000
07D000
01F400
002400
000000
F00078
F00078
F00078
F00078
F00078
F00078
F00078
F00078
F00078
F00074
F00074
F000B4
B800F0
7D06E0
2FFFC0
06FE00
ENDCHAR
STARTCHAR Uacute
ENCODING 218
SWIDTH 600 0
DWIDTH 14 0
BBX 11 21 2 0
BITMAP
000900
002E00
00B800
009000
000000
F00078
F00078
F00078
F00078
F00078
F00078
F00078
F00078
F00078
F00074
F00074
F000B4
B800F0
7D06E0
2FFFC0
06FE00
ENDCHAR
STARTCHAR Ucircumflex
ENCODING 219
SWIDTH 600 0
DWIDTH 14 0
BBX 11 20 2 0
BITMAP
01F800
079E00
090240
000000
F00078
F00078
F00078
F00078
F00078
F00078
F00078
F00078
F00078
F00074
F00074
F000B4
B800F0
7D06E0
2FFFC0
06FE00
ENDCHAR
STARTCHAR Udieresis
ENCODING 220
SWIDTH 600 0
DWIDTH 14 0
BBX 11 19 2 0
BITMAP
0F0B40
0F0B40
000000
F00078
F00078
F00078
F00078
F00078
F00078
F00078
F00078
F00078
F00074
F00074
F000B4
B800F0
7D06E0
2FFFC0
06FE00
ENDCHAR
STARTCHAR Yacute
ENCODING 221
SWIDTH 600 0
DWIDTH 14 0
BBX 13 21 1 0
BITMAP
00024000
000B8000
002E0000
00240000
00000000
B4000B40
78001E00
2D002D00
1E007800
0B40B400
0781E000
02D2C000
01E78000
00BF0000
007E0000
003D0000
002D0000
002D0000
002D0000
002D0000
002D0000
ENDCHAR
STARTCHAR Thorn
ENCODING 222
SWIDTH 600 0
DWIDTH 14 0
BBX 11 16 2 0
BITMAP
B40000
B40000
B40000
BFFE40
BFFFE0
B401F8
B4007C
B4003C
B4003C
B4007C
B401F4
BFFFE0
BFFE40
B40000
B40000
B40000
ENDCHAR
STARTCHAR germandbls
ENCODING 223
SWIDTH 600 0
DWIDTH 14 0
BBX 12 17 2 0
BITMAP
06F900
2FFF40
7D0B80
B403C0
F40380
F00B00
F01D00
F03800
F03C00
F03F40
F01FE0
F002F8
F0003D
F0001E
F0642D
F0BFF8
F01FE0
ENDCHAR
STARTCHAR agrave
ENCODING 224
SWIDTH 600 0
DWIDTH 14 0
BBX 11 19 2 0
BITMAP
024000
07C000
01F000
007800
001800
000000
000000
06FE40
2FFFD0
7902F0
1000B4
006BF4
1BFFF4
7E94B4
F400B4
F000B4
F807F4
7FFEB4
1BE474
ENDCHAR
STARTCHAR aacute
ENCODING 225
SWIDTH 600 0
DWIDTH 14 0
BBX 11 19 2 0
BITMAP
000240
000B80
002E00
007800
006000
000000
000000
06FE40
2FFFD0
7902F0
1000B4
006BF4
1BFFF4
7E94B4
F400B4
F000B4
F807F4
7FFEB4
1BE474
ENDCHAR
STARTCHAR acircumflex
ENCODING 226
SWIDTH 600 0
DWIDTH 14 0
BBX 11 18 2 0
BITMAP
00BC00
02EF00
074380
090080
000000
000000
06FE40
2FFFD0
7902F0
1000B4
006BF4
1BFFF4
7E94B4
F400B4
F000B4
F807F4
7FFEB4
1BE474
ENDCHAR
STARTCHAR atilde
ENCODING 227
SWIDTH 600 0
DWIDTH 14 0
BBX 11 17 2 0
BITMAP
014050
0EB4A0
1C1B80
000000
000000
06FE40
2FFFD0
7902F0
1000B4
006BF4
1BFFF4
7E94B4
F400B4
F000B4
F807F4
7FFEB4
1BE474
ENDCHAR
STARTCHAR adieresis
ENCODING 228
SWIDTH 600 0
DWIDTH 14 0
BBX 11 17 2 0
BITMAP
0B4280
0F87D0
0B42C0
000000
000000
06FE40
2FFFD0
7902F0
1000B4
006BF4
1BFFF4
7E94B4
F400B4
F000B4
F807F4
7FFEB4
1BE474
ENDCHAR
STARTCHAR aring
ENCODING 229
SWIDTH 600 0
DWIDTH 14 0
BBX 11 19 2 0
BITMAP
00BD00
028700
034340
028700
00BD00
000000
000000
06FE40
2FFFD0
7902F0
1000B4
006BF4
1BFFF4
7E94B4
F400B4
F000B4
F807F4
7FFEB4
1BE474
ENDCHAR
STARTCHAR ae
ENCODING 230
SWIDTH 600 0
DWIDTH 14 0
BBX 15 12 0 0
BITMAP
0BE46F40
3FFDFFD0
241FD1E0
000B40B0
01BF0074
1BFFFFF4
3E4BFFF4
78070000
B4074000
781FD050
3FF9FFE0
1BD06F80
ENDCHAR
STARTCHAR ccedilla
ENCODING 231
SWIDTH 600 0
DWIDTH 14 0
BBX 11 18 2 -6
BITMAP
01BF80
0FFFF4
3F40B4
BC0000
F40000
F00000
F00000
F40000
BC0000
3F4078
1FFFF4
01BF80
001C00
002800
003E00
000B00
001B00
00F800
ENDCHAR
STARTCHAR egrave
ENCODING 232
SWIDTH 600 0
DWIDTH 14 0
BBX 12 19 1 0
BITMAP
009000
01F000
007800
001E00
000600
000000
000000
01BF90
07FFF4
1F907C
3D001E
7C000E
7FFFFF
7FFFFF
780000
3D0000
1F902C
07FFF8
00BF90
ENDCHAR
STARTCHAR eacute
ENCODING 233
SWIDTH 600 0
DWIDTH 14 0
BBX 12 19 1 0
BITMAP
000080
0002E0
000B80
002E00
001800
000000
000000
01BF90
07FFF4
1F907C
3D001E
7C000E
7FFFFF
7FFFFF
780000
3D0000
1F902C
07FFF8
00BF90
ENDCHAR
STARTCHAR ecircumflex
ENCODING 234
SWIDTH 600 0
DWIDTH 14 0
BBX 12 18 1 0
BITMAP
002F00
00BB80
01D1E0
024060
000000
000000
01BF90
07FFF4
1F907C
3D001E
7C000E
7FFFFF
7FFFFF
780000
3D0000
1F902C
07FFF8
00BF90
ENDCHAR
STARTCHAR edieresis
ENCODING 235
SWIDTH 600 0
DWIDTH 14 0
BBX 12 17 1 0
BITMAP
02D0E0
03E1F4
02D0E0
000000
000000
01BF90
07FFF4
1F907C
3D001E
7C000E
7FFFFF
7FFFFF
780000
3D0000
1F902C
07FFF8
00BF90
ENDCHAR
STARTCHAR igrave
ENCODING 236
SWIDTH 600 0
DWIDTH 14 0
BBX 8 19 2 0
BITMAP
0080
02E0
00B8
002D
0009
0000
0000
FFFE
FFFE
001E
001E
001E
001E
001E
001E
001E
001E
001E
001E
ENDCHAR
STARTCHAR iacute
ENCODING 237
SWIDTH 600 0
DWIDTH 14 0
BBX 10 19 2 0
BITMAP
000180
0003D0
000F40
002D00
002400
000000
000000
FFFE00
FFFE00
001E00
001E00
001E00
001E00
001E00
001E00
001E00
001E00
001E00
001E00
ENDCHAR
STARTCHAR icircumflex
ENCODING 238
SWIDTH 600 0
DWIDTH 14 0
BBX 10 18 2 0
BITMAP
003E00
00BB80
02D1D0
020060
000000
000000
FFFE00
FFFE00
001E00
001E00
001E00
001E00
001E00
001E00
001E00
001E00
001E00
001E00
ENDCHAR
STARTCHAR idieresis
ENCODING 239
SWIDTH 600 0
DWIDTH 14 0
BBX 10 17 2 0
BITMAP
02C1E0
07D2F0
02C1E0
000000
000000
FFFE00
FFFE00
001E00
001E00
001E00
001E00
001E00
001E00
001E00
001E00
001E00
001E00
ENDCHAR
STARTCHAR eth
ENCODING 240
SWIDTH 600 0
DWIDTH 14 0
BBX 12 17 1 0
BITMAP
029004
01F9BC
002FD0
01BFC0
0791F0
010078
01BE3C
0FFFED
2F41BE
7C002E
74000E
B4000E
74001E
3C002D
2F41BC
0BFFF4
01BF80
ENDCHAR
STARTCHAR ntilde
ENCODING 241
SWIDTH 600 0
DWIDTH 14 0
BBX 11 17 2 0
BITMAP
064050
0EB4E0
181B80
000000
000000
B0BF80
B3FFE0
BF41F4
BC00B4
B400B8
B40078
B40078
B40078
B40078
B40078
B40078
B40078
ENDCHAR
STARTCHAR ograve
ENCODING 242
SWIDTH 600 0
DWIDTH 14 0
BBX 12 19 1 0
BITMAP
018000
02E000
00B400
002D00
000900
000000
000000
01BF80
0BFFF4
2F41BC
3D003D
78001E
B8000F
B8000F
78001E
3D003D
2F41BC
0BFFF4
01BF80
ENDCHAR
STARTCHAR oacute
ENCODING 243
SWIDTH 600 0
DWIDTH 14 0
BBX 12 19 1 0
BITMAP
000180
0007D0
000F40
003D00
002400
000000
000000
01BF80
0BFFF4
2F41BC
3D003D
78001E
B8000F
B8000F
78001E
3D003D
2F41BC
0BFFF4
01BF80
ENDCHAR
STARTCHAR ocircumflex
ENCODING 244
SWIDTH 600 0
DWIDTH 14 0
BBX 12 18 1 0
BITMAP
007E00
00FB40
0282D0
060060
000000
000000
01BF80
0BFFF4
2F41BC
3D003D
78001E
B8000F
B8000F
78001E
3D003D
2F41BC
0BFFF4
01BF80
ENDCHAR
STARTCHAR otilde
ENCODING 245
SWIDTH 600 0
DWIDTH 14 0
BBX 12 17 1 0
BITMAP
019010
0B7870
090BD0
000000
000000
01BF80
0BFFF4
2F41BC
3D003D
78001E
B8000F
B8000F
78001E
3D003D
2F41BC
0BFFF4
01BF80
ENDCHAR
STARTCHAR odieresis
ENCODING 246
SWIDTH 600 0
DWIDTH 14 0
BBX 12 17 1 0
BITMAP
0381D0
07C2E0
0381D0
000000
000000
01BF80
0BFFF4
2F41BC
3D003D
78001E
B8000F
B8000F
78001E
3D003D
2F41BC
0BFFF4
01BF80
ENDCHAR
STARTCHAR divide
ENCODING 247
SWIDTH 600 0
DWIDTH 14 0
BBX 11 12 2 2
BITMAP
00B400
00F400
00B400
000000
000000
FFFFF4
FFFFF4
000000
000000
00B400
00F400
00B400
ENDCHAR
STARTCHAR oslash
ENCODING 248
SWIDTH 600 0
DWIDTH 14 0
BBX 12 13 1 -1
BITMAP
01BF9E
0BFFFC
2F40FC
3D02FD
78079E
B81E0F
B8780F
78E01E
3FC03D
2F41BC
2FFFF4
75BF80
100000
ENDCHAR
STARTCHAR ugrave
ENCODING 249
SWIDTH 600 0
DWIDTH 14 0
BBX 10 19 2 0
BITMAP
060000
0F8000
03D000
00F400
002400
000000
000000
F000F0
F000F0
F000F0
F000F0
F000F0
F000F0
F000F0
F000F0
F002F0
F91BF0
7FFDB0
1BE4B0
ENDCHAR
STARTCHAR uacute
ENCODING 250
SWIDTH 600 0
DWIDTH 14 0
BBX 10 19 2 0
BITMAP
000500
001F00
007D00
00F400
009000
000000
000000
F000F0
F000F0
F000F0
F000F0
F000F0
F000F0
F000F0
F000F0
F002F0
F91BF0
7FFDB0
1BE4B0
ENDCHAR
STARTCHAR ucircumflex
ENCODING 251
SWIDTH 600 0
DWIDTH 14 0
BBX 10 18 2 0
BITMAP
01F800
07AD00
0E0B40
180240
000000
000000
F000F0
F000F0
F000F0
F000F0
F000F0
F000F0
F000F0
F000F0
F002F0
F91BF0
7FFDB0
1BE4B0
ENDCHAR
STARTCHAR udieresis
ENCODING 252
SWIDTH 600 0
DWIDTH 14 0
BBX 10 17 2 0
BITMAP
1E0740
2F0F80
1E0740
000000
000000
F000F0
F000F0
F000F0
F000F0
F000F0
F000F0
F000F0
F000F0
F002F0
F91BF0
7FFDB0
1BE4B0
ENDCHAR
STARTCHAR yacute
ENCODING 253
SWIDTH 600 0
DWIDTH 14 0
BBX 12 24 1 -5
BITMAP
000180
0003D0
000F40
002D00
002400
000000
000000
B4000F
38001E
2D002D
1E0038
0B0074
0780B0
03C0E0
01D2D0
00E380
00B740
003F00
002E00
002D00
007800
01F400
3FE000
7E4000
ENDCHAR
STARTCHAR thorn
ENCODING 254
SWIDTH 600 0
DWIDTH 14 0
BBX 11 22 2 -5
BITMAP
B40000
B40000
B40000
B40000
B40000
B5BE40
BBFFE0
BE42F4
B800B8
B4007C
B4003C
B4003C
B40078
B400F4
BE06F0
BBFFD0
B1BE00
B40000
B40000
B40000
B40000
B40000
ENDCHAR
STARTCHAR ydieresis
ENCODING 255
SWIDTH 600 0
DWIDTH 14 0
BBX 12 22 1 -5
BITMAP
0381E0
07D2F0
0381E0
000000
000000
B4000F
38001E
2D002D
1E0038
0B0074
0780B0
03C0E0
01D2D0
00E380
00B740
003F00
002E00
002D00
007800
01F400
3FE000
7E4000
ENDCHAR
STARTCHAR Amacron
ENCODING 256
SWIDTH 600 0
DWIDTH 14 0
BBX 13 19 1 0
BITMAP
03FFD000
00000000
00000000
003D0000
007E0000
00BB0000
00E74000
01D38000
02C2C000
0381D000
0740E000
0B00B000
0FFFF400
1FFFF800
2C002C00
3C002D00
78001E00
B4000F00
F0000B40
ENDCHAR
STARTCHAR amacron
ENCODING 257
SWIDTH 600 0
DWIDTH 14 0
BBX 11 16 2 0
BITMAP
0BFFC0
000000
000000
000000
06FE40
2FFFD0
7902F0
1000B4
006BF4
1BFFF4
7E94B4
F400B4
F000B4
F807F4
7FFEB4
1BE474
ENDCHAR
STARTCHAR Abreve
ENCODING 258
SWIDTH 600 0
DWIDTH 14 0
BBX 13 20 1 0
BITMAP
0300A000
0281D000
00BE4000
00000000
003D0000
007E0000
00BB0000
00E74000
01D38000
02C2C000
0381D000
0740E000
0B00B000
0FFFF400
1FFFF800
2C002C00
3C002D00
78001E00
B4000F00
F0000B40
ENDCHAR
STARTCHAR abreve
ENCODING 259
SWIDTH 600 0
DWIDTH 14 0
BBX 11 17 2 0
BITMAP
0D00D0
0B4680
01FE00
000000
000000
06FE40
2FFFD0
7902F0
1000B4
006BF4
1BFFF4
7E94B4
F400B4
F000B4
F807F4
7FFEB4
1BE474
ENDCHAR
STARTCHAR Aogonek
ENCODING 260
SWIDTH 600 0
DWIDTH 14 0
BBX 14 22 1 -6
BITMAP
003D0000
007E0000
00BB0000
00E74000
01D38000
02C2C000
0381D000
0740E000
0B00B000
0FFFF400
1FFFF800
2C002C00
3C002D00
78001E00
B4000F00
F0000B40
00000A00
00001C00
00003800
00003840
00003FD0
00001F80
ENDCHAR
STARTCHAR aogonek
ENCODING 261
SWIDTH 600 0
DWIDTH 14 0
BBX 11 18 2 -6
BITMAP
06FE40
2FFFD0
7902F0
1000B4
006BF4
1BFFF4
7E94B4
F400B4
F000B4
F807F4
7FFFB4
1BF974
000090
000240
000700
000744
0007FC
0002F4
ENDCHAR
STARTCHAR Cacute
ENCODING 262
SWIDTH 600 0
DWIDTH 14 0
BBX 12 21 1 0
BITMAP
000060
0002E0
000B80
000900
000000
006FE0
02FFFD
0BD02E
1F4004
3D0000
3C0000
780000
780000
780000
780000
3C0000
3D0000
1F4005
0BD01F
02FFFD
006FE0
ENDCHAR
STARTCHAR cacute
ENCODING 263
SWIDTH 600 0
DWIDTH 14 0
BBX 11 19 2 0
BITMAP
000180
0003D0
000F40
002D00
002400
000000
000000
01BF80
0FFFF4
3F40B4
BC0000
F40000
F00000
F00000
F40000
BC0000
3F4078
1FFFF4
01BF80
ENDCHAR
STARTCHAR Ccircumflex
ENCODING 264
SWIDTH 600 0
DWIDTH 14 0
BBX 12 20 1 0
BITMAP
001F80
0079A0
009028
000000
006FE0
02FFFD
0BD02E
1F4004
3D0000
3C0000
780000
780000
780000
780000
3C0000
3D0000
1F4005
0BD01F
02FFFD
006FE0
ENDCHAR
STARTCHAR ccircumflex
ENCODING 265
SWIDTH 600 0
DWIDTH 14 0
BBX 11 18 2 0
BITMAP
003E00
00FB80
02C1D0
020060
000000
000000
01BF80
0FFFF4
3F40B4
BC0000
F40000
F00000
F00000
F40000
BC0000
3F4078
1FFFF4
01BF80
ENDCHAR
STARTCHAR Cdotaccent
ENCODING 266
SWIDTH 600 0
DWIDTH 14 0
BBX 12 20 1 0
BITMAP
000B40
000F80
000B40
000000
006FE0
02FFFD
0BD02E
1F4004
3D0000
3C0000
780000
780000
780000
780000
3C0000
3D0000
1F4005
0BD01F
02FFFD
006FE0
ENDCHAR
STARTCHAR cdotaccent
ENCODING 267
SWIDTH 600 0
DWIDTH 14 0
BBX 11 17 2 0
BITMAP
002D00
007F00
002D00
000000
000000
01BF80
0FFFF4
3F40B4
BC0000
F40000
F00000
F00000
F40000
BC0000
3F4078
1FFFF4
01BF80
ENDCHAR
STARTCHAR Ccaron
ENCODING 268
SWIDTH 600 0
DWIDTH 14 0
BBX 12 20 1 0
BITMAP
009028
0079A0
001F80
000000
006FE0
02FFFD
0BD02E
1F4004
3D0000
3C0000
780000
780000
780000
780000
3C0000
3D0000
1F4005
0BD01F
02FFFD
006FE0
ENDCHAR
STARTCHAR ccaron
ENCODING 269
SWIDTH 600 0
DWIDTH 14 0
BBX 11 18 2 0
BITMAP
020060
02C1D0
00FB80
003E00
000000
000000
01BF80
0FFFF4
3F40B4
BC0000
F40000
F00000
F00000
F40000
BC0000
3F4078
1FFFF4
01BF80
ENDCHAR
STARTCHAR Dcaron
ENCODING 270
SWIDTH 600 0
DWIDTH 14 0
BBX 12 20 2 0
BITMAP
090240
079E00
01F800
000000
FFF900
FFFF80
F01BE0
F001F4
F000B8
F0003C
F0003D
F0002D
F0003D
F0003C
F0003C
F000B8
F001F4
F01BE0
FFFF80
FFF900
ENDCHAR
STARTCHAR dcaron
ENCODING 271
SWIDTH 600 0
DWIDTH 14 0
BBX 14 19 1 0
BITMAP
000000F0
000000F0
000078E0
000078E0
000078E0
000078E0
00007800
02F97800
0FFFB800
2F42F800
7C00B800
B8007800
B4007800
B4007800
B4007800
7C00B800
3E06F800
1FFFB800
06F93800
ENDCHAR
STARTCHAR Dcroat
ENCODING 272
SWIDTH 600 0
DWIDTH 14 0
BBX 14 16 0 0
BITMAP
0FFF9000
0FFFF800
0F01BE00
0F001F40
0F000B80
0F0003C0
BFFE03D0
BFFE03D0
0F0003D0
0F0003C0
0F0007C0
0F000B80
0F001F40
0F01BE00
0FFFF800
0FFF9000
ENDCHAR
STARTCHAR dcroat
ENCODING 273
SWIDTH 600 0
DWIDTH 14 0
BBX 13 17 1 0
BITMAP
00002D00
00002D00
003FFFC0
003FFF80
00002D00
00002D00
01BE2D00
0BFFFD00
2F41BD00
7D002D00
78002D00
B8002D00
78002D00
7C003D00
3E41FD00
1FFFED00
02FE2D00
ENDCHAR
STARTCHAR Emacron
ENCODING 274
SWIDTH 600 0
DWIDTH 14 0
BBX 11 19 2 0
BITMAP
07FFD0
000000
000000
7FFFF4
7FFFF4
780000
780000
780000
780000
7FFFD0
7FFFD0
780000
780000
780000
780000
780000
780000
7FFFF8
7FFFF8
ENDCHAR
STARTCHAR emacron
ENCODING 275
SWIDTH 600 0
DWIDTH 14 0
BBX 12 16 1 0
BITMAP
02FFE0
000000
000000
000000
01BF90
07FFF4
1F907C
3D001E
7C000E
7FFFFF
7FFFFF
780000
3D0000
1F902C
07FFF8
00BF90
ENDCHAR
STARTCHAR Ebreve
ENCODING 276
SWIDTH 600 0
DWIDTH 14 0
BBX 11 20 2 0
BITMAP
0600D0
0382C0
01BE00
000000
7FFFF4
7FFFF4
780000
780000
780000
780000
7FFFD0
7FFFD0
780000
780000
780000
780000
780000
780000
7FFFF8
7FFFF8
ENDCHAR
STARTCHAR ebreve
ENCODING 277
SWIDTH 600 0
DWIDTH 14 0
BBX 12 17 1 0
BITMAP
034034
02D1A0
007F80
000000
000000
01BF90
07FFF4
1F907C
3D001E
7C000E
7FFFFF
7FFFFF
780000
3D0000
1F902C
07FFF8
00BF90
ENDCHAR
STARTCHAR Edotaccent
ENCODING 278
SWIDTH 600 0
DWIDTH 14 0
BBX 11 20 2 0
BITMAP
003800
007D00
003C00
000000
7FFFF4
7FFFF4
780000
780000
780000
780000
7FFFD0
7FFFD0
780000
780000
780000
780000
780000
780000
7FFFF8
7FFFF8
ENDCHAR
STARTCHAR edotaccent
ENCODING 279
SWIDTH 600 0
DWIDTH 14 0
BBX 12 17 1 0
BITMAP
002E00
003F00
002E00
000000
000000
01BF90
07FFF4
1F907C
3D001E
7C000E
7FFFFF
7FFFFF
780000
3D0000
1F902C
07FFF8
00BF90
ENDCHAR
STARTCHAR Eogonek
ENCODING 280
SWIDTH 600 0
DWIDTH 14 0
BBX 11 22 2 -6
BITMAP
7FFFF4
7FFFF4
780000
780000
780000
780000
7FFFD0
7FFFD0
780000
780000
780000
780000
780000
780000
7FFFF8
7FFFF8
0000A0
000280
000740
000744
0007FC
0001F4
ENDCHAR
STARTCHAR eogonek
ENCODING 281
SWIDTH 600 0
DWIDTH 14 0
BBX 12 18 1 -6
BITMAP
01BF90
07FFF4
1F907C
3D001E
7C000E
7FFFFF
7FFFFF
780000
3D0000
1F902C
07FFFC
00BFE0
0001C0
000340
000700
000784
0003FD
0001F8
ENDCHAR
STARTCHAR Ecaron
ENCODING 282
SWIDTH 600 0
DWIDTH 14 0
BBX 11 20 2 0
BITMAP
060190
02D780
00BE00
000000
7FFFF4
7FFFF4
780000
780000
780000
780000
7FFFD0
7FFFD0
780000
780000
780000
780000
780000
780000
7FFFF8
7FFFF8
ENDCHAR
STARTCHAR ecaron
ENCODING 283
SWIDTH 600 0
DWIDTH 14 0
BBX 12 18 1 0
BITMAP
024060
01D1E0
00BB80
002F00
000000
000000
01BF90
07FFF4
1F907C
3D001E
7C000E
7FFFFF
7FFFFF
780000
3D0000
1F902C
07FFF8
00BF90
ENDCHAR
STARTCHAR Gcircumflex
ENCODING 284
SWIDTH 600 0
DWIDTH 14 0
BBX 12 20 1 0
BITMAP
002F40
00B5D0
018064
000000
006F90
07FFF8
0FD06D
2E0004
3C0000
780000
B40000
B407FE
B407FE
B4000E
78000E
3C000E
2E000E
0F906E
07FFFD
00AFE0
ENDCHAR
STARTCHAR gcircumflex
ENCODING 285
SWIDTH 600 0
DWIDTH 14 0
BBX 13 23 1 -5
BITMAP
003E0000
00BB8000
02D1D000
02006000
00000000
00000000
01BFFF80
0BFFFF80
1F41E000
2D007400
2D007400
1F41F400
0BFFE000
0BBF4000
1D000000
2E000000
0FFFF900
0BFFFF40
28000B80
78000B40
3D006F00
2FFFFD00
06FF9000
ENDCHAR
STARTCHAR Gbreve
ENCODING 286
SWIDTH 600 0
DWIDTH 14 0
BBX 12 20 1 0
BITMAP
018034
00E0B0
006F80
000000
006F90
07FFF8
0FD06D
2E0004
3C0000
780000
B40000
B407FE
B407FE
B4000E
78000E
3C000E
2E000E
0F906E
07FFFD
00AFE0
ENDCHAR
STARTCHAR gbreve
ENCODING 287
SWIDTH 600 0
DWIDTH 14 0
BBX 13 22 1 -5
BITMAP
07007000
0291E000
00BF4000
00000000
00000000
01BFFF80
0BFFFF80
1F41E000
2D007400
2D007400
1F41F400
0BFFE000
0BBF4000
1D000000
2E000000
0FFFF900
0BFFFF40
28000B80
78000B40
3D006F00
2FFFFD00
06FF9000
ENDCHAR
STARTCHAR Gdotaccent
ENCODING 288
SWIDTH 600 0
DWIDTH 14 0
BBX 12 20 1 0
BITMAP
000E00
001F40
000E00
000000
006F90
07FFF8
0FD06D
2E0004
3C0000
780000
B40000
B407FE
B407FE
B4000E
78000E
3C000E
2E000E
0F906E
07FFFD
00AFE0
ENDCHAR
STARTCHAR gdotaccent
ENCODING 289
SWIDTH 600 0
DWIDTH 14 0
BBX 13 22 1 -5
BITMAP
002D0000
007F0000
002D0000
00000000
00000000
01BFFF80
0BFFFF80
1F41E000
2D007400
2D007400
1F41F400
0BFFE000
0BBF4000
1D000000
2E000000
0FFFF900
0BFFFF40
28000B80
78000B40
3D006F00
2FFFFD00
06FF9000
ENDCHAR
STARTCHAR uni0122
ENCODING 290
SWIDTH 600 0
DWIDTH 14 0
BBX 12 21 1 -5
BITMAP
006F90
07FFF8
0FD06D
2E0004
3C0000
780000
B40000
B407FE
B407FE
B4000E
78000E
3C000E
2E000E
0F906E
07FFFD
00AFE0
000000
001E00
000780
007F80
007900
ENDCHAR
STARTCHAR uni0123
ENCODING 291
SWIDTH 600 0
DWIDTH 14 0
BBX 13 24 1 -5
BITMAP
001B4000
007F8000
00740000
00740000
001A0000
00000000
00000000
01BFFF80
0BFFFF80
1F41E000
2D007400
2D007400
1F41F400
0BFFE000
0BBF4000
1D000000
2E000000
0FFFF900
0BFFFF40
28000B80
78000B40
3D006F00
2FFFFD00
06FF9000
ENDCHAR
STARTCHAR Hcircumflex
ENCODING 292
SWIDTH 600 0
DWIDTH 14 0
BBX 11 20 2 0
BITMAP
01F800
079E00
090240
000000
F000B8
F000B8
F000B8
F000B8
F000B8
F000B8
FFFFF8
FFFFF8
F000B8
F000B8
F000B8
F000B8
F000B8
F000B8
F000B8
F000B8
ENDCHAR
STARTCHAR hcircumflex
ENCODING 293
SWIDTH 600 0
DWIDTH 14 0
BBX 13 21 0 0
BITMAP
1F800000
75E00000
90240000
00000000
0B400000
0B400000
0B400000
0B400000
0B400000
0B0BF800
0B7FFE00
0BF41F40
0BC00B40
0B400B80
0B400780
0B400780
0B400780
0B400780
0B400780
0B400780
0B400780
ENDCHAR
STARTCHAR Hbar
ENCODING 294
SWIDTH 600 0
DWIDTH 14 0
BBX 14 16 0 0
BITMAP
0F000B80
0F000B80
0F000B80
BFFFFFF0
BFFFFFF0
0F000B80
0FFFFF80
0FFFFF80
0F000B80
0F000B80
0F000B80
0F000B80
0F000B80
0F000B80
0F000B80
0F000B80
ENDCHAR
STARTCHAR hbar
ENCODING 295
SWIDTH 600 0
DWIDTH 14 0
BBX 13 17 0 0
BITMAP
0B400000
0B400000
7FFFD000
BFFFD000
0B400000
0B400000
0B0BF800
0B7FFE00
0BF41F40
0B800B40
0B400780
0B400780
0B400780
0B400780
0B400780
0B400780
0B400780
ENDCHAR
STARTCHAR Itilde
ENCODING 296
SWIDTH 600 0
DWIDTH 14 0
BBX 10 20 2 0
BITMAP
0B8090
28B1C0
241F40
000000
BFFFF0
BFFFF0
00B400
00B400
00B400
00B400
00B400
00B400
00B400
00B400
00B400
00B400
00B400
00B400
BFFFF0
BFFFF0
ENDCHAR
STARTCHAR itilde
ENCODING 297
SWIDTH 600 0
DWIDTH 14 0
BBX 11 17 2 0
BITMAP
019014
076974
0A07E0
000000
000000
FFFE00
FFFE00
001E00
001E00
001E00
001E00
001E00
001E00
001E00
001E00
001E00
001E00
ENDCHAR
STARTCHAR Imacron
ENCODING 298
SWIDTH 600 0
DWIDTH 14 0
BBX 10 19 2 0
BITMAP
0FFF40
000000
000000
BFFFF0
BFFFF0
00B400
00B400
00B400
00B400
00B400
00B400
00B400
00B400
00B400
00B400
00B400
00B400
BFFFF0
BFFFF0
ENDCHAR
STARTCHAR imacron
ENCODING 299
SWIDTH 600 0
DWIDTH 14 0
BBX 10 16 2 0
BITMAP
02FFE0
000000
000000
000000
FFFE00
FFFE00
001E00
001E00
001E00
001E00
001E00
001E00
001E00
001E00
001E00
001E00
ENDCHAR
STARTCHAR Ibreve
ENCODING 300
SWIDTH 600 0
DWIDTH 14 0
BBX 10 20 2 0
BITMAP
0C0280
0A0740
02F900
000000
BFFFF0
BFFFF0
00B400
00B400
00B400
00B400
00B400
00B400
00B400
00B400
00B400
00B400
00B400
00B400
BFFFF0
BFFFF0
ENDCHAR
STARTCHAR ibreve
ENCODING 301
SWIDTH 600 0
DWIDTH 14 0
BBX 10 17 2 0
BITMAP
070070
0291E0
00BF40
000000
000000
FFFE00
FFFE00
001E00
001E00
001E00
001E00
001E00
001E00
001E00
001E00
001E00
001E00
ENDCHAR
STARTCHAR Iogonek
ENCODING 302
SWIDTH 600 0
DWIDTH 14 0
BBX 10 22 2 -6
BITMAP
BFFFF0
BFFFF0
00B400
00B400
00B400
00B400
00B400
00B400
00B400
00B400
00B400
00B400
00B400
00B400
BFFFF0
BFFFF0
00A000
01C000
038000
038400
02FD00
01B800
ENDCHAR
STARTCHAR iogonek
ENCODING 303
SWIDTH 600 0
DWIDTH 14 0
BBX 9 23 2 -6
BITMAP
002D00
007F00
002D00
000000
000000
FFFE00
FFFE00
001E00
001E00
001E00
001E00
001E00
001E00
001E00
001E00
001E00
001E00
001800
006000
00D000
00E100
00FF80
006E00
ENDCHAR
STARTCHAR Idotaccent
ENCODING 304
SWIDTH 600 0
DWIDTH 14 0
BBX 10 20 2 0
BITMAP
00B400
01F800
00B400
000000
BFFFF0
BFFFF0
00B400
00B400
00B400
00B400
00B400
00B400
00B400
00B400
00B400
00B400
00B400
00B400
BFFFF0
BFFFF0
ENDCHAR
STARTCHAR dotlessi
ENCODING 305
SWIDTH 600 0
DWIDTH 14 0
BBX 8 12 2 0
BITMAP
FFFE
FFFE
001E
001E
001E
001E
001E
001E
001E
001E
001E
001E
ENDCHAR
STARTCHAR IJ
ENCODING 306
SWIDTH 600 0
DWIDTH 14 0
BBX 10 20 2 -4
BITMAP
7801E0
7801E0
7801E0
7801E0
7801E0
7801E0
7801E0
7801E0
7801E0
7801E0
7801E0
7801E0
7801E0
7801E0
7801E0
7801E0
0001E0
0002E0
003FC0
007F40
ENDCHAR
STARTCHAR ij
ENCODING 307
SWIDTH 600 0
DWIDTH 14 0
BBX 11 22 2 -5
BITMAP
7800B4
BC01F8
7800B4
000000
000000
7800F0
7800F0
7800F0
7800F0
7800F0
7800F0
7800F0
7800F0
7800F0
7800F0
7800F0
7800F0
0000F0
0000F0
0001F0
002FE0
002F80
ENDCHAR
STARTCHAR Jcircumflex
ENCODING 308
SWIDTH 600 0
DWIDTH 14 0
BBX 10 20 2 0
BITMAP
00BD00
02DB40
060180
000000
2FFFE0
2FFFE0
0000E0
0000E0
0000E0
0000E0
0000E0
0000E0
0000E0
0000E0
0001E0
0001E0
6002E0
B90BD0
3FFF80
07F900
ENDCHAR
STARTCHAR jcircumflex
ENCODING 309
SWIDTH 600 0
DWIDTH 14 0
BBX 11 23 1 -5
BITMAP
000F80
002EE0
00B474
008018
000000
000000
3FFF80
3FFF80
000780
000780
000780
000780
000780
000780
000780
000780
000780
000780
000740
000B40
101F00
7FFE00
2FE400
ENDCHAR
STARTCHAR uni0136
ENCODING 310
SWIDTH 600 0
DWIDTH 14 0
BBX 12 21 2 -5
BITMAP
B4007C
B401F0
B403D0
B40B40
B42E00
B47800
B5F800
BBFC00
BF5E00
BE0F40
B80780
B402D0
B401F0
B400B8
B4007C
B4002E
000000
003900
001B00
00FE00
00E800
ENDCHAR
STARTCHAR uni0137
ENCODING 311
SWIDTH 600 0
DWIDTH 14 0
BBX 12 22 2 -5
BITMAP
780000
780000
780000
780000
780000
7800B8
7802E0
780B80
781E00
787C00
79FC00
7BAE00
7E0B40
7803D0
7801F0
7800B8
78002D
000000
003900
001F00
01FE00
00E800
ENDCHAR
STARTCHAR kgreenlandic
ENCODING 312
SWIDTH 600 0
DWIDTH 14 0
BBX 12 12 2 0
BITMAP
7800B8
7802E0
780B80
782E00
78B800
7AFC00
7F9E00
7E0B40
7803D0
7801F0
7800B8
78002D
ENDCHAR
STARTCHAR Lacute
ENCODING 313
SWIDTH 600 0
DWIDTH 14 0
BBX 10 21 3 0
BITMAP
060000
1F4000
780000
A00000
000000
B40000
B40000
B40000
B40000
B40000
B40000
B40000
B40000
B40000
B40000
B40000
B40000
B40000
B40000
BFFFF0
BFFFF0
ENDCHAR
STARTCHAR lacute
ENCODING 314
SWIDTH 600 0
DWIDTH 14 0
BBX 12 22 1 0
BITMAP
000240
000F40
007D00
006000
000000
7FFC00
7FFC00
003C00
003C00
003C00
003C00
003C00
003C00
003C00
003C00
003C00
003C00
003C00
003C00
003E05
001FFE
0006F9
ENDCHAR
STARTCHAR uni013B
ENCODING 315
SWIDTH 600 0
DWIDTH 14 0
BBX 10 21 3 -5
BITMAP
B40000
B40000
B40000
B40000
B40000
B40000
B40000
B40000
B40000
B40000
B40000
B40000
B40000
B40000
BFFFF0
BFFFF0
000000
00A400
002C00
03FC00
02E400
ENDCHAR
STARTCHAR uni013C
ENCODING 316
SWIDTH 600 0
DWIDTH 14 0
BBX 12 22 1 -5
BITMAP
7FFC00
7FFC00
003C00
003C00
003C00
003C00
003C00
003C00
003C00
003C00
003C00
003C00
003C00
003C00
003E05
001FFE
0006F9
000000
000390
0000B0
000FF0
000F80
ENDCHAR
STARTCHAR Lcaron
ENCODING 317
SWIDTH 600 0
DWIDTH 14 0
BBX 10 18 3 0
BITMAP
000F00
000F00
B40E00
B40E00
B40E00
B40E00
B40000
B40000
B40000
B40000
B40000
B40000
B40000
B40000
B40000
B40000
BFFFF0
BFFFF0
ENDCHAR
STARTCHAR lcaron
ENCODING 318
SWIDTH 600 0
DWIDTH 14 0
BBX 12 19 1 0
BITMAP
000074
000074
7FFC74
7FFC74
003C74
003C70
003C00
003C00
003C00
003C00
003C00
003C00
003C00
003C00
003C00
003C00
003E05
001FFE
0006F9
ENDCHAR
STARTCHAR Ldot
ENCODING 319
SWIDTH 600 0
DWIDTH 14 0
BBX 10 16 3 0
BITMAP
B40000
B40000
B40000
B40000
B40000
B40000
B402D0
B407E0
B402D0
B40000
B40000
B40000
B40000
B40000
BFFFF0
BFFFF0
ENDCHAR
STARTCHAR ldot
ENCODING 320
SWIDTH 600 0
DWIDTH 14 0
BBX 15 17 1 0
BITMAP
FFF00000
FFF00000
00F00000
00F00000
00F00000
00F00000
00F00000
00F001E0
00F003F4
00F001E0
00F00000
00F00000
00F00000
00F00000
00B81400
007FF800
001BE400
ENDCHAR
STARTCHAR Lslash
ENCODING 321
SWIDTH 600 0
DWIDTH 14 0
BBX 13 16 0 0
BITMAP
02D00000
02D00000
02D00000
02D00000
02D00000
02D02800
02D2F400
02EF8000
03F80000
1FD00000
BBD00000
12D00000
02D00000
02D00000
02FFFFC0
02FFFFC0
ENDCHAR
STARTCHAR lslash
ENCODING 322
SWIDTH 600 0
DWIDTH 14 0
BBX 12 17 1 0
BITMAP
7FFC00
7FFC00
003C00
003C00
003C14
003DB8
003FD0
007D00
06FC00
0F7C00
043C00
003C00
003C00
003C00
003E05
001FFE
0006F9
ENDCHAR
STARTCHAR Nacute
ENCODING 323
SWIDTH 600 0
DWIDTH 14 0
BBX 11 21 2 0
BITMAP
000600
001F00
00B800
009000
000000
F40074
FC0074
FD0074
EF0074
E74074
E3C074
F2D074
F0F074
F0B474
F03C74
F02D74
F00F74
F00BB4
F003F4
F002F4
F000F4
ENDCHAR
STARTCHAR nacute
ENCODING 324
SWIDTH 600 0
DWIDTH 14 0
BBX 11 19 2 0
BITMAP
000200
000B80
002E00
007800
006000
000000
000000
B0BF80
B3FFE0
BF41F4
BC00B4
B400B8
B40078
B40078
B40078
B40078
B40078
B40078
B40078
ENDCHAR
STARTCHAR uni0145
ENCODING 325
SWIDTH 600 0
DWIDTH 14 0
BBX 11 21 2 -5
BITMAP
F40074
FC0074
FD0074
EF0074
E74074
E3C074
F2D074
F0F074
F0B474
F03C74
F02D74
F00F74
F00BB4
F003F4
F002F4
F000F4
000000
00E400
006C00
03FC00
03E000
ENDCHAR
STARTCHAR uni0146
ENCODING 326
SWIDTH 600 0
DWIDTH 14 0
BBX 11 17 2 -5
BITMAP
B0BF80
B3FFE0
BF41F4
BC00B4
B400B8
B40078
B40078
B40078
B40078
B40078
B40078
B40078
000000
00A400
002D00
02FD00
02E400
ENDCHAR
STARTCHAR Ncaron
ENCODING 327
SWIDTH 600 0
DWIDTH 14 0
BBX 11 20 2 0
BITMAP
090280
079B00
01FC00
000000
F40074
FC0074
FD0074
EF0074
E74074
E3C074
F2D074
F0F074
F0B474
F03C74
F02D74
F00F74
F00BB4
F003F4
F002F4
F000F4
ENDCHAR
STARTCHAR ncaron
ENCODING 328
SWIDTH 600 0
DWIDTH 14 0
BBX 11 18 2 0
BITMAP
090080
074780
02EE00
00BC00
000000
000000
B0BF80
B3FFE0
BF41F4
BC00B4
B400B8
B40078
B40078
B40078
B40078
B40078
B40078
B40078
ENDCHAR
STARTCHAR napostrophe
ENCODING 329
SWIDTH 600 0
DWIDTH 14 0
BBX 16 17 -1 0
BITMAP
2E000000
7F400000
7F400000
2F800000
03400000
071D1BE0
1E1DBFF8
781FD0BC
201F403D
001E002D
001E002D
001E002D
001E002D
001E002D
001E002D
001E002D
001E002D
ENDCHAR
STARTCHAR Eng
ENCODING 330
SWIDTH 600 0
DWIDTH 14 0
BBX 11 16 2 0
BITMAP
F1BE40
F7FFD0
FE42F0
F800B8
F0007C
F0003C
F0003C
F0003C
F0003C
F0003C
F0003C
F0007C
F00078
F001F4
F01FE0
F02F80
ENDCHAR
STARTCHAR eng
ENCODING 331
SWIDTH 600 0
DWIDTH 14 0
BBX 11 17 2 -5
BITMAP
B0BF80
B3FFE0
BF41F4
BC00B4
B400B8
B40078
B40078
B40078
B40078
B40078
B40078
B40078
000078
0000B4
0000F4
001FF0
001F90
ENDCHAR
STARTCHAR Omacron
ENCODING 332
SWIDTH 600 0
DWIDTH 14 0
BBX 13 19 1 0
BITMAP
03FFD000
00000000
00000000
01BE4000
0BFFF000
1F41F800
3D003D00
7C001E00
B8000F00
B4000F00
B4000F40
B4000F40
B4000F00
B8000F00
7C001E00
3D003D00
1F41F800
0BFFE000
01BE4000
ENDCHAR
STARTCHAR omacron
ENCODING 333
SWIDTH 600 0
DWIDTH 14 0
BBX 12 16 1 0
BITMAP
03FFD0
000000
000000
000000
01BF80
0BFFF4
2F41BC
3D003D
78001E
B8000F
B8000F
78001E
3D003D
2F41BC
0BFFF4
01BF80
ENDCHAR
STARTCHAR Obreve
ENCODING 334
SWIDTH 600 0
DWIDTH 14 0
BBX 13 20 1 0
BITMAP
0300A000
0281D000
00BE4000
00000000
01BE4000
0BFFF000
1F41F800
3D003D00
7C001E00
B8000F00
B4000F00
B4000F40
B4000F40
B4000F00
B8000F00
7C001E00
3D003D00
1F41F800
0BFFE000
01BE4000
ENDCHAR
STARTCHAR obreve
ENCODING 335
SWIDTH 600 0
DWIDTH 14 0
BBX 12 17 1 0
BITMAP
0700A0
0381D0
00BE40
000000
000000
01BF80
0BFFF4
2F41BC
3D003D
78001E
B8000F
B8000F
78001E
3D003D
2F41BC
0BFFF4
01BF80
ENDCHAR
STARTCHAR Ohungarumlaut
ENCODING 336
SWIDTH 600 0
DWIDTH 14 0
BBX 13 21 1 0
BITMAP
00282400
00747400
00E0D000
01818000
00000000
01BE4000
0BFFF000
1F41F800
3D003D00
7C001E00
B8000F00
B4000F00
B4000F40
B4000F40
B4000F00
B8000F00
7C001E00
3D003D00
1F41F800
0BFFE000
01BE4000
ENDCHAR
STARTCHAR ohungarumlaut
ENCODING 337
SWIDTH 600 0
DWIDTH 14 0
BBX 12 18 1 0
BITMAP
001824
003874
0074A0
00A1D0
008180
000000
01BF80
0BFFF4
2F41BC
3D003D
78001E
B8000F
B8000F
78001E
3D003D
2F41BC
0BFFF4
01BF80
ENDCHAR
STARTCHAR OE
ENCODING 338
SWIDTH 600 0
DWIDTH 14 0
BBX 15 16 0 0
BITMAP
006FFFF0
02FFFFF0
0B92D000
1F02D000
2D02D000
3C02D000
3C02FFC0
7C02FFC0
7C02D000
3C02D000
3C02D000
2D02D000
1F02D000
0B92D000
03FFFFF4
006FFFF4
ENDCHAR
STARTCHAR oe
ENCODING 339
SWIDTH 600 0
DWIDTH 14 0
BBX 15 12 0 0
BITMAP
07E02F40
1FFCBFD0
3D1ED1E0
780B80B0
B4074074
B007FFF4
B007FFF4
B4074000
780B8000
3D1EE050
1FFCBFE0
07E02F80
ENDCHAR
STARTCHAR Racute
ENCODING 340
SWIDTH 600 0
DWIDTH 14 0
BBX 11 21 2 0
BITMAP
000600
002E00
00B800
009000
000000
BFFE40
BFFFE0
B401F4
B40078
B40078
B400B8
B402F4
BFFFE0
BFFE40
B42E00
B40F40
B40780
B403D0
B401F0
B400B4
B4007C
ENDCHAR
STARTCHAR racute
ENCODING 341
SWIDTH 600 0
DWIDTH 14 0
BBX 10 19 3 0
BITMAP
000600
000F40
003D00
00B400
009000
000000
000000
B42FE0
B5FFE0
BB9010
BE0000
B80000
B40000
B40000
B40000
B40000
B40000
B40000
B40000
ENDCHAR
STARTCHAR uni0156
ENCODING 342
SWIDTH 600 0
DWIDTH 14 0
BBX 11 21 2 -5
BITMAP
BFFE40
BFFFE0
B401F4
B40078
B40078
B400B8
B402F4
BFFFE0
BFFE40
B42E00
B40F40
B40780
B403D0
B401F0
B400B4
B4007C
000000
007800
001D00
02FD00
01E400
ENDCHAR
STARTCHAR uni0157
ENCODING 343
SWIDTH 600 0
DWIDTH 14 0
BBX 11 17 2 -5
BITMAP
2D0BF8
2D7FF8
2EE404
2F8000
2E0000
2D0000
2D0000
2D0000
2D0000
2D0000
2D0000
2D0000
000000
1E0000
078000
7F4000
790000
ENDCHAR
STARTCHAR Rcaron
ENCODING 344
SWIDTH 600 0
DWIDTH 14 0
BBX 11 20 2 0
BITMAP
090280
079E00
01F800
000000
BFFE40
BFFFE0
B401F4
B40078
B40078
B400B8
B402F4
BFFFE0
BFFE40
B42E00
B40F40
B40780
B403D0
B401F0
B400B4
B4007C
ENDCHAR
STARTCHAR rcaron
ENCODING 345
SWIDTH 600 0
DWIDTH 14 0
BBX 10 18 3 0
BITMAP
080180
0B0740
03EE00
00F800
000000
000000
B42FE0
B5FFE0
BB9010
BE0000
B80000
B40000
B40000
B40000
B40000
B40000
B40000
B40000
ENDCHAR
STARTCHAR Sacute
ENCODING 346
SWIDTH 600 0
DWIDTH 14 0
BBX 11 21 2 0
BITMAP
000600
001F40
007800
00A000
000000
06FE40
2FFFE0
7D01F0
B80010
B40000
7D0000
2F9000
07FD00
006FD0
0006F4
0000B8
00007C
900078
F901F4
7FFFE0
06FE40
ENDCHAR
STARTCHAR sacute
ENCODING 347
SWIDTH 600 0
DWIDTH 14 0
BBX 11 19 2 0
BITMAP
000600
001F40
003D00
00B400
009000
000000
000000
06FE00
3FFFD0
7D01E0
B80000
7E4000
1FFA00
016FE0
0001B4
400078
F901F4
7FFFE0
06FE40
ENDCHAR
STARTCHAR Scircumflex
ENCODING 348
SWIDTH 600 0
DWIDTH 14 0
BBX 11 20 2 0
BITMAP
00FD00
038B40
0A0180
000000
06FE40
2FFFE0
7D01F0
B80010
B40000
7D0000
2F9000
07FD00
006FD0
0006F4
0000B8
00007C
900078
F901F4
7FFFE0
06FE40
ENDCHAR
STARTCHAR scircumflex
ENCODING 349
SWIDTH 600 0
DWIDTH 14 0
BBX 11 18 2 0
BITMAP
01F800
03EE00
0B0740
180180
000000
000000
06FE00
3FFFD0
7D01E0
B80000
7E4000
1FFA00
016FE0
0001B4
400078
F901F4
7FFFE0
06FE40
ENDCHAR
STARTCHAR uni015E
ENCODING 350
SWIDTH 600 0
DWIDTH 14 0
BBX 11 22 2 -6
BITMAP
06FE40
2FFFE0
7D01F0
B80010
B40000
7D0000
2F9000
07FD00
006FD0
0006F4
0000B8
00007C
900078
F901F4
7FFFE0
06FE40
003400
007000
00B800
001D00
001D00
02E400
ENDCHAR
STARTCHAR uni015F
ENCODING 351
SWIDTH 600 0
DWIDTH 14 0
BBX 11 18 2 -6
BITMAP
06FE00
3FFFD0
7D01E0
B80000
7E4000
1FFA00
016FE0
0001B4
400078
F901F4
7FFFE0
06FE40
007000
006000
00B800
001D00
002D00
02E400
ENDCHAR
STARTCHAR Scaron
ENCODING 352
SWIDTH 600 0
DWIDTH 14 0
BBX 11 20 2 0
BITMAP
0A0180
039B40
00FD00
000000
06FE40
2FFFE0
7D01F0
B80010
B40000
7D0000
2F9000
07FD00
006FD0
0006F4
0000B8
00007C
900078
F901F4
7FFFE0
06FE40
ENDCHAR
STARTCHAR scaron
ENCODING 353
SWIDTH 600 0
DWIDTH 14 0
BBX 11 18 2 0
BITMAP
180180
0B0740
03EE00
01F800
000000
000000
06FE00
3FFFD0
7D01E0
B80000
7E4000
1FFA00
016FE0
0001B4
400078
F901F4
7FFFE0
06FE40
ENDCHAR
STARTCHAR uni0162
ENCODING 354
SWIDTH 600 0
DWIDTH 14 0
BBX 13 22 1 -6
BITMAP
FFFFFF40
FFFFFF40
002D0000
002D0000
002D0000
002D0000
002D0000
002D0000
002D0000
002D0000
002D0000
002D0000
002D0000
002D0000
002D0000
002D0000
00280000
00340000
003D0000
000B0000
001B0000
00E80000
ENDCHAR
STARTCHAR uni0163
ENCODING 355
SWIDTH 600 0
DWIDTH 14 0
BBX 12 22 1 -6
BITMAP
00B000
00B000
00F000
00F000
7FFFFE
7FFFFE
00F000
00F000
00F000
00F000
00F000
00F000
00F000
00B905
007FFF
001BF9
0001C0
000280
0003E0
0000B0
0001B0
000B90
ENDCHAR
STARTCHAR Tcaron
ENCODING 356
SWIDTH 600 0
DWIDTH 14 0
BBX 13 20 1 0
BITMAP
02409000
01E78000
007E0000
00000000
FFFFFF40
FFFFFF40
002D0000
002D0000
002D0000
002D0000
002D0000
002D0000
002D0000
002D0000
002D0000
002D0000
002D0000
002D0000
002D0000
002D0000
ENDCHAR
STARTCHAR tcaron
ENCODING 357
SWIDTH 600 0
DWIDTH 14 0
BBX 12 19 1 0
BITMAP
000074
000074
000074
00B070
00B070
00F070
00F000
7FFFFE
7FFFFE
00F000
00F000
00F000
00F000
00F000
00F000
00F000
00B905
007FFF
001BF9
ENDCHAR
STARTCHAR Tbar
ENCODING 358
SWIDTH 600 0
DWIDTH 14 0
BBX 13 16 1 0
BITMAP
FFFFFF40
FFFFFF40
002D0000
002D0000
002D0000
002D0000
002D0000
1FFFF800
1FFFF800
002D0000
002D0000
002D0000
002D0000
002D0000
002D0000
002D0000
ENDCHAR
STARTCHAR tbar
ENCODING 359
SWIDTH 600 0
DWIDTH 14 0
BBX 12 16 1 0
BITMAP
00A000
00B000
00F000
00F000
7FFFFE
7FFFFE
00F000
00F000
7FFFFD
7FFFFD
00F000
00F000
00F400
00B905
003FFF
000BF9
ENDCHAR
STARTCHAR Utilde
ENCODING 360
SWIDTH 600 0
DWIDTH 14 0
BBX 11 20 2 0
BITMAP
0B8090
28B1C0
241F40
000000
F00078
F00078
F00078
F00078
F00078
F00078
F00078
F00078
F00078
F00074
F00074
F000B4
B800F0
7D06E0
2FFFC0
06FE00
ENDCHAR
STARTCHAR utilde
ENCODING 361
SWIDTH 600 0
DWIDTH 14 0
BBX 10 17 2 0
BITMAP
064040
2DE1C0
242F40
000000
000000
F000F0
F000F0
F000F0
F000F0
F000F0
F000F0
F000F0
F000F0
F002F0
F91BF0
7FFDB0
1BE4B0
ENDCHAR
STARTCHAR Umacron
ENCODING 362
SWIDTH 600 0
DWIDTH 14 0
BBX 11 19 2 0
BITMAP
0FFF40
000000
000000
F00078
F00078
F00078
F00078
F00078
F00078
F00078
F00078
F00078
F00074
F00074
F000B4
B800F0
7D06E0
2FFFC0
06FE00
ENDCHAR
STARTCHAR umacron
ENCODING 363
SWIDTH 600 0
DWIDTH 14 0
BBX 10 16 2 0
BITMAP
0FFF40
000000
000000
000000
F000F0
F000F0
F000F0
F000F0
F000F0
F000F0
F000F0
F000F0
F002F0
F91BF0
7FFDB0
1BE4B0
ENDCHAR
STARTCHAR Ubreve
ENCODING 364
SWIDTH 600 0
DWIDTH 14 0
BBX 11 20 2 0
BITMAP
0C0280
0A0740
02F900
000000
F00078
F00078
F00078
F00078
F00078
F00078
F00078
F00078
F00078
F00074
F00074
F000B4
B800F0
7D06E0
2FFFC0
06FE00
ENDCHAR
STARTCHAR ubreve
ENCODING 365
SWIDTH 600 0
DWIDTH 14 0
BBX 10 17 2 0
BITMAP
280280
0E0740
06F900
000000
000000
F000F0
F000F0
F000F0
F000F0
F000F0
F000F0
F000F0
F000F0
F002F0
F91BF0
7FFDB0
1BE4B0
ENDCHAR
STARTCHAR Uring
ENCODING 366
SWIDTH 600 0
DWIDTH 14 0
BBX 11 22 2 0
BITMAP
01F800
034D00
030900
034D00
01F800
000000
F00078
F00078
F00078
F00078
F00078
F00078
F00078
F00078
F00078
F00074
F00074
F000B4
B800F0
7D06E0
2FFFC0
06FE00
ENDCHAR
STARTCHAR uring
ENCODING 367
SWIDTH 600 0
DWIDTH 14 0
BBX 10 19 2 0
BITMAP
01F800
074E00
060A00
074E00
01F800
000000
000000
F000F0
F000F0
F000F0
F000F0
F000F0
F000F0
F000F0
F000F0
F002F0
F91BF0
7FFDB0
1BE4B0
ENDCHAR
STARTCHAR Uhungarumlaut
ENCODING 368
SWIDTH 600 0
DWIDTH 14 0
BBX 11 21 2 0
BITMAP
00A090
01D1D0
038340
060600
000000
F00078
F00078
F00078
F00078
F00078
F00078
F00078
F00078
F00078
F00074
F00074
F000B4
B800F0
7D06E0
2FFFC0
06FE00
ENDCHAR
STARTCHAR uhungarumlaut
ENCODING 369
SWIDTH 600 0
DWIDTH 14 0
BBX 10 18 2 0
BITMAP
006090
00E1D0
01C280
038740
020600
000000
F000F0
F000F0
F000F0
F000F0
F000F0
F000F0
F000F0
F000F0
F002F0
F91BF0
7FFDB0
1BE4B0
ENDCHAR
STARTCHAR Uogonek
ENCODING 370
SWIDTH 600 0
DWIDTH 14 0
BBX 11 22 2 -6
BITMAP
F00078
F00078
F00078
F00078
F00078
F00078
F00078
F00078
F00078
F00074
F00074
F000B4
B800F0
7D07E0
2FFFC0
06FE00
00A000
01C000
028000
02C000
02FE00
00B800
ENDCHAR
STARTCHAR uogonek
ENCODING 371
SWIDTH 600 0
DWIDTH 14 0
BBX 11 18 2 -6
BITMAP
F000F0
F000F0
F000F0
F000F0
F000F0
F000F0
F000F0
F000F0
F002F0
F91BF0
7FFDB0
1BE4B0
0001D0
000340
000A00
000B04
000BF8
0002F4
ENDCHAR
STARTCHAR Wcircumflex
ENCODING 372
SWIDTH 600 0
DWIDTH 14 0
BBX 14 20 0 0
BITMAP
001F8000
0079E000
00902400
00000000
B80000F0
B80001F0
780001E0
7C0001E0
3C0B41E0
3C0F82D0
2D1FC2D0
2D2EC2C0
1D2DD3C0
1E39E380
1E74F380
0EB0B780
0FB07B40
0BE07F40
0BD03F00
07D02F00
ENDCHAR
STARTCHAR wcircumflex
ENCODING 373
SWIDTH 600 0
DWIDTH 14 0
BBX 14 18 0 0
BITMAP
001F8000
003ED000
00A0B400
01801800
00000000
00000000
B40500B0
740F40F0
780F80E0
3C1EC1D0
3C2EC2D0
2D29D2C0
1D38E3C0
1E74E380
0EB0B740
0BB07B40
0BE07F00
07D03E00
ENDCHAR
STARTCHAR Ycircumflex
ENCODING 374
SWIDTH 600 0
DWIDTH 14 0
BBX 13 20 1 0
BITMAP
007E0000
01E78000
02409000
00000000
B4000B40
78001E00
2D002D00
1E007800
0B40B400
0781E000
02D2C000
01E78000
00BF0000
007E0000
003D0000
002D0000
002D0000
002D0000
002D0000
002D0000
ENDCHAR
STARTCHAR ycircumflex
ENCODING 375
SWIDTH 600 0
DWIDTH 14 0
BBX 12 23 1 -5
BITMAP
003E00
00FB80
02C1D0
020060
000000
000000
B4000F
38001E
2D002D
1E0038
0B0074
0780B0
03C0E0
01D2D0
00E380
00B740
003F00
002E00
002D00
007800
01F400
3FE000
7E4000
ENDCHAR
STARTCHAR Ydieresis
ENCODING 376
SWIDTH 600 0
DWIDTH 14 0
BBX 13 19 1 0
BITMAP
03C2D000
03C2D000
00000000
B4000B40
78001E00
2D002D00
1E007800
0B40B400
0781E000
02D2C000
01E78000
00BF0000
007E0000
003D0000
002D0000
002D0000
002D0000
002D0000
002D0000
ENDCHAR
STARTCHAR Zacute
ENCODING 377
SWIDTH 600 0
DWIDTH 14 0
BBX 12 21 1 0
BITMAP
000180
0007D0
001E00
002800
000000
2FFFFE
2FFFFE
00003C
0000B4
0001E0
0003C0
000B40
002E00
007C00
00F400
02D000
078000
0F0000
2D0000
7FFFFF
7FFFFF
ENDCHAR
STARTCHAR zacute
ENCODING 378
SWIDTH 600 0
DWIDTH 14 0
BBX 12 19 1 0
BITMAP
000090
0002E0
000B80
001E00
001800
000000
000000
1FFFFE
1FFFFD
0000B8
0002E0
000B80
002E00
00B800
01E000
07C000
1F0000
7FFFFE
7FFFFE
ENDCHAR
STARTCHAR Zdotaccent
ENCODING 379
SWIDTH 600 0
DWIDTH 14 0
BBX 12 20 1 0
BITMAP
001E00
002F00
001E00
000000
2FFFFE
2FFFFE
00003C
0000B4
0001E0
0003C0
000B40
002E00
007C00
00F400
02D000
078000
0F0000
2D0000
7FFFFF
7FFFFF
ENDCHAR
STARTCHAR zdotaccent
ENCODING 380
SWIDTH 600 0
DWIDTH 14 0
BBX 12 17 1 0
BITMAP
001E00
002F40
001E00
000000
000000
1FFFFE
1FFFFD
0000B8
0002E0
000B80
002E00
00B800
01E000
07C000
1F0000
7FFFFE
7FFFFE
ENDCHAR
STARTCHAR Zcaron
ENCODING 381
SWIDTH 600 0
DWIDTH 14 0
BBX 12 20 1 0
BITMAP
028060
00E6D0
003F40
000000
2FFFFE
2FFFFE
00003C
0000B4
0001E0
0003C0
000B40
002E00
007C00
00F400
02D000
078000
0F0000
2D0000
7FFFFF
7FFFFF
ENDCHAR
STARTCHAR zcaron
ENCODING 382
SWIDTH 600 0
DWIDTH 14 0
BBX 12 18 1 0
BITMAP
024024
01D0E0
00BBC0
002F40
000000
000000
1FFFFE
1FFFFD
0000B8
0002E0
000B80
002E00
00B800
01E000
07C000
1F0000
7FFFFE
7FFFFE
ENDCHAR
STARTCHAR longs
ENCODING 383
SWIDTH 600 0
DWIDTH 14 0
BBX 12 17 2 0
BITMAP
001BF9
007FFE
00F905
00F000
01E000
7FE000
BFE000
01E000
01E000
01E000
01E000
01E000
01E000
01E000
01E000
01E000
01E000
ENDCHAR
STARTCHAR uni0180
ENCODING 384
SWIDTH 600 0
DWIDTH 14 0
BBX 13 17 0 0
BITMAP
0B400000
0B400000
7FFFD000
BFFFD000
0B400000
0B400000
0B1BE400
0BBFFE00
0BE41F40
0B400B80
0B4007C0
0B4003C0
0B4007C0
0B400B80
0BE06F00
0BBFFD00
0B1BE400
ENDCHAR
STARTCHAR uni018A
ENCODING 394
SWIDTH 600 0
DWIDTH 14 0
BBX 14 16 0 0
BITMAP
01BF9000
0BFFFD00
2E7C6F00
3C3C0B80
743C03C0
743C02D0
743C02E0
783C01E0
2E3C01E0
0A3C02E0
003C02D0
003C03C0
003C0B80
003C2F40
003FFD00
003FE400
ENDCHAR
STARTCHAR uni018F
ENCODING 399
SWIDTH 600 0
DWIDTH 14 0
BBX 13 16 1 0
BITMAP
01BF8000
07FFF000
0B41B800
00002D00
00001E00
00000F00
00000F00
BFFFFF40
BFFFFF00
74000F00
78000F00
3C001E00
2D003D00
0F41B800
07FFE000
01BE4000
ENDCHAR
STARTCHAR uni0192
ENCODING 402
SWIDTH 600 0
DWIDTH 14 0
BBX 12 19 1 -3
BITMAP
0001FD
0007FE
000F40
001E00
002D00
002D00
07FFF8
07FFF8
003C00
003C00
003800
007800
007800
00B400
00B400
00F000
02E000
BFD000
BE4000
ENDCHAR
STARTCHAR uni0193
ENCODING 403
SWIDTH 600 0
DWIDTH 14 0
BBX 13 19 1 0
BITMAP
00001BC0
00003FC0
00003C00
006FF800
07FFFC00
0FD06D00
2E000400
3C000000
78000000
B4000000
B407FE00
B407FE00
B4000E00
78000E00
3C000E00
2E000E00
0F906E00
07FFFD00
00AFE000
ENDCHAR
STARTCHAR Ohorn
ENCODING 416
SWIDTH 600 0
DWIDTH 14 0
BBX 13 19 1 0
BITMAP
00000640
00000740
00000740
01BE6F00
0BFFF800
1F41F800
3D003D00
7C001E00
B8000F00
B4000F00
B4000F40
B4000F40
B4000F00
B8000F00
7C001E00
3D003D00
1F41F800
0BFFF000
01BE4000
ENDCHAR
STARTCHAR ohorn
ENCODING 417
SWIDTH 600 0
DWIDTH 14 0
BBX 13 16 1 0
BITMAP
00000600
00000740
00000740
00000B00
01BFAD00
0BFFF400
2F41B800
3D003D00
78001E00
B8000F00
B8000F00
78001E00
3D003E00
2F41BC00
0BFFF400
01BF8000
ENDCHAR
STARTCHAR Uhorn
ENCODING 431
SWIDTH 600 0
DWIDTH 14 0
BBX 13 20 2 0
BITMAP
00000280
000002C0
000002C0
00000780
F0007E00
F0007800
F0007800
F0007800
F0007800
F0007800
F0007800
F0007800
F0007800
F0007400
F0007400
F000B400
B800F000
7D06E000
2FFFC000
06FE0000
ENDCHAR
STARTCHAR uhorn
ENCODING 432
SWIDTH 600 0
DWIDTH 14 0
BBX 13 16 2 0
BITMAP
00000600
00000740
00000B40
00001F00
F000F900
F000F000
F000F000
F000F000
F000F000
F000F000
F000F000
F000F000
F002F000
F91BF000
7FFDB000
1BE4B000
ENDCHAR
STARTCHAR uni01C2
ENCODING 450
SWIDTH 600 0
DWIDTH 14 0
BBX 11 22 2 -5
BITMAP
00B000
00B000
00B000
00B000
00B000
00B000
00B000
FFFFF4
FFFFF4
00B000
00B000
00B000
FFFFF4
FFFFF4
00B000
00B000
00B000
00B000
00B000
00B000
00B000
00B000
ENDCHAR
STARTCHAR uni01CD
ENCODING 461
SWIDTH 600 0
DWIDTH 14 0
BBX 13 20 1 0
BITMAP
02409000
01E78000
007E0000
00000000
003D0000
007E0000
00BB0000
00E74000
01D38000
02C2C000
0381D000
0740E000
0B00B000
0FFFF400
1FFFF800
2C002C00
3C002D00
78001E00
B4000F00
F0000B40
ENDCHAR
STARTCHAR uni01CE
ENCODING 462
SWIDTH 600 0
DWIDTH 14 0
BBX 11 18 2 0
BITMAP
090080
074380
02EF00
00BC00
000000
000000
06FE40
2FFFD0
7902F0
1000B4
006BF4
1BFFF4
7E94B4
F400B4
F000B4
F807F4
7FFEB4
1BE474
ENDCHAR
STARTCHAR uni01CF
ENCODING 463
SWIDTH 600 0
DWIDTH 14 0
BBX 10 20 2 0
BITMAP
090240
079E00
01F800
000000
BFFFF0
BFFFF0
00B400
00B400
00B400
00B400
00B400
00B400
00B400
00B400
00B400
00B400
00B400
00B400
BFFFF0
BFFFF0
ENDCHAR
STARTCHAR uni01D0
ENCODING 464
SWIDTH 600 0
DWIDTH 14 0
BBX 10 18 2 0
BITMAP
020060
02D1D0
00FB80
003E00
000000
000000
FFFE00
FFFE00
001E00
001E00
001E00
001E00
001E00
001E00
001E00
001E00
001E00
001E00
ENDCHAR
STARTCHAR uni01D1
ENCODING 465
SWIDTH 600 0
DWIDTH 14 0
BBX 13 20 1 0
BITMAP
02409000
01E78000
007E0000
00000000
01BE4000
0BFFF000
1F41F800
3D003D00
7C001E00
B8000F00
B4000F00
B4000F40
B4000F40
B4000F00
B8000F00
7C001E00
3D003D00
1F41F800
0BFFE000
01BE4000
ENDCHAR
STARTCHAR uni01D2
ENCODING 466
SWIDTH 600 0
DWIDTH 14 0
BBX 12 18 1 0
BITMAP
060060
0282D0
00FB40
007E00
000000
000000
01BF80
0BFFF4
2F41BC
3D003D
78001E
B8000F
B8000F
78001E
3D003D
2F41BC
0BFFF4
01BF80
ENDCHAR
STARTCHAR uni01D3
ENCODING 467
SWIDTH 600 0
DWIDTH 14 0
BBX 11 20 2 0
BITMAP
090240
079E00
01F800
000000
F00078
F00078
F00078
F00078
F00078
F00078
F00078
F00078
F00078
F00074
F00074
F000B4
B800F0
7D06E0
2FFFC0
06FE00
ENDCHAR
STARTCHAR uni01D4
ENCODING 468
SWIDTH 600 0
DWIDTH 14 0
BBX 10 18 2 0
BITMAP
180240
0E0B40
07AD00
01F800
000000
000000
F000F0
F000F0
F000F0
F000F0
F000F0
F000F0
F000F0
F000F0
F002F0
F91BF0
7FFDB0
1BE4B0
ENDCHAR
STARTCHAR uni01D5
ENCODING 469
SWIDTH 600 0
DWIDTH 14 0
BBX 11 21 2 0
BITMAP
0FFF40
000000
1E0780
1E0780
000000
F00078
F00078
F00078
F00078
F00078
F00078
F00078
F00078
F00078
F00074
F00074
F000B4
B800F0
7D06E0
2FFFC0
06FE00
ENDCHAR
STARTCHAR uni01D6
ENCODING 470
SWIDTH 600 0
DWIDTH 14 0
BBX 10 19 2 0
BITMAP
0FFF40
000000
000000
0E0740
0E0740
000000
000000
F000F0
F000F0
F000F0
F000F0
F000F0
F000F0
F000F0
F000F0
F002F0
F91BF0
7FFDB0
1BE4B0
ENDCHAR
STARTCHAR uni01D7
ENCODING 471
SWIDTH 600 0
DWIDTH 14 0
BBX 11 23 2 0
BITMAP
000900
002800
006000
000000
1E0780
1E0780
000000
F00078
F00078
F00078
F00078
F00078
F00078
F00078
F00078
F00078
F00074
F00074
F000B4
B800F0
7D06E0
2FFFC0
06FE00
ENDCHAR
STARTCHAR uni01D8
ENCODING 472
SWIDTH 600 0
DWIDTH 14 0
BBX 10 20 2 0
BITMAP
001800
007400
009000
000000
0E0740
0E0740
000000
000000
F000F0
F000F0
F000F0
F000F0
F000F0
F000F0
F000F0
F000F0
F002F0
F91BF0
7FFDB0
1BE4B0
ENDCHAR
STARTCHAR uni01D9
ENCODING 473
SWIDTH 600 0
DWIDTH 14 0
BBX 11 23 2 0
BITMAP
090640
079E00
01F800
000000
1E0780
1E0780
000000
F00078
F00078
F00078
F00078
F00078
F00078
F00078
F00078
F00078
F00074
F00074
F000B4
B800F0
7D06E0
2FFFC0
06FE00
ENDCHAR
STARTCHAR uni01DA
ENCODING 474
SWIDTH 600 0
DWIDTH 14 0
BBX 10 20 2 0
BITMAP
090600
079D00
01F400
000000
0E0740
0E0740
000000
000000
F000F0
F000F0
F000F0
F000F0
F000F0
F000F0
F000F0
F000F0
F002F0
F91BF0
7FFDB0
1BE4B0
ENDCHAR
STARTCHAR uni01DB
ENCODING 475
SWIDTH 600 0
DWIDTH 14 0
BBX 11 23 2 0
BITMAP
024000
02D000
006000
000000
1E0780
1E0780
000000
F00078
F00078
F00078
F00078
F00078
F00078
F00078
F00078
F00078
F00074
F00074
F000B4
B800F0
7D06E0
2FFFC0
06FE00
ENDCHAR
STARTCHAR uni01DC
ENCODING 476
SWIDTH 600 0
DWIDTH 14 0
BBX 10 20 2 0
BITMAP
028000
01D000
006000
000000
0E0740
0E0740
000000
000000
F000F0
F000F0
F000F0
F000F0
F000F0
F000F0
F000F0
F000F0
F002F0
F91BF0
7FFDB0
1BE4B0
ENDCHAR
STARTCHAR uni01E2
ENCODING 482
SWIDTH 600 0
DWIDTH 14 0
BBX 15 19 0 0
BITMAP
0003FFD0
00000000
00000000
000FFFF0
001FFFF0
002ED000
003DD000
0075D000
00F1D000
01E1FFC0
02D1FFC0
03C1D000
0781D000
0FFFD000
1FFFD000
2E01D000
3C01D000
7801FFF4
F401FFF4
ENDCHAR
STARTCHAR uni01E3
ENCODING 483
SWIDTH 600 0
DWIDTH 14 0
BBX 15 16 0 0
BITMAP
00BFF800
00000000
00000000
00000000
0BE46F40
3FFDFFD0
241FD1E0
000B40B0
01BF0074
1BFFFFF4
3E4BFFF4
78070000
B4074000
781FD050
3FF9FFE0
1BD06F80
ENDCHAR
STARTCHAR Gcaron
ENCODING 486
SWIDTH 600 0
DWIDTH 14 0
BBX 12 20 1 0
BITMAP
018064
00B5E0
002F40
000000
006F90
07FFF8
0FD06D
2E0004
3C0000
780000
B40000
B407FE
B407FE
B4000E
78000E
3C000E
2E000E
0F906E
07FFFD
00AFE0
ENDCHAR
STARTCHAR gcaron
ENCODING 487
SWIDTH 600 0
DWIDTH 14 0
BBX 13 23 1 -5
BITMAP
02006000
02D1D000
00BB8000
003E0000
00000000
00000000
01BFFF80
0BFFFF80
1F41E000
2D007400
2D007400
1F41F400
0BFFE000
0BBF4000
1D000000
2E000000
0FFFF900
0BFFFF40
28000B80
78000B40
3D006F00
2FFFFD00
06FF9000
ENDCHAR
STARTCHAR uni01EA
ENCODING 490
SWIDTH 600 0
DWIDTH 14 0
BBX 13 22 1 -6
BITMAP
01BE4000
0BFFE000
1F41F800
3D003D00
7C001E00
B8000F00
B4000F00
B4000F40
B4000F40
B4000F00
B8000F00
7C001E00
3D003D00
1F41F800
0BFFE000
01BF4000
00280000
00700000
00A00000
00B00000
00BF8000
002E0000
ENDCHAR
STARTCHAR uni01EB
ENCODING 491
SWIDTH 600 0
DWIDTH 14 0
BBX 12 18 1 -6
BITMAP
01BF80
0BFFF4
2F41BC
3D003D
78001E
B8000F
B8000F
78001E
3D003E
2F41BC
0BFFF0
01BF40
001800
003000
00B000
00B440
007FC0
002F40
ENDCHAR
STARTCHAR uni01F4
ENCODING 500
SWIDTH 600 0
DWIDTH 14 0
BBX 12 21 1 0
BITMAP
000090
0002E0
001F40
001800
000000
006F90
07FFF8
0FD06D
2E0004
3C0000
780000
B40000
B407FE
B407FE
B4000E
78000E
3C000E
2E000E
0F906E
07FFFD
00AFE0
ENDCHAR
STARTCHAR uni01F5
ENCODING 501
SWIDTH 600 0
DWIDTH 14 0
BBX 13 24 1 -5
BITMAP
00018000
0003D000
000B4000
002D0000
00240000
00000000
00000000
01BFFF80
0BFFFF80
1F41E000
2D007400
2D007400
1F41F400
0BFFE000
0BBF4000
1D000000
2E000000
0FFFF900
0BFFFF40
28000B80
78000B40
3D006F00
2FFFFD00
06FF9000
ENDCHAR
STARTCHAR uni01F8
ENCODING 504
SWIDTH 600 0
DWIDTH 14 0
BBX 11 21 2 0
BITMAP
024000
07D000
00B400
002800
000000
F40074
FC0074
FD0074
EF0074
E74074
E3C074
F2D074
F0F074
F0B474
F03C74
F02D74
F00F74
F00BB4
F003F4
F002F4
F000F4
ENDCHAR
STARTCHAR uni01F9
ENCODING 505
SWIDTH 600 0
DWIDTH 14 0
BBX 11 19 2 0
BITMAP
024000
07C000
01E000
007800
001800
000000
000000
B0BF80
B3FFE0
BF41F4
BC00B4
B400B8
B40078
B40078
B40078
B40078
B40078
B40078
B40078
ENDCHAR
STARTCHAR Aringacute
ENCODING 506
SWIDTH 600 0
DWIDTH 14 0
BBX 13 23 1 0
BITMAP
00078000
002D0000
00A70000
00C24000
00D24000
007E0000
00000000
003D0000
007E0000
00BB0000
00E74000
01D38000
02C2C000
0381D000
0740E000
0B00B000
0FFFF400
1FFFF800
2C002C00
3C002D00
78001E00
B4000F00
F0000B40
ENDCHAR
STARTCHAR aringacute
ENCODING 507
SWIDTH 600 0
DWIDTH 14 0
BBX 11 21 2 0
BITMAP
000100
001F00
007C00
029B00
034340
028700
00BD00
000000
000000
06FE40
2FFFD0
7906F0
1000F4
0000B4
0195B4
2800B4
B000B4
F000F4
F80BF4
7FFEB4
1BE474
ENDCHAR
STARTCHAR AEacute
ENCODING 508
SWIDTH 600 0
DWIDTH 14 0
BBX 15 21 0 0
BITMAP
00000240
00000B80
00002D00
00002400
00000000
000FFFF0
001FFFF0
002ED000
003DD000
0075D000
00F1D000
01E1FFC0
02D1FFC0
03C1D000
0781D000
0FFFD000
1FFFD000
2E01D000
3C01D000
7801FFF4
F401FFF4
ENDCHAR
STARTCHAR aeacute
ENCODING 509
SWIDTH 600 0
DWIDTH 14 0
BBX 15 19 0 0
BITMAP
00002000
0000B800
0002E000
000B8000
00060000
00000000
00000000
0BE46F40
3FFDFFD0
241FD1E0
000B40B0
01BF0074
1BFFFFF4
3E4BFFF4
78070000
B4074000
781FD050
3FF9FFE0
1BD06F80
ENDCHAR
STARTCHAR Oslashacute
ENCODING 510
SWIDTH 600 0
DWIDTH 14 0
BBX 13 22 1 -1
BITMAP
00024000
000B8000
002E0000
00240000
00000100
01BF4B40
0BFFFE00
1F41BC00
3D00BD00
7C01FE00
B8038F00
B40B4F00
B41D0F40
B4780F40
B4F00F00
BAD00F00
7F801E00
3F003D00
2F41F800
7FFFE000
F1BE4000
10000000
ENDCHAR
STARTCHAR oslashacute
ENCODING 511
SWIDTH 600 0
DWIDTH 14 0
BBX 12 20 1 -1
BITMAP
000180
0007D0
000F40
003D00
002400
000000
000000
01BF9E
0BFFFC
2F40FC
3D02FD
78079E
B81E0F
B8780F
78E01E
3FC03D
2F41BC
2FFFF4
75BF80
100000
ENDCHAR
STARTCHAR uni0218
ENCODING 536
SWIDTH 600 0
DWIDTH 14 0
BBX 11 21 2 -5
BITMAP
06FE40
2FFFE0
7D01F0
B80010
B40000
7D0000
2F9000
07FD00
006FD0
0006F4
0000B8
00007C
900078
F901F4
7FFFE0
06FE40
000000
00A400
002D00
02FD00
02E400
ENDCHAR
STARTCHAR uni0219
ENCODING 537
SWIDTH 600 0
DWIDTH 14 0
BBX 11 17 2 -5
BITMAP
06FE00
3FFFD0
7D01E0
B80000
7E4000
1FFA00
016FE0
0001B4
400078
F901F4
7FFFE0
06FE40
000000
00A400
002D00
02FC00
02E400
ENDCHAR
STARTCHAR uni021A
ENCODING 538
SWIDTH 600 0
DWIDTH 14 0
BBX 13 21 1 -5
BITMAP
FFFFFF40
FFFFFF40
002D0000
002D0000
002D0000
002D0000
002D0000
002D0000
002D0000
002D0000
002D0000
002D0000
002D0000
002D0000
002D0000
002D0000
00000000
00390000
001B0000
00FF0000
00F80000
ENDCHAR
STARTCHAR uni021B
ENCODING 539
SWIDTH 600 0
DWIDTH 14 0
BBX 12 21 1 -5
BITMAP
00B000
00B000
00F000
00F000
7FFFFE
7FFFFE
00F000
00F000
00F000
00F000
00F000
00F000
00F000
00B905
007FFF
001BF9
000000
000390
0001B0
000FE0
000E80
ENDCHAR
STARTCHAR uni0237
ENCODING 567
SWIDTH 600 0
DWIDTH 14 0
BBX 9 17 1 -5
BITMAP
3FFF80
3FFF80
000780
000780
000780
000780
000780
000780
000780
000780
000780
000780
000740
000B40
101F00
7FFE00
2FE400
ENDCHAR
STARTCHAR uni0243
ENCODING 579
SWIDTH 600 0
DWIDTH 14 0
BBX 14 16 0 0
BITMAP
07FFE400
07FFFE00
07801F40
07800B40
07800B40
07806E00
07FFF400
07FFFD00
07801F40
078003C0
7FFF02D0
7FFF02D0
078003C0
07801F80
07FFFE00
07FFE400
ENDCHAR
STARTCHAR uni0250
ENCODING 592
SWIDTH 600 0
DWIDTH 14 0
BBX 11 12 2 0
BITMAP
B0BF90
B7FFF4
BF40B8
B80078
B416F4
BFFF90
BFA500
B40000
B80000
7E01F0
2FFFD0
06F900
ENDCHAR
STARTCHAR uni0251
ENCODING 593
SWIDTH 600 0
DWIDTH 14 0
BBX 12 12 1 0
BITMAP
01BE1D
0BFFED
2F41FD
3D003D
78002D
B8002D
B8002D
78002D
7C007D
2F41FD
0FFFED
02FD2D
ENDCHAR
STARTCHAR uni0252
ENCODING 594
SWIDTH 600 0
DWIDTH 14 0
BBX 11 12 2 0
BITMAP
B1BE40
BBFFE0
BE42F4
B800B8
B4007C
B4003C
B4003C
B40078
B400F4
BE06F0
BBFFD0
B1BE00
ENDCHAR
STARTCHAR uni0253
ENCODING 595
SWIDTH 600 0
DWIDTH 14 0
BBX 11 17 2 0
BITMAP
0BF400
3FF800
7D0000
B40000
B40000
B1BE40
BBFFE0
BE42F4
B800B8
B4007C
B4003C
B4003C
B40078
B400F4
BE06F0
BBFFD0
B1BE00
ENDCHAR
STARTCHAR uni0254
ENCODING 596
SWIDTH 600 0
DWIDTH 14 0
BBX 12 12 1 0
BITMAP
06FE40
2FFFE0
3906F4
00007C
00003D
00002D
00002D
00003D
10007C
7906F4
2FFFE0
06FE40
ENDCHAR
STARTCHAR uni0255
ENCODING 597
SWIDTH 600 0
DWIDTH 14 0
BBX 11 14 2 -2
BITMAP
01BF80
1FFFF0
3F40B4
B80000
F40000
F00000
F00BE0
F47FF8
79F42C
2FD078
0FFFF4
1EBF90
2C0000
280000
ENDCHAR
STARTCHAR uni0256
ENCODING 598
SWIDTH 600 0
DWIDTH 14 0
BBX 14 22 1 -5
BITMAP
00003C00
00003C00
00003C00
00003C00
00003C00
01BE2C00
0BFFFC00
2F41FC00
3D003C00
78003C00
B8003C00
B8003C00
78003C00
7C007C00
2F41FC00
0FFFBC00
02FD2C00
00002C00
00002D00
00002E00
00001FD0
00000BD0
ENDCHAR
STARTCHAR uni0257
ENCODING 599
SWIDTH 600 0
DWIDTH 14 0
BBX 14 17 1 0
BITMAP
00000BD0
00001FD0
00002E00
00002C00
00002C00
01BE2C00
0BFFFC00
2F41FC00
3D003C00
78003C00
B8003C00
B8003C00
78003C00
7C007C00
2F41FC00
1FFFAC00
02FD2C00
ENDCHAR
STARTCHAR uni0258
ENCODING 600
SWIDTH 600 0
DWIDTH 14 0
BBX 12 12 1 0
BITMAP
01BE40
0BFFE0
2E41F8
38003D
74001E
7FFFFE
7FFFFE
00001E
00003D
2901F8
2FFFE0
06FE40
ENDCHAR
STARTCHAR uni0259
ENCODING 601
SWIDTH 600 0
DWIDTH 14 0
BBX 12 12 1 0
BITMAP
01BE40
1FFFF4
1D01BC
00002D
00001E
7FFFFF
7FFFFF
78001E
3C002D
2E41BC
0BFFF4
01BF80
ENDCHAR
STARTCHAR uni025A
ENCODING 602
SWIDTH 600 0
DWIDTH 14 0
BBX 15 12 0 0
BITMAP
06F90000
2FFF4000
1907D100
0001FF40
0007F680
01BEF1F8
1BD0F0B4
7900F000
7801E000
2D07D000
1FFF8000
06F90000
ENDCHAR
STARTCHAR uni025B
ENCODING 603
SWIDTH 600 0
DWIDTH 14 0
BBX 11 12 2 0
BITMAP
06FE40
2FFFF0
3D01B4
380000
2D0000
0BFE00
2FFE00
B90000
B40000
B90178
3FFFF4
06FE40
ENDCHAR
STARTCHAR uni025C
ENCODING 604
SWIDTH 600 0
DWIDTH 14 0
BBX 12 12 1 0
BITMAP
06FE80
2FFFF4
3901B8
000078
0001B4
01FFD0
01FFE4
00007C
10002D
7901BC
2FFFF8
06FE90
ENDCHAR
STARTCHAR uni025E
ENCODING 606
SWIDTH 600 0
DWIDTH 14 0
BBX 12 12 1 0
BITMAP
01BF90
0BFFF8
1F907D
3D002D
78007C
780FE0
740FF8
78006E
3D000F
2F906E
0BFFFD
01BFA0
ENDCHAR
STARTCHAR uni025F
ENCODING 607
SWIDTH 600 0
DWIDTH 14 0
BBX 13 17 1 -5
BITMAP
3FFF8000
3FFF8000
00078000
00078000
00078000
0FFFFF80
0FFFFF80
00078000
00078000
00078000
00078000
00078000
00078000
000B4000
101F0000
7FFE0000
2FE40000
ENDCHAR
STARTCHAR uni0260
ENCODING 608
SWIDTH 600 0
DWIDTH 14 0
BBX 14 20 1 -5
BITMAP
000007D0
00001FD0
00002E00
01BE2D00
0BFFFC00
2F41FC00
3D003C00
78003C00
B8003C00
B8003C00
78003C00
3D007C00
2F96FC00
0BFFAC00
01A93C00
00003C00
00007C00
1901F800
1FFFF000
06FE4000
ENDCHAR
STARTCHAR uni0261
ENCODING 609
SWIDTH 600 0
DWIDTH 14 0
BBX 12 17 1 -5
BITMAP
01BE1D
0BFFED
2F41FD
3D003D
78002D
B4002D
B8002D
78002D
7C003D
2F41FD
0FFFED
02FD2D
00002C
00003C
1901F8
1FFFF0
06FE40
ENDCHAR
STARTCHAR uni0262
ENCODING 610
SWIDTH 600 0
DWIDTH 14 0
BBX 11 12 2 0
BITMAP
01BF40
1FFFE0
3F40B4
B80000
F40000
F01FF8
F01FF8
F00038
B80038
3E41B8
1FFFF4
02BF80
ENDCHAR
STARTCHAR uni0263
ENCODING 611
SWIDTH 600 0
DWIDTH 14 0
BBX 12 17 1 -5
BITMAP
B4000F
3C001E
2D002C
1E0078
0B00B4
0780E0
02C1D0
01D380
00F740
007F00
007E00
00BB00
00E380
01D2C0
01D3C0
01FF80
007E00
ENDCHAR
STARTCHAR uni0264
ENCODING 612
SWIDTH 600 0
DWIDTH 14 0
BBX 12 12 1 0
BITMAP
6E40BE
7FE7FE
01FF80
007E00
01E780
0781E0
0B00B4
0E0078
1E0078
0F81F4
07FFF0
01BF80
ENDCHAR
STARTCHAR uni0265
ENCODING 613
SWIDTH 600 0
DWIDTH 14 0
BBX 11 17 2 -5
BITMAP
E000B4
E000B4
E000B4
E000B4
E000B4
E000B4
E000B4
F000F4
F002F4
F91BF4
7FFDB4
1BE4B4
0000B4
0000B4
0000B4
0000B4
0000B4
ENDCHAR
STARTCHAR uni0266
ENCODING 614
SWIDTH 600 0
DWIDTH 14 0
BBX 11 17 2 0
BITMAP
0BF400
3FF800
7D0000
B40000
B40000
B0BF80
B7FFE0
BF41F4
BC00B4
B400B8
B40078
B40078
B40078
B40078
B40078
B40078
B40078
ENDCHAR
STARTCHAR uni0267
ENCODING 615
SWIDTH 600 0
DWIDTH 14 0
BBX 11 22 2 -5
BITMAP
0BF400
3FF800
7D0000
B40000
B40000
B0BF80
B7FFE0
BF41F4
BC00B4
B400B8
B40078
B40078
B40078
B40078
B40078
B40078
B40078
000078
0000B4
0000F4
001FF0
001F90
ENDCHAR
STARTCHAR uni0268
ENCODING 616
SWIDTH 600 0
DWIDTH 14 0
BBX 12 17 2 0
BITMAP
002D00
007F00
002D00
000000
000000
FFFE00
FFFE00
001E00
001E00
001E00
2FFFFE
2FFFFE
001E00
001E00
001E00
001E00
001E00
ENDCHAR
STARTCHAR uni026A
ENCODING 618
SWIDTH 600 0
DWIDTH 14 0
BBX 11 12 2 0
BITMAP
FFFFF4
FFFFF4
00B000
00B000
00B000
00B000
00B000
00B000
00B000
00B000
FFFFF4
FFFFF4
ENDCHAR
STARTCHAR uni026B
ENCODING 619
SWIDTH 600 0
DWIDTH 14 0
BBX 12 17 1 0
BITMAP
7FFC00
7FFC00
003C00
003C00
003C00
003C00
003C00
06BC10
1EBC74
183FE0
003C00
003C00
003C00
003C00
003E05
001FFE
0006F9
ENDCHAR
STARTCHAR uni026C
ENCODING 620
SWIDTH 600 0
DWIDTH 14 0
BBX 12 17 1 0
BITMAP
7FFC00
7FFC00
003C00
003C00
1FBC00
3FFC00
38BC00
383C00
2FFFF4
0BFFF4
003C00
003C00
003C00
003C00
003E05
001FFE
0006F9
ENDCHAR
STARTCHAR uni026D
ENCODING 621
SWIDTH 600 0
DWIDTH 14 0
BBX 12 22 1 -5
BITMAP
7FFC00
7FFC00
003C00
003C00
003C00
003C00
003C00
003C00
003C00
003C00
003C00
003C00
003C00
003C00
003C00
003C00
003C00
003C00
003C00
003E05
001FFE
0007F9
ENDCHAR
STARTCHAR uni026E
ENCODING 622
SWIDTH 600 0
DWIDTH 14 0
BBX 12 22 2 -5
BITMAP
F00000
F00000
F00000
F00000
F00000
FFFFFD
FFFFF8
F000B0
F001D0
F00780
F00E00
F02C00
F07F90
F0BFF8
F000BD
F0002E
F0001E
00001E
04002D
0F41BC
07FFF4
01BF80
ENDCHAR
STARTCHAR uni026F
ENCODING 623
SWIDTH 600 0
DWIDTH 14 0
BBX 12 12 1 0
BITMAP
F03C0F
F03C0F
F03C0F
F03C0F
F03C0F
F03C0F
F03C0F
F03C0F
F07C0F
F4BD2F
BFEFFB
2E4B9B
ENDCHAR
STARTCHAR uni0270
ENCODING 624
SWIDTH 600 0
DWIDTH 14 0
BBX 12 17 1 -5
BITMAP
F03C0F
F03C0F
F03C0F
F03C0F
F03C0F
F03C0F
F03C0F
F03C0F
F03C0F
F4BD2F
BFEFFF
2F4B9B
00000F
00000F
00000F
00000F
00000F
ENDCHAR
STARTCHAR uni0271
ENCODING 625
SWIDTH 600 0
DWIDTH 14 0
BBX 13 17 1 -5
BITMAP
B2F4BD00
BBFEFF00
BD3F4F40
B82E0B40
B42D0B40
B42D0B40
B42D0B40
B42D0B40
B42D0B40
B42D0B40
B42D0B40
B42D0B40
00000B40
00000B40
00000F40
0000FF00
0000F900
ENDCHAR
STARTCHAR uni0272
ENCODING 626
SWIDTH 600 0
DWIDTH 14 0
BBX 13 17 0 -5
BITMAP
0B07F800
0B6FFE00
0BF41F40
0BC00B40
0B400780
0B400780
0B400780
0B400780
0B400780
0B400780
0B400780
0B400780
0B400000
0B400000
0F400000
FF000000
F9000000
ENDCHAR
STARTCHAR uni0273
ENCODING 627
SWIDTH 600 0
DWIDTH 14 0
BBX 13 17 2 -5
BITMAP
B0BF8000
B3FFE000
BF42F000
BC00B400
B400B400
B400B400
B400B400
B400B400
B400B400
B400B400
B400B400
B400B400
0000B400
00007800
00007800
00003F80
00001F80
ENDCHAR
STARTCHAR uni0274
ENCODING 628
SWIDTH 600 0
DWIDTH 14 0
BBX 10 12 2 0
BITMAP
B800B0
BD00B0
BF00B0
B780B0
B2D0B0
B0E0B0
B078B0
B42CB0
B40EB0
B407F0
B402F0
B400F0
ENDCHAR
STARTCHAR uni0275
ENCODING 629
SWIDTH 600 0
DWIDTH 14 0
BBX 12 12 1 0
BITMAP
01BF80
0BFFF4
2F41BC
3C002D
78000E
BFFFFF
BFFFFF
74000E
3C002E
2E41BC
0BFFF4
01BF80
ENDCHAR
STARTCHAR uni0276
ENCODING 630
SWIDTH 600 0
DWIDTH 14 0
BBX 14 12 0 0
BITMAP
01BFFFF0
0BFFFFF0
1F42D000
2D02D000
3C02D000
7C02FFC0
7C02FFC0
3C02D000
2D02D000
1F42D000
0BFFFFF0
01BFFFF0
ENDCHAR
STARTCHAR uni0278
ENCODING 632
SWIDTH 600 0
DWIDTH 14 0
BBX 13 22 1 -5
BITMAP
002C0000
002C0000
002C0000
002C0000
002C0000
02FF9000
1FFFF800
3E6D7D00
B82C1F00
B42C0F40
F02C0B40
F02C0B40
B42C0F40
782C1F00
3E6D7D00
1FFFF800
02FF9000
002C0000
002C0000
002C0000
002C0000
002C0000
ENDCHAR
STARTCHAR uni0279
ENCODING 633
SWIDTH 600 0
DWIDTH 14 0
BBX 10 12 1 0
BITMAP
0000F0
0000F0
0000F0
0000F0
0000F0
0000F0
0000F0
0002F0
0007F0
106EF0
7FF8B0
6F90B0
ENDCHAR
STARTCHAR uni027A
ENCODING 634
SWIDTH 600 0
DWIDTH 14 0
BBX 10 17 1 0
BITMAP
0000F0
0000F0
0000F0
0000F0
0000F0
0000F0
0000F0
0000F0
0000F0
0000F0
0000F0
0000F0
0001F0
0007F0
106EF0
7FF8B0
6F90B0
ENDCHAR
STARTCHAR uni027B
ENCODING 635
SWIDTH 600 0
DWIDTH 14 0
BBX 12 17 1 -5
BITMAP
000F00
000F00
000F00
000F00
000F00
000F00
000F00
000F00
002F00
10BF00
7FDB00
6F4B00
000B00
000B00
000B80
0007FD
0001F9
ENDCHAR
STARTCHAR uni027D
ENCODING 637
SWIDTH 600 0
DWIDTH 14 0
BBX 10 17 3 -5
BITMAP
B02FE0
B5FFE0
B7D010
BE0000
BC0000
B40000
B40000
B40000
B40000
B40000
B40000
740000
780000
780000
3E0100
2FFF40
06FE00
ENDCHAR
STARTCHAR uni027E
ENCODING 638
SWIDTH 600 0
DWIDTH 14 0
BBX 10 12 3 0
BITMAP
01BF90
0BFFE0
2F9050
3D0000
7C0000
780000
B40000
B40000
B40000
B40000
B40000
B40000
ENDCHAR
STARTCHAR uni0280
ENCODING 640
SWIDTH 600 0
DWIDTH 14 0
BBX 11 12 2 0
BITMAP
BFFF80
BFFFF0
B401F4
B40078
B401F4
BFFFE0
BFFF40
B40F00
B40780
B402D0
B400F0
B40078
ENDCHAR
STARTCHAR uni0281
ENCODING 641
SWIDTH 600 0
DWIDTH 14 0
BBX 11 12 1 0
BITMAP
7C003C
1E003C
0B803C
02D03C
06FFFC
1FFFFC
3E003C
3C003C
3C003C
3E003C
1FFFFC
06FFFC
ENDCHAR
STARTCHAR uni0282
ENCODING 642
SWIDTH 600 0
DWIDTH 14 0
BBX 12 17 1 -5
BITMAP
01BF80
0FFFF4
1F4078
2E0000
1F9000
07FE80
005BF8
00006D
10001E
3E407D
7FFFF8
7ABF90
740000
780000
3C0000
2FD000
0BD000
ENDCHAR
STARTCHAR uni0283
ENCODING 643
SWIDTH 600 0
DWIDTH 14 0
BBX 12 22 1 -5
BITMAP
0006F9
000FFE
001F45
002D00
002D00
002D00
002D00
002D00
002D00
002D00
002D00
002D00
002D00
002D00
002D00
002D00
002D00
002D00
003C00
107C00
7FF800
2FE000
ENDCHAR
STARTCHAR uni0284
ENCODING 644
SWIDTH 600 0
DWIDTH 14 0
BBX 12 22 1 -5
BITMAP
0006F9
000FFE
001F45
002D00
002D00
002D00
002D00
002D00
002D00
002D00
2FFFFD
3FFFFD
002D00
002D00
002D00
002D00
002D00
002D00
003C00
107C00
7FF800
2FE000
ENDCHAR
STARTCHAR uni0287
ENCODING 647
SWIDTH 600 0
DWIDTH 14 0
BBX 12 16 1 -4
BITMAP
6BE400
BFFE00
502F00
000B40
000B40
000B40
000B40
000B40
000B40
000B40
7FFFFE
7FFFFE
000B40
000B40
000B40
000B00
ENDCHAR
STARTCHAR uni0288
ENCODING 648
SWIDTH 600 0
DWIDTH 14 0
BBX 12 21 1 -5
BITMAP
00B000
00B000
00F000
00F000
7FFFFE
7FFFFE
00F000
00F000
00F000
00F000
00F000
00F000
00F000
00F000
00F000
00F000
00F000
00F400
00B905
007FFF
001BF9
ENDCHAR
STARTCHAR uni0289
ENCODING 649
SWIDTH 600 0
DWIDTH 14 0
BBX 14 12 0 0
BITMAP
0B401E00
0B401E00
0B401E00
0B401E00
BFFFFFF0
FFFFFFF0
0B401E00
0B401E00
0B402E00
07D0BE00
03FFEE00
01BE4E00
ENDCHAR
STARTCHAR uni028A
ENCODING 650
SWIDTH 600 0
DWIDTH 14 0
BBX 13 12 1 0
BITMAP
BFC1FF40
BF81FF40
0B00B000
1D002800
38001D00
78001E00
78000F00
78001F00
7D002E00
2F41BC00
0BFFF400
01BF8000
ENDCHAR
STARTCHAR uni028B
ENCODING 651
SWIDTH 600 0
DWIDTH 14 0
BBX 11 12 2 0
BITMAP
F01F90
F00FF0
F001F8
F0007C
F0003C
F0003C
F00078
F000B8
F400F4
BD06E0
2FFFC0
06FE00
ENDCHAR
STARTCHAR uni028C
ENCODING 652
SWIDTH 600 0
DWIDTH 14 0
BBX 12 12 1 0
BITMAP
003D00
00BF00
00EB40
01D380
02C2C0
0381E0
0B40F0
0F00B4
1E0078
2C002C
78001E
B4000F
ENDCHAR
STARTCHAR uni028D
ENCODING 653
SWIDTH 600 0
DWIDTH 14 0
BBX 14 12 0 0
BITMAP
07D03E00
0BE07F00
0EA07B40
0EB0B740
1D74E780
1D38D380
2C39D3C0
3C2EC2D0
381E81D0
781F81E0
B40F40F0
B00500F0
ENDCHAR
STARTCHAR uni028E
ENCODING 654
SWIDTH 600 0
DWIDTH 14 0
BBX 12 17 1 0
BITMAP
0000BE
0003FE
000B90
001E00
002D00
003C00
007D00
00FE00
01DB40
02C380
0382D0
0B41E0
0F00B0
1D0078
2C003C
78001E
B4000F
ENDCHAR
STARTCHAR uni028F
ENCODING 655
SWIDTH 600 0
DWIDTH 14 0
BBX 12 12 1 0
BITMAP
78001E
2D003D
0F00B8
0780F0
03C2D0
01E780
00BF00
003D00
002D00
002D00
002D00
002D00
ENDCHAR
STARTCHAR uni0290
ENCODING 656
SWIDTH 600 0
DWIDTH 14 0
BBX 14 17 1 -5
BITMAP
1FFFFD00
1FFFFD00
0000F400
0002D000
000B8000
002E0000
00B80000
02E00000
07800000
1F000000
7FFFFD00
7FFFFD00
00002D00
00002D00
00001E00
00000FE0
000007E0
ENDCHAR
STARTCHAR uni0291
ENCODING 657
SWIDTH 600 0
DWIDTH 14 0
BBX 13 15 1 -3
BITMAP
1FFFFC00
1FFFF800
0000E000
0002C000
000B0000
002D0000
00B42E40
02D0BF80
0781E2C0
1E02C380
7FFFFF40
7FFFF900
00070000
000A0000
00090000
ENDCHAR
STARTCHAR uni0292
ENCODING 658
SWIDTH 600 0
DWIDTH 14 0
BBX 12 17 1 -5
BITMAP
2FFFFC
2FFFFC
0001E0
000780
002D00
00B400
02FF90
07FFF4
0101BC
00002D
00001E
00001E
00002D
20007D
7D01F8
1FFFE0
02BE40
ENDCHAR
STARTCHAR uni0294
ENCODING 660
SWIDTH 600 0
DWIDTH 14 0
BBX 11 17 2 0
BITMAP
06F900
7FFFC0
F807E0
9001F0
0000F4
0000B0
0000F0
0002D0
001B40
00BD00
01F000
01E000
01E000
01E000
01E000
01E000
01E000
ENDCHAR
STARTCHAR uni0295
ENCODING 661
SWIDTH 600 0
DWIDTH 14 0
BBX 11 17 2 0
BITMAP
06FE40
2FFFD0
7E41F4
B80020
F40000
B40000
B40000
3D0000
1F4000
02E400
00B800
007800
007800
007800
007800
007800
007800
ENDCHAR
STARTCHAR uni0298
ENCODING 664
SWIDTH 600 0
DWIDTH 14 0
BBX 12 17 1 0
BITMAP
01BE40
07FFE0
1F81F8
2E003C
3C002D
78001E
74000F
B43D0F
B47E0F
B4290F
74000F
78001E
3C002D
2D003C
1F41F8
07FFE0
01BF40
ENDCHAR
STARTCHAR uni0299
ENCODING 665
SWIDTH 600 0
DWIDTH 14 0
BBX 11 12 2 0
BITMAP
7FFF90
7FFFF4
7801B8
780078
7801B4
7FFFD0
7FFFE4
78007C
78003C
78007C
7FFFF8
7FFF90
ENDCHAR
STARTCHAR uni029C
ENCODING 668
SWIDTH 600 0
DWIDTH 14 0
BBX 11 12 2 0
BITMAP
B400B4
B400B4
B400B4
B400B4
B400B4
BFFFF4
BFFFF4
B400B4
B400B4
B400B4
B400B4
B400B4
ENDCHAR
STARTCHAR uni029D
ENCODING 669
SWIDTH 600 0
DWIDTH 14 0
BBX 11 23 1 -6
BITMAP
000B40
001FC0
000B40
000000
000000
3FFF80
3FFF80
000780
000780
000780
000780
000780
000780
000780
000780
000780
1FEB80
7FFF40
B41F40
B42FC0
3FFEE0
1BE4B4
000060
ENDCHAR
STARTCHAR uni029E
ENCODING 670
SWIDTH 600 0
DWIDTH 14 0
BBX 11 17 1 -5
BITMAP
78003C
2D003C
0F003C
07807C
02D1FC
00F7FC
007E7C
00B83C
02E03C
0B803C
2E003C
B8003C
00003C
00003C
00003C
00003C
00003C
ENDCHAR
STARTCHAR uni029F
ENCODING 671
SWIDTH 600 0
DWIDTH 14 0
BBX 10 12 3 0
BITMAP
780000
780000
780000
780000
780000
780000
780000
780000
780000
780000
7FFFE0
7FFFE0
ENDCHAR
STARTCHAR uni02A1
ENCODING 673
SWIDTH 600 0
DWIDTH 14 0
BBX 12 17 1 0
BITMAP
01BE80
0FFFF0
3E41F8
24003C
00003D
00003C
000078
0002E0
001B80
7FFFFD
7FFFFD
007800
007800
007800
007800
007800
007800
ENDCHAR
STARTCHAR uni02A2
ENCODING 674
SWIDTH 600 0
DWIDTH 14 0
BBX 11 17 2 0
BITMAP
06FE00
2FFFD0
7E01F4
B80020
B40000
B40000
780000
1E0000
07D000
FFFFF8
FFFFF8
007800
007800
007800
007800
007800
007800
ENDCHAR
STARTCHAR uni02A4
ENCODING 676
SWIDTH 600 0
DWIDTH 14 0
BBX 15 22 0 -5
BITMAP
000F0000
000F0000
000F0000
000F0000
000F0000
0BDFFFF4
2FFFFFF4
7D2F00E0
B40F02C0
F00F0740
F00F0F00
F00F2D00
F00F3F80
B40F3FF0
7C2F01F4
3FFB0078
0B9B0078
00000078
00000078
000091F4
0001FFE0
00006F80
ENDCHAR
STARTCHAR uni02A6
ENCODING 678
SWIDTH 600 0
DWIDTH 14 0
BBX 14 16 0 0
BITMAP
01000000
07400000
07400000
0B400000
7FFFFE40
7FFFFFD0
0B42D180
0B42D000
0B41F400
0B406F40
0B4007C0
0B4001E0
0B8001E0
07D006E0
02FFFFC0
006FF900
ENDCHAR
STARTCHAR uni02A7
ENCODING 679
SWIDTH 600 0
DWIDTH 14 0
BBX 14 22 1 -5
BITMAP
00001BD0
0B003FD0
0F007D00
0F007800
0F007800
BFFFF800
FFFFF800
0F007800
0F007800
0F007800
0F007800
0F007800
0F007800
0F007800
0F447800
0BFC7800
02F87800
00007800
00007800
0000B400
000FF000
000F9000
ENDCHAR
STARTCHAR h.sups
ENCODING 688
SWIDTH 600 0
DWIDTH 14 0
BBX 7 13 4 8
BITMAP
5000
A000
A000
A000
A2E0
ABF8
B83C
A02C
A02C
A02C
A02C
A02C
5018
ENDCHAR
STARTCHAR j.sups
ENCODING 690
SWIDTH 600 0
DWIDTH 14 0
BBX 6 15 3 6
BITMAP
00F0
00F0
0000
0000
3FF0
3FF0
00B0
00B0
00B0
00B0
00B0
00B0
11E0
7FD0
6F80
ENDCHAR
STARTCHAR r.sups
ENCODING 691
SWIDTH 600 0
DWIDTH 14 0
BBX 7 9 5 8
BITMAP
71FC
7BF8
7E00
7800
7400
7400
7400
7400
2400
ENDCHAR
STARTCHAR w.sups
ENCODING 695
SWIDTH 600 0
DWIDTH 14 0
BBX 11 8 1 9
BITMAP
B0381C
747C28
34AC38
28DD34
2DCA70
1EC7A0
0F83D0
0B43D0
ENDCHAR
STARTCHAR y.sups
ENCODING 696
SWIDTH 600 0
DWIDTH 14 0
BBX 8 11 3 6
BITMAP
700B
380D
1C1C
0D28
0A34
0370
02E0
01D0
0780
3F40
7D00
ENDCHAR
STARTCHAR uni02B9
ENCODING 697
SWIDTH 600 0
DWIDTH 14 0
BBX 3 6 6 10
BITMAP
78
74
B4
B0
A0
A0
ENDCHAR
STARTCHAR uni02BB
ENCODING 699
SWIDTH 600 0
DWIDTH 14 0
BBX 4 9 5 8
BITMAP
05
1E
38
B0
A0
FD
FF
BF
2D
ENDCHAR
STARTCHAR uni02BC
ENCODING 700
SWIDTH 600 0
DWIDTH 14 0
BBX 5 9 5 8
BITMAP
2D00
BF00
BF40
3F40
0700
0B00
1D00
7800
5000
ENDCHAR
STARTCHAR uni02BE
ENCODING 702
SWIDTH 600 0
DWIDTH 14 0
BBX 5 8 5 12
BITMAP
B900
BF00
0B80
0380
0380
0B80
BF00
B900
ENDCHAR
STARTCHAR uni02BF
ENCODING 703
SWIDTH 600 0
DWIDTH 14 0
BBX 5 8 4 12
BITMAP
0BC0
2FC0
7D00
7400
7400
7900
2FC0
0BC0
ENDCHAR
STARTCHAR uni02C1
ENCODING 705
SWIDTH 600 0
DWIDTH 14 0
BBX 7 10 4 10
BITMAP
1B90
7FF4
B428
D000
D000
B000
3D00
0B40
0740
0740
ENDCHAR
STARTCHAR circumflex
ENCODING 710
SWIDTH 600 0
DWIDTH 14 0
BBX 8 4 3 14
BITMAP
07E0
0FB4
282D
6006
ENDCHAR
STARTCHAR caron
ENCODING 711
SWIDTH 600 0
DWIDTH 14 0
BBX 8 4 3 14
BITMAP
6006
282D
0FB4
07E0
ENDCHAR
STARTCHAR uni02C8
ENCODING 712
SWIDTH 600 0
DWIDTH 14 0
BBX 3 8 6 9
BITMAP
F4
F4
F4
B4
B0
B0
B0
60
ENDCHAR
STARTCHAR uni02C9
ENCODING 713
SWIDTH 600 0
DWIDTH 14 0
BBX 7 1 4 15
BITMAP
FFF4
ENDCHAR
STARTCHAR uni02CA
ENCODING 714
SWIDTH 600 0
DWIDTH 14 0
BBX 5 5 6 14
BITMAP
0600
1F40
3D00
F400
9000
ENDCHAR
STARTCHAR uni02CB
ENCODING 715
SWIDTH 600 0
DWIDTH 14 0
BBX 5 5 4 14
BITMAP
6000
B800
2D00
0B40
0240
ENDCHAR
STARTCHAR uni02CC
ENCODING 716
SWIDTH 600 0
DWIDTH 14 0
BBX 3 8 6 -6
BITMAP
B0
B0
B0
B0
B4
F4
F4
F4
ENDCHAR
STARTCHAR uni02D0
ENCODING 720
SWIDTH 600 0
DWIDTH 14 0
BBX 5 12 5 0
BITMAP
FF40
7E00
2C00
1800
0000
0000
0000
0000
1800
2C00
7E00
FF40
ENDCHAR
STARTCHAR uni02D1
ENCODING 721
SWIDTH 600 0
DWIDTH 14 0
BBX 5 4 5 8
BITMAP
FF40
7E00
2C00
1800
ENDCHAR
STARTCHAR breve
ENCODING 728
SWIDTH 600 0
DWIDTH 14 0
BBX 8 3 3 14
BITMAP
700A
381D
0BE4
ENDCHAR
STARTCHAR dotaccent
ENCODING 729
SWIDTH 600 0
DWIDTH 14 0
BBX 4 3 5 14
BITMAP
2D
7E
2D
ENDCHAR
STARTCHAR ring
ENCODING 730
SWIDTH 600 0
DWIDTH 14 0
BBX 6 5 4 14
BITMAP
1F80
74A0
7060
74A0
1F80
ENDCHAR
STARTCHAR ogonek
ENCODING 731
SWIDTH 600 0
DWIDTH 14 0
BBX 5 5 5 -5
BITMAP
2800
7000
E000
E040
6F40
ENDCHAR
STARTCHAR tilde
ENCODING 732
SWIDTH 600 0
DWIDTH 14 0
BBX 8 3 3 14
BITMAP
1901
B787
90BD
ENDCHAR
STARTCHAR hungarumlaut
ENCODING 733
SWIDTH 600 0
DWIDTH 14 0
BBX 7 5 5 13
BITMAP
1824
3874
74A0
A1D0
8180
ENDCHAR
STARTCHAR uni02DE
ENCODING 734
SWIDTH 600 0
DWIDTH 14 0
BBX 7 5 3 5
BITMAP
0A00
BF00
9740
03F4
01F0
ENDCHAR
STARTCHAR uni02E0
ENCODING 736
SWIDTH 600 0
DWIDTH 14 0
BBX 8 12 3 5
BITMAP
740A
380D
2C2C
1D38
0A74
07B0
03D0
0390
0660
0A70
0BF0
07D0
ENDCHAR
STARTCHAR l.sups
ENCODING 737
SWIDTH 600 0
DWIDTH 14 0
BBX 7 12 4 9
BITMAP
7F40
7F40
0740
0740
0740
0740
0740
0740
0740
0740
03F8
01F8
ENDCHAR
STARTCHAR s.sups
ENCODING 738
SWIDTH 600 0
DWIDTH 14 0
BBX 7 8 4 9
BITMAP
2F90
BFF4
7420
1400
0010
9038
BFF8
1FE0
ENDCHAR
STARTCHAR x.sups
ENCODING 739
SWIDTH 600 0
DWIDTH 14 0
BBX 7 8 4 9
BITMAP
B038
38B0
1DD0
0B80
0F80
28D0
7474
9028
ENDCHAR
STARTCHAR uni02E4
ENCODING 740
SWIDTH 600 0
DWIDTH 14 0
BBX 7 12 4 9
BITMAP
1B90
7FF4
B428
D000
D000
B000
3D00
0B40
0740
0740
0740
0740
ENDCHAR
STARTCHAR uni0300
ENCODING 768
SWIDTH 600 0
DWIDTH 14 0
BBX 5 5 4 14
BITMAP
6000
B800
2D00
0B40
0240
ENDCHAR
STARTCHAR uni0301
ENCODING 769
SWIDTH 600 0
DWIDTH 14 0
BBX 5 5 6 14
BITMAP
0600
1F40
3D00
F400
9000
ENDCHAR
STARTCHAR uni0302
ENCODING 770
SWIDTH 600 0
DWIDTH 14 0
BBX 8 4 3 14
BITMAP
07E0
0FB4
282D
6006
ENDCHAR
STARTCHAR uni0303
ENCODING 771
SWIDTH 600 0
DWIDTH 14 0
BBX 8 3 3 14
BITMAP
1901
B787
90BD
ENDCHAR
STARTCHAR uni0304
ENCODING 772
SWIDTH 600 0
DWIDTH 14 0
BBX 7 1 4 15
BITMAP
FFF4
ENDCHAR
STARTCHAR uni0305
ENCODING 773
SWIDTH 600 0
DWIDTH 14 0
BBX 7 1 4 15
BITMAP
FFF4
ENDCHAR
STARTCHAR uni0306
ENCODING 774
SWIDTH 600 0
DWIDTH 14 0
BBX 8 3 3 14
BITMAP
700A
381D
0BE4
ENDCHAR
STARTCHAR uni0307
ENCODING 775
SWIDTH 600 0
DWIDTH 14 0
BBX 4 3 5 14
BITMAP
2D
7E
2D
ENDCHAR
STARTCHAR uni0308
ENCODING 776
SWIDTH 600 0
DWIDTH 14 0
BBX 8 3 3 14
BITMAP
381D
7C2E
381D
ENDCHAR
STARTCHAR uni0309
ENCODING 777
SWIDTH 600 0
DWIDTH 14 0
BBX 4 4 5 14
BITMAP
79
0B
0B
29
ENDCHAR
STARTCHAR uni030A
ENCODING 778
SWIDTH 600 0
DWIDTH 14 0
BBX 6 5 4 14
BITMAP
1F80
74A0
7060
74A0
1F80
ENDCHAR
STARTCHAR uni030B
ENCODING 779
SWIDTH 600 0
DWIDTH 14 0
BBX 7 5 5 13
BITMAP
1824
3874
74A0
A1D0
8180
ENDCHAR
STARTCHAR uni030C
ENCODING 780
SWIDTH 600 0
DWIDTH 14 0
BBX 8 4 3 14
BITMAP
6006
282D
0FB4
07E0
ENDCHAR
STARTCHAR uni030F
ENCODING 783
SWIDTH 600 0
DWIDTH 14 0
BBX 7 5 3 13
BITMAP
9180
E1D0
70A0
3874
1824
ENDCHAR
STARTCHAR uni0310
ENCODING 784
SWIDTH 600 0
DWIDTH 14 0
BBX 8 6 3 14
BITMAP
0140
03D0
03D0
A147
381D
1BF4
ENDCHAR
STARTCHAR uni0311
ENCODING 785
SWIDTH 600 0
DWIDTH 14 0
BBX 8 3 3 14
BITMAP
0BE4
381D
700A
ENDCHAR
STARTCHAR uni0312
ENCODING 786
SWIDTH 600 0
DWIDTH 14 0
BBX 3 4 6 13
BITMAP
24
D0
F4
B4
ENDCHAR
STARTCHAR uni0313
ENCODING 787
SWIDTH 600 0
DWIDTH 14 0
BBX 3 4 6 14
BITMAP
B4
B4
24
90
ENDCHAR
STARTCHAR uni0318
ENCODING 792
SWIDTH 600 0
DWIDTH 14 0
BBX 5 6 5 -7
BITMAP
0240
0340
BF40
BF40
0340
0240
ENDCHAR
STARTCHAR uni0319
ENCODING 793
SWIDTH 600 0
DWIDTH 14 0
BBX 4 6 5 -7
BITMAP
90
D0
FF
FF
D0
90
ENDCHAR
STARTCHAR uni031A
ENCODING 794
SWIDTH 600 0
DWIDTH 14 0
BBX 5 5 5 12
BITMAP
BF40
BF40
0340
0340
0100
ENDCHAR
STARTCHAR uni031B
ENCODING 795
SWIDTH 600 0
DWIDTH 14 0
BBX 4 5 7 11
BITMAP
09
0E
0E
2D
E0
ENDCHAR
STARTCHAR uni031C
ENCODING 796
SWIDTH 600 0
DWIDTH 14 0
BBX 4 4 5 -6
BITMAP
2E
74
74
2E
ENDCHAR
STARTCHAR uni031D
ENCODING 797
SWIDTH 600 0
DWIDTH 14 0
BBX 6 4 4 -5
BITMAP
0700
0700
BFF0
BFF0
ENDCHAR
STARTCHAR uni031E
ENCODING 798
SWIDTH 600 0
DWIDTH 14 0
BBX 6 4 4 -6
BITMAP
BFF0
BFF0
0700
0700
ENDCHAR
STARTCHAR uni031F
ENCODING 799
SWIDTH 600 0
DWIDTH 14 0
BBX 6 6 4 -7
BITMAP
0600
0700
BFF0
BFF0
0700
0600
ENDCHAR
STARTCHAR uni0320
ENCODING 800
SWIDTH 600 0
DWIDTH 14 0
BBX 6 2 4 -4
BITMAP
BFF0
BFF0
ENDCHAR
STARTCHAR uni0323
ENCODING 803
SWIDTH 600 0
DWIDTH 14 0
BBX 4 3 5 -5
BITMAP
2D
7E
2D
ENDCHAR
STARTCHAR uni0324
ENCODING 804
SWIDTH 600 0
DWIDTH 14 0
BBX 8 3 3 -5
BITMAP
381D
7C2E
381D
ENDCHAR
STARTCHAR uni0325
ENCODING 805
SWIDTH 600 0
DWIDTH 14 0
BBX 6 5 4 -5
BITMAP
1F80
74A0
7060
74A0
1F80
ENDCHAR
STARTCHAR uni0326
ENCODING 806
SWIDTH 600 0
DWIDTH 14 0
BBX 4 4 5 -5
BITMAP
39
1B
FF
F8
ENDCHAR
STARTCHAR uni0327
ENCODING 807
SWIDTH 600 0
DWIDTH 14 0
BBX 4 6 5 -6
BITMAP
28
34
3D
0B
1B
E8
ENDCHAR
STARTCHAR uni0328
ENCODING 808
SWIDTH 600 0
DWIDTH 14 0
BBX 5 5 5 -5
BITMAP
2800
7000
E000
E040
6F40
ENDCHAR
STARTCHAR uni0329
ENCODING 809
SWIDTH 600 0
DWIDTH 14 0
BBX 2 5 6 -7
BITMAP
B0
B0
B0
B0
B0
ENDCHAR
STARTCHAR uni032A
ENCODING 810
SWIDTH 600 0
DWIDTH 14 0
BBX 6 5 4 -7
BITMAP
BFF0
BFF0
9030
9030
4010
ENDCHAR
STARTCHAR uni032C
ENCODING 812
SWIDTH 600 0
DWIDTH 14 0
BBX 8 4 3 -5
BITMAP
6006
282D
0FB4
07E0
ENDCHAR
STARTCHAR uni032E
ENCODING 814
SWIDTH 600 0
DWIDTH 14 0
BBX 8 3 3 -5
BITMAP
700A
381D
0BE4
ENDCHAR
STARTCHAR uni032F
ENCODING 815
SWIDTH 600 0
DWIDTH 14 0
BBX 8 3 3 -5
BITMAP
0BE4
381D
700A
ENDCHAR
STARTCHAR uni0330
ENCODING 816
SWIDTH 600 0
DWIDTH 14 0
BBX 8 3 3 -5
BITMAP
1901
B787
90BD
ENDCHAR
STARTCHAR uni0331
ENCODING 817
SWIDTH 600 0
DWIDTH 14 0
BBX 7 1 4 -3
BITMAP
FFF4
ENDCHAR
STARTCHAR uni0334
ENCODING 820
SWIDTH 600 0
DWIDTH 14 0
BBX 10 3 2 4
BITMAP
054050
3AE4E0
601F80
ENDCHAR
STARTCHAR uni0339
ENCODING 825
SWIDTH 600 0
DWIDTH 14 0
BBX 4 4 5 -6
BITMAP
79
0B
0B
79
ENDCHAR
STARTCHAR uni033A
ENCODING 826
SWIDTH 600 0
DWIDTH 14 0
BBX 6 5 4 -6
BITMAP
4010
9030
9030
BFF0
BFF0
ENDCHAR
STARTCHAR uni033B
ENCODING 827
SWIDTH 600 0
DWIDTH 14 0
BBX 6 5 4 -7
BITMAP
BFF0
BFF0
9030
BFF0
BFF0
ENDCHAR
STARTCHAR uni033C
ENCODING 828
SWIDTH 600 0
DWIDTH 14 0
BBX 9 4 3 -5
BITMAP
2D3D00
BFBF00
A2C740
918340
ENDCHAR
STARTCHAR uni033D
ENCODING 829
SWIDTH 600 0
DWIDTH 14 0
BBX 5 4 5 14
BITMAP
9240
7E00
7E00
9240
ENDCHAR
STARTCHAR uni0342
ENCODING 834
SWIDTH 600 0
DWIDTH 14 0
BBX 8 3 3 14
BITMAP
1901
B787
90BD
ENDCHAR
STARTCHAR uni0345
ENCODING 837
SWIDTH 600 0
DWIDTH 14 0
BBX 4 3 6 -5
BITMAP
B0
BD
3D
ENDCHAR
STARTCHAR uni035F
ENCODING 863
SWIDTH 600 0
DWIDTH 14 0
BBX 24 2 -5 -4
BITMAP
BFFFFFFFFFFF
BFFFFFFFFFFF
ENDCHAR
STARTCHAR uni0361
ENCODING 865
SWIDTH 600 0
DWIDTH 14 0
BBX 22 5 -4 14
BITMAP
0006BFE90000
01BFFFFFE400
0BF94006BF40
7E40000007E0
600000000060
ENDCHAR
STARTCHAR uni0374
ENCODING 884
SWIDTH 600 0
DWIDTH 14 0
BBX 3 6 6 11
BITMAP
78
74
B4
B0
A0
A0
ENDCHAR
STARTCHAR uni0375
ENCODING 885
SWIDTH 600 0
DWIDTH 14 0
BBX 3 6 6 0
BITMAP
74
70
B0
F0
F0
E0
ENDCHAR
STARTCHAR uni037A
ENCODING 890
SWIDTH 600 0
DWIDTH 14 0
BBX 4 3 6 -5
BITMAP
B0
BD
3D
ENDCHAR
STARTCHAR uni037E
ENCODING 894
SWIDTH 600 0
DWIDTH 14 0
BBX 5 18 5 -5
BITMAP
2D00
BF00
BF00
2D00
0000
0000
0000
0000
0000
2E00
7F40
7F40
2F40
0740
0B00
1E00
7800
E000
ENDCHAR
STARTCHAR tonos
ENCODING 900
SWIDTH 600 0
DWIDTH 14 0
BBX 4 6 6 13
BITMAP
29
2D
3C
78
74
70
ENDCHAR
STARTCHAR dieresistonos
ENCODING 901
SWIDTH 600 0
DWIDTH 14 0
BBX 8 6 3 13
BITMAP
00A0
00E0
00D0
75CE
768E
0240
ENDCHAR
STARTCHAR Alphatonos
ENCODING 902
SWIDTH 600 0
DWIDTH 14 0
BBX 13 16 1 0
BITMAP
742E0000
743F0000
B07B4000
B0B38000
E0E2C000
E1D1D000
D2C0E000
0380F000
0740B400
0BFFF800
0FFFFC00
1E002D00
2D001E00
3C001F00
78000F00
B4000B40
ENDCHAR
STARTCHAR anoteleia
ENCODING 903
SWIDTH 600 0
DWIDTH 14 0
BBX 4 4 5 8
BITMAP
2D
BF
BF
2D
ENDCHAR
STARTCHAR Epsilontonos
ENCODING 904
SWIDTH 600 0
DWIDTH 14 0
BBX 13 16 0 0
BITMAP
2D7FFF40
2C7FFF40
3C780000
38780000
34780000
74780000
707FFD00
007FFD00
00780000
00780000
00780000
00780000
00780000
00780000
007FFF80
007FFF80
ENDCHAR
STARTCHAR Etatonos
ENCODING 905
SWIDTH 600 0
DWIDTH 14 0
BBX 13 16 0 0
BITMAP
2D740380
2C740380
3C740380
38740380
34740380
74740380
707FFF80
007FFF80
00740380
00740380
00740380
00740380
00740380
00740380
00740380
00740380
ENDCHAR
STARTCHAR Iotatonos
ENCODING 906
SWIDTH 600 0
DWIDTH 14 0
BBX 12 16 0 0
BITMAP
2DBFFF
2CBFFF
3C02D0
3802D0
3402D0
7402D0
7002D0
0002D0
0002D0
0002D0
0002D0
0002D0
0002D0
0002D0
00BFFF
00BFFF
ENDCHAR
STARTCHAR Omicrontonos
ENCODING 908
SWIDTH 600 0
DWIDTH 14 0
BBX 14 16 0 0
BITMAP
2D0BE400
2C2FFD00
3C7D1F00
38F40B80
34E003C0
75E003C0
71D002D0
01D002D0
01D002D0
01D002D0
01E003C0
00F003C0
00B40B80
007D1F00
002FFD00
0007E400
ENDCHAR
STARTCHAR Upsilontonos
ENCODING 910
SWIDTH 600 0
DWIDTH 14 0
BBX 14 16 1 0
BITMAP
79E002D0
74F003C0
74B40740
B0380B00
B02C0E00
E01D1D00
D00E2C00
000B7400
0003F000
0002E000
0001D000
0001D000
0001D000
0001D000
0001D000
0001D000
ENDCHAR
STARTCHAR Omegatonos
ENCODING 911
SWIDTH 600 0
DWIDTH 14 0
BBX 14 16 0 0
BITMAP
2D0BE400
2C2FFD00
3C7D1F00
38F40B80
35E007C0
75E003C0
71E003C0
01D002C0
01D002C0
01E003C0
00E00380
00B00740
00740B00
002C1D00
02FD2FD0
02FD2FD0
ENDCHAR
STARTCHAR iotadieresistonos
ENCODING 912
SWIDTH 600 0
DWIDTH 14 0
BBX 11 19 2 0
BITMAP
003400
007400
00B000
2CA740
2CD740
00C000
000000
FFF000
FFF000
00F000
00E000
00E000
00E000
00E000
00E000
00F000
00F810
007FF4
002FE4
ENDCHAR
STARTCHAR Alpha
ENCODING 913
SWIDTH 600 0
DWIDTH 14 0
BBX 13 16 1 0
BITMAP
003D0000
007E0000
00BB0000
00E74000
01D38000
02C2C000
0381D000
0740E000
0B00B000
0FFFF400
1FFFF800
2C002C00
3C002D00
78001E00
B4000F00
F0000B40
ENDCHAR
STARTCHAR Beta
ENCODING 914
SWIDTH 600 0
DWIDTH 14 0
BBX 11 16 2 0
BITMAP
BFFE40
BFFFD0
B406F0
B400F4
B400F0
B406E0
BFFF40
BFFF90
B401F4
B4007C
B4003C
B4003C
B4007C
B406F4
BFFFE0
BFFE40
ENDCHAR
STARTCHAR Gamma
ENCODING 915
SWIDTH 600 0
DWIDTH 14 0
BBX 10 16 3 0
BITMAP
BFFFF0
BFFFF0
B40000
B40000
B40000
B40000
B40000
B40000
B40000
B40000
B40000
B40000
B40000
B40000
B40000
B40000
ENDCHAR
STARTCHAR uni0394
ENCODING 916
SWIDTH 600 0
DWIDTH 14 0
BBX 13 16 1 0
BITMAP
003E0000
007F0000
00BB4000
00E78000
01D3C000
02C2D000
0381E000
0B40F000
0F00B400
1E007800
2D003C00
3C002D00
78001E00
B4000F00
FFFFFF40
FFFFFF40
ENDCHAR
STARTCHAR Epsilon
ENCODING 917
SWIDTH 600 0
DWIDTH 14 0
BBX 11 16 2 0
BITMAP
7FFFF4
7FFFF4
780000
780000
780000
780000
7FFFD0
7FFFD0
780000
780000
780000
780000
780000
780000
7FFFF8
7FFFF8
ENDCHAR
STARTCHAR Zeta
ENCODING 918
SWIDTH 600 0
DWIDTH 14 0
BBX 12 16 1 0
BITMAP
2FFFFE
2FFFFE
00003C
0000B4
0001E0
0003C0
000B40
002E00
007C00
00F400
02D000
078000
0F0000
2D0000
7FFFFF
7FFFFF
ENDCHAR
STARTCHAR Eta
ENCODING 919
SWIDTH 600 0
DWIDTH 14 0
BBX 11 16 2 0
BITMAP
F000B8
F000B8
F000B8
F000B8
F000B8
F000B8
FFFFF8
FFFFF8
F000B8
F000B8
F000B8
F000B8
F000B8
F000B8
F000B8
F000B8
ENDCHAR
STARTCHAR Theta
ENCODING 920
SWIDTH 600 0
DWIDTH 14 0
BBX 13 16 1 0
BITMAP
01BE4000
0BFFE000
1F41F800
3D003D00
7C001E00
B8000F00
B5FF8F00
B5FF8F40
B4000F40
B4000F00
B8000F00
7C001E00
3D003D00
1F41F800
0BFFE000
01BE4000
ENDCHAR
STARTCHAR Iota
ENCODING 921
SWIDTH 600 0
DWIDTH 14 0
BBX 10 16 2 0
BITMAP
BFFFF0
BFFFF0
00B400
00B400
00B400
00B400
00B400
00B400
00B400
00B400
00B400
00B400
00B400
00B400
BFFFF0
BFFFF0
ENDCHAR
STARTCHAR Kappa
ENCODING 922
SWIDTH 600 0
DWIDTH 14 0
BBX 12 16 2 0
BITMAP
B4007C
B401F0
B403D0
B40B40
B42E00
B47800
B5F800
BBFC00
BF5E00
BE0F40
B80780
B402D0
B401F0
B400B8
B4007C
B4002E
ENDCHAR
STARTCHAR Lambda
ENCODING 923
SWIDTH 600 0
DWIDTH 14 0
BBX 13 16 1 0
BITMAP
003E0000
007E0000
00BB0000
00E74000
01D38000
02C2C000
0382D000
0781E000
0B40F000
0F00B400
1E007800
2D003C00
3C002D00
78001E00
B8001F00
B4000F40
ENDCHAR
STARTCHAR Mu
ENCODING 924
SWIDTH 600 0
DWIDTH 14 0
BBX 12 16 1 0
BITMAP
7D003E
7E007E
7F00BE
7B40EE
7B81DE
7AC2DE
79D39E
78E75E
78B71E
787E1E
783D1E
78281E
78001E
78001E
78001E
78001E
ENDCHAR
STARTCHAR Nu
ENCODING 925
SWIDTH 600 0
DWIDTH 14 0
BBX 11 16 2 0
BITMAP
F40074
FC0074
FD0074
EF0074
E74074
E3C074
F2D074
F0F074
F0B474
F03C74
F02D74
F00F74
F00BB4
F003F4
F002F4
F000F4
ENDCHAR
STARTCHAR Xi
ENCODING 926
SWIDTH 600 0
DWIDTH 14 0
BBX 12 16 1 0
BITMAP
3FFFFD
3FFFFD
000000
000000
000000
000000
0BFFF0
0BFFF0
000000
000000
000000
000000
000000
000000
7FFFFE
7FFFFE
ENDCHAR
STARTCHAR Omicron
ENCODING 927
SWIDTH 600 0
DWIDTH 14 0
BBX 13 16 1 0
BITMAP
01BE4000
0BFFF000
1F41F800
3D003D00
7C001E00
B8000F00
B4000F00
B4000F40
B4000F40
B4000F00
B8000F00
7C001E00
3D003D00
1F41F800
0BFFE000
01BE4000
ENDCHAR
STARTCHAR Pi
ENCODING 928
SWIDTH 600 0
DWIDTH 14 0
BBX 11 16 2 0
BITMAP
FFFFF8
FFFFF8
F000B8
F000B8
F000B8
F000B8
F000B8
F000B8
F000B8
F000B8
F000B8
F000B8
F000B8
F000B8
F000B8
F000B8
ENDCHAR
STARTCHAR Rho
ENCODING 929
SWIDTH 600 0
DWIDTH 14 0
BBX 11 16 2 0
BITMAP
BFFE40
BFFFE0
B401F8
B4007C
B4003C
B4003C
B40078
B401F4
BFFFE0
BFFE40
B40000
B40000
B40000
B40000
B40000
B40000
ENDCHAR
STARTCHAR Sigma
ENCODING 931
SWIDTH 600 0
DWIDTH 14 0
BBX 12 16 1 0
BITMAP
3FFFFC
3FFFFC
1E0000
078000
02E000
00B400
003D00
000F00
001E00
003C00
00F400
02D000
0B8000
1E0000
3FFFFE
7FFFFE
ENDCHAR
STARTCHAR Tau
ENCODING 932
SWIDTH 600 0
DWIDTH 14 0
BBX 13 16 1 0
BITMAP
FFFFFF40
FFFFFF40
002D0000
002D0000
002D0000
002D0000
002D0000
002D0000
002D0000
002D0000
002D0000
002D0000
002D0000
002D0000
002D0000
002D0000
ENDCHAR
STARTCHAR Upsilon
ENCODING 933
SWIDTH 600 0
DWIDTH 14 0
BBX 13 16 1 0
BITMAP
B4000B40
78001E00
2D002D00
1E007800
0B40B400
0781E000
02D2C000
01E78000
00BF0000
007E0000
003D0000
002D0000
002D0000
002D0000
002D0000
002D0000
ENDCHAR
STARTCHAR Phi
ENCODING 934
SWIDTH 600 0
DWIDTH 14 0
BBX 14 16 0 0
BITMAP
000B0000
000B0000
01BFE400
0BFFFF00
1F9B5F80
3D0B03D0
780B01E0
780B01E0
780B01E0
7C0B01E0
3D0B03D0
1F9B5F80
0BFFFE00
01BFE400
000B0000
000B0000
ENDCHAR
STARTCHAR Chi
ENCODING 935
SWIDTH 600 0
DWIDTH 14 0
BBX 12 16 1 0
BITMAP
3C002E
2E003C
0F40B4
0781E0
02D2D0
01E780
00BF00
007E00
007E00
00FB40
02D3C0
03C2E0
0B40F0
1E0078
3D003D
78001E
ENDCHAR
STARTCHAR Psi
ENCODING 936
SWIDTH 600 0
DWIDTH 14 0
BBX 13 16 1 0
BITMAP
F02D0B40
F02D0B40
F02D0B40
F02D0B40
F02D0B40
F42D0B40
B82D1F00
7E2D7E00
1FFFF800
06FF9000
002D0000
002D0000
002D0000
002D0000
002D0000
002D0000
ENDCHAR
STARTCHAR uni03A9
ENCODING 937
SWIDTH 600 0
DWIDTH 14 0
BBX 13 16 1 0
BITMAP
01BF8000
0BFFF000
1F41FC00
3D003D00
78001E00
B4000F00
B4000F40
B4000B40
B4000F00
B4000F00
78001E00
3C002D00
1E007800
0B40F000
FFC2FF40
FFC2FF40
ENDCHAR
STARTCHAR Iotadieresis
ENCODING 938
SWIDTH 600 0
DWIDTH 14 0
BBX 10 19 2 0
BITMAP
0F0B40
0F0B40
000000
BFFFF0
BFFFF0
00B400
00B400
00B400
00B400
00B400
00B400
00B400
00B400
00B400
00B400
00B400
00B400
BFFFF0
BFFFF0
ENDCHAR
STARTCHAR Upsilondieresis
ENCODING 939
SWIDTH 600 0
DWIDTH 14 0
BBX 13 19 1 0
BITMAP
03C2D000
03C2D000
00000000
B4000B40
78001E00
2D002D00
1E007800
0B40B400
0781E000
02D2C000
01E78000
00BF0000
007E0000
003D0000
002D0000
002D0000
002D0000
002D0000
002D0000
ENDCHAR
STARTCHAR alphatonos
ENCODING 940
SWIDTH 600 0
DWIDTH 14 0
BBX 13 19 1 0
BITMAP
00038000
00078000
00074000
000B0000
000A0000
000D0000
00000000
01FE0F00
0BFF9E00
2F42ED00
3D00BD00
78003C00
B4003C00
B4003800
B8003800
7C00B800
3E46F800
1FFF7F80
06F91F80
ENDCHAR
STARTCHAR epsilontonos
ENCODING 941
SWIDTH 600 0
DWIDTH 14 0
BBX 11 19 2 0
BITMAP
000A40
000F00
000E00
001D00
002C00
002800
000000
06FE40
2FFFE0
3D01B0
780000
2D0000
0BFE00
1FFE00
790000
B40000
B901B8
3FFFF4
0AFE40
ENDCHAR
STARTCHAR etatonos
ENCODING 942
SWIDTH 600 0
DWIDTH 14 0
BBX 11 24 2 -5
BITMAP
000E00
001E00
001D00
002C00
002C00
002800
000000
B06F80
B2FFE0
BB41F0
BD00B4
B800B4
B400B4
B400B4
B400B4
B400B4
B400B4
B400B4
B400B4
0000B4
0000B4
0000B4
0000B4
0000B4
ENDCHAR
STARTCHAR iotatonos
ENCODING 943
SWIDTH 600 0
DWIDTH 14 0
BBX 11 19 2 0
BITMAP
003800
007800
007400
00B000
00A000
009000
000000
FFF000
FFF000
00F000
00E000
00E000
00E000
00E000
00E000
00F000
00F810
007FF4
002FE4
ENDCHAR
STARTCHAR upsilondieresistonos
ENCODING 944
SWIDTH 600 0
DWIDTH 14 0
BBX 11 19 2 0
BITMAP
002800
003800
007400
2D7380
2DA380
009000
000000
F000A0
F000F0
F000B4
F000B4
F00078
F00078
F00078
F000B4
F400F0
BD07E0
2FFF80
06F900
ENDCHAR
STARTCHAR alpha
ENCODING 945
SWIDTH 600 0
DWIDTH 14 0
BBX 13 12 1 0
BITMAP
01FE0F00
0BFF9E00
2F42ED00
3D00BD00
78003C00
B4003C00
B4003800
B8003800
7C00B800
3E46F800
1FFF7F80
06F91F80
ENDCHAR
STARTCHAR beta
ENCODING 946
SWIDTH 600 0
DWIDTH 14 0
BBX 11 22 2 -5
BITMAP
06F900
1FFF80
3E07D0
7801E0
B401E0
B402C0
B01F40
B0BE40
B0BFE0
B001F4
B0007C
B0003C
B0003C
B4007C
BE41F4
BBFFE0
B1BF40
B00000
B00000
B40000
B40000
B40000
ENDCHAR
STARTCHAR gamma
ENCODING 947
SWIDTH 600 0
DWIDTH 14 0
BBX 12 18 1 -5
BITMAP
100000
B8000E
3D001E
1E002D
0B403C
078038
03C0B4
01D0F0
00E1D0
00B3C0
007B40
007E00
003C00
003C00
002C00
002C00
002C00
003C00
ENDCHAR
STARTCHAR delta
ENCODING 948
SWIDTH 600 0
DWIDTH 14 0
BBX 12 17 1 0
BITMAP
02FF90
0BFFFD
0F416D
0F0000
078000
01E400
007E00
02FBD0
0F40B4
2D002C
78001E
78000E
78001E
3D002E
2F41BD
0BFFF4
01BF90
ENDCHAR
STARTCHAR epsilon
ENCODING 949
SWIDTH 600 0
DWIDTH 14 0
BBX 11 12 2 0
BITMAP
06FE40
2FFFE0
3D01B0
780000
2D0000
0BFE00
1FFE00
790000
B40000
B901B8
3FFFF4
0AFE40
ENDCHAR
STARTCHAR zeta
ENCODING 950
SWIDTH 600 0
DWIDTH 14 0
BBX 11 22 2 -5
BITMAP
2FFFF8
2FFFF8
0001E0
000B40
003C00
00F000
03C000
0B4000
1E0000
2D0000
3C0000
7C0000
3C0000
3E0000
2F9000
0BFE40
01BFF0
0006F4
000078
000074
0000F0
000090
ENDCHAR
STARTCHAR eta
ENCODING 951
SWIDTH 600 0
DWIDTH 14 0
BBX 11 17 2 -5
BITMAP
B06F80
B2FFE0
BB41F0
BD00B4
B800B4
B400B4
B400B4
B400B4
B400B4
B400B4
B400B4
B400B4
0000B4
0000B4
0000B4
0000B4
0000B4
ENDCHAR
STARTCHAR theta
ENCODING 952
SWIDTH 600 0
DWIDTH 14 0
BBX 12 17 1 0
BITMAP
01BE40
07FFE0
0F81F4
1E007C
2C002D
3C001D
38001E
7FFFFE
7FFFFE
78001E
38001E
3C002D
2D002D
1E007C
0F81F4
07FFE0
01BE40
ENDCHAR
STARTCHAR iota
ENCODING 953
SWIDTH 600 0
DWIDTH 14 0
BBX 11 12 2 0
BITMAP
FFF000
FFF000
00F000
00E000
00E000
00E000
00E000
00E000
00F000
00F810
007FF4
002FE4
ENDCHAR
STARTCHAR kappa
ENCODING 954
SWIDTH 600 0
DWIDTH 14 0
BBX 12 12 2 0
BITMAP
B40028
7802FC
780BE0
782E00
78B800
7AFC00
7F6E00
7E0F40
7C07C0
7802E0
7800B8
74003D
ENDCHAR
STARTCHAR lambda
ENCODING 955
SWIDTH 600 0
DWIDTH 14 0
BBX 12 17 1 0
BITMAP
7F8000
7FE000
11F800
003C00
002D00
001E00
002F40
007F80
00B7C0
01E2D0
02D1E0
03C0F0
0B40B8
0F003C
2E002D
3D001E
78000F
ENDCHAR
STARTCHAR uni03BC
ENCODING 956
SWIDTH 600 0
DWIDTH 14 0
BBX 11 17 2 -5
BITMAP
F000F0
F000F0
F000F0
F000F0
F000F0
F000F0
F000F0
F000F0
F402F0
F91BF0
FFFDBC
F7E47C
F00000
F00000
F00000
F00000
F00000
ENDCHAR
STARTCHAR nu
ENCODING 957
SWIDTH 600 0
DWIDTH 14 0
BBX 12 13 1 0
BITMAP
100000
B8000F
3D001E
1E001D
0B402C
078038
02C074
01E0F0
00E1E0
00B2C0
007B80
007F00
003D00
ENDCHAR
STARTCHAR xi
ENCODING 958
SWIDTH 600 0
DWIDTH 14 0
BBX 11 22 2 -5
BITMAP
BFFFF8
BFFFF8
07D000
0F0000
0F0000
0F4000
07D000
01FFC0
02FFC0
1F9000
2D0000
7C0000
780000
7D0000
2F9000
0BFF80
01BFF0
0006F8
000078
000074
0000B0
0000A0
ENDCHAR
STARTCHAR omicron
ENCODING 959
SWIDTH 600 0
DWIDTH 14 0
BBX 12 12 1 0
BITMAP
01BF80
0BFFF0
1F41BC
3D003D
7C001E
78001E
78001E
78001E
3D003D
1F41BC
0BFFF4
01BF80
ENDCHAR
STARTCHAR pi
ENCODING 960
SWIDTH 600 0
DWIDTH 14 0
BBX 14 12 0 0
BITMAP
7FFFFFE0
7FFFFFE0
03C01E00
03C01D00
03C01D00
03C01D00
03C01D00
03801D00
03801D00
07801E00
07801FD0
07800BD0
ENDCHAR
STARTCHAR rho
ENCODING 961
SWIDTH 600 0
DWIDTH 14 0
BBX 11 17 2 -5
BITMAP
02FE40
0FFFD0
2E42F4
7800B8
B4007C
B0003C
B0003C
B00078
B400F4
BD06F0
BBFFD0
B1BE40
B00000
B00000
B40000
B40000
B40000
ENDCHAR
STARTCHAR uni03C2
ENCODING 962
SWIDTH 600 0
DWIDTH 14 0
BBX 11 17 2 -5
BITMAP
01BF80
0BFFF0
2F40B4
7D0000
B80000
B40000
B40000
B40000
7D0000
2F9000
0BFE40
01BFD0
0006F0
0000F0
0000E0
0002D0
000280
ENDCHAR
STARTCHAR sigma
ENCODING 963
SWIDTH 600 0
DWIDTH 14 0
BBX 13 12 1 0
BITMAP
01BFFF80
0BFFFF80
2F41E000
3C007800
78003C00
B8002D00
B8002D00
78003D00
3D007C00
2F41F800
0BFFE000
01BE4000
ENDCHAR
STARTCHAR tau
ENCODING 964
SWIDTH 600 0
DWIDTH 14 0
BBX 12 12 1 0
BITMAP
7FFFFE
7FFFFE
002C00
002C00
002C00
002C00
002C00
002C00
002C00
002D00
001FF0
000BE0
ENDCHAR
STARTCHAR upsilon
ENCODING 965
SWIDTH 600 0
DWIDTH 14 0
BBX 11 12 2 0
BITMAP
F000A0
F000F0
F000B4
F000B4
F00078
F00078
F00078
F000B4
F400F0
BD07E0
2FFF80
06F900
ENDCHAR
STARTCHAR phi
ENCODING 966
SWIDTH 600 0
DWIDTH 14 0
BBX 13 20 1 -5
BITMAP
002C0000
002C0000
002C0000
02FF9000
1FFFF800
3E6D7D00
B82C1F00
B42C0F40
F02C0B40
F02C0B40
B42C0F40
782C1F00
3E6D7D00
1FFFF800
02FF9000
002C0000
002C0000
002C0000
002C0000
002C0000
ENDCHAR
STARTCHAR chi
ENCODING 967
SWIDTH 600 0
DWIDTH 14 0
BBX 12 17 1 -5
BITMAP
7C002D
2E007C
0F40B4
0781E0
03D3D0
01FB80
00BF00
003E00
003D00
00BF00
00FF80
02E3D0
07C2E0
0B80F4
1F007C
2D002E
78000F
ENDCHAR
STARTCHAR psi
ENCODING 968
SWIDTH 600 0
DWIDTH 14 0
BBX 13 20 1 -5
BITMAP
002D0000
002D0000
002D0000
B42D1900
B42D1E00
B42D0F00
B42D0B00
B42D0B40
B42D0B40
B42D0B40
742D0F00
782D1E00
3E2D7D00
1FFFF800
06FF9000
002D0000
002D0000
002D0000
002D0000
002D0000
ENDCHAR
STARTCHAR omega
ENCODING 969
SWIDTH 600 0
DWIDTH 14 0
BBX 14 12 0 0
BITMAP
06400A00
0F400B40
1E0007C0
2D0002D0
3C0B02D0
380B01E0
780B01E0
380B02E0
3C0F42D0
2E1F87C0
1FFEFF80
06E4BE00
ENDCHAR
STARTCHAR iotadieresis
ENCODING 970
SWIDTH 600 0
DWIDTH 14 0
BBX 11 17 2 0
BITMAP
1D0B00
2E0F40
1D0B00
000000
000000
FFF000
FFF000
00F000
00E000
00E000
00E000
00E000
00E000
00F000
00F810
007FF4
002FE4
ENDCHAR
STARTCHAR upsilondieresis
ENCODING 971
SWIDTH 600 0
DWIDTH 14 0
BBX 11 17 2 0
BITMAP
1E0740
1F0F80
1E0740
000000
000000
F000A0
F000F0
F000B4
F000B4
F00078
F00078
F00078
F000B4
F400F0
BD07E0
2FFF80
06F900
ENDCHAR
STARTCHAR omicrontonos
ENCODING 972
SWIDTH 600 0
DWIDTH 14 0
BBX 12 19 1 0
BITMAP
000A40
000B40
000F00
001E00
001D00
001C00
000000
01BF80
0BFFF0
1F41BC
3D003D
7C001E
78001E
78001E
78001E
3D003D
1F41BC
0BFFF4
01BF80
ENDCHAR
STARTCHAR upsilontonos
ENCODING 973
SWIDTH 600 0
DWIDTH 14 0
BBX 11 19 2 0
BITMAP
002900
003C00
003800
007400
007000
00A000
000000
F000A0
F000F0
F000B4
F000B4
F00078
F00078
F00078
F000B4
F400F0
BD07E0
2FFF80
06F900
ENDCHAR
STARTCHAR omegatonos
ENCODING 974
SWIDTH 600 0
DWIDTH 14 0
BBX 14 19 0 0
BITMAP
00029000
0002D000
0003C000
00078000
00074000
00070000
00000000
06400A00
0F400B40
1E0007C0
2D0002D0
3C0B02D0
380B01E0
780B01E0
380B02E0
3C0F42D0
2E1F87C0
1FFEFF80
06E4BE00
ENDCHAR
STARTCHAR uni03D0
ENCODING 976
SWIDTH 600 0
DWIDTH 14 0
BBX 11 17 2 0
BITMAP
06F900
2FFF80
7E07D0
B802E0
B401E0
B402D0
B00780
B06E00
BFFF80
B901F0
B00078
B0003C
B4003C
78007C
3E41F8
1FFFE0
02FE40
ENDCHAR
STARTCHAR uni03D1
ENCODING 977
SWIDTH 600 0
DWIDTH 14 0
BBX 11 17 2 0
BITMAP
0BF900
3FFF80
B907D0
F001F0
F000B4
F40074
7D0078
2FFFF8
06FFF8
000078
B00078
B400B4
B400B4
B801F0
7D07D0
2FFF80
06F900
ENDCHAR
STARTCHAR uni03D5
ENCODING 981
SWIDTH 600 0
DWIDTH 14 0
BBX 13 20 1 -5
BITMAP
002C0000
002C0000
002C0000
02FF9000
1FFFF800
3E6D7D00
B82C1F00
B42C0F40
F02C0B40
F02C0B40
B42C0F40
782C1F00
3E6D7D00
1FFFF800
02FF9000
002C0000
002C0000
002C0000
002C0000
002C0000
ENDCHAR
STARTCHAR uni03D7
ENCODING 983
SWIDTH 600 0
DWIDTH 14 0
BBX 12 16 2 -4
BITMAP
B40028
7802FC
780BE0
782E00
78B800
7AFC00
7F6E00
7E0F40
7C07C0
7801E0
7800B8
74002E
00002D
0000B8
0001E0
0007C0
ENDCHAR
STARTCHAR uni03D9
ENCODING 985
SWIDTH 600 0
DWIDTH 14 0
BBX 12 17 1 -5
BITMAP
01BF80
0BFFF4
2F41BC
3D003D
78001E
78001F
78001F
78001E
3D003D
2F41BC
0BFFF4
01BF80
002D00
002D00
002D00
002D00
002D00
ENDCHAR
STARTCHAR uni03DB
ENCODING 987
SWIDTH 600 0
DWIDTH 14 0
BBX 11 17 2 -5
BITMAP
01BFF4
0BFFF4
2F4000
7C0000
B40000
B40000
B40000
B40000
7D0000
2F9000
0BFE40
01BFD0
0006F0
0000F0
0000E0
0001D0
000280
ENDCHAR
STARTCHAR uni03DD
ENCODING 989
SWIDTH 600 0
DWIDTH 14 0
BBX 10 17 3 -5
BITMAP
BFFFE0
BFFFE0
B40000
B40000
B40000
B40000
B95540
BFFF80
B95500
B40000
B40000
B40000
B40000
B40000
B40000
B40000
B40000
ENDCHAR
STARTCHAR uni03E1
ENCODING 993
SWIDTH 600 0
DWIDTH 14 0
BBX 12 21 1 -4
BITMAP
060000
0FC000
02F000
00BC00
002E00
000B40
0003C0
000BE0
00BFF0
1BF4B4
7E4078
24007C
0006FD
007FAD
07F81D
03801E
00001E
00001E
00001E
00002D
00002D
ENDCHAR
STARTCHAR uni0400
ENCODING 1024
SWIDTH 600 0
DWIDTH 14 0
BBX 11 21 2 0
BITMAP
018000
02E000
007800
001800
000000
7FFFF4
7FFFF4
780000
780000
780000
780000
7FFFD0
7FFFD0
780000
780000
780000
780000
780000
780000
7FFFF8
7FFFF8
ENDCHAR
STARTCHAR uni0401
ENCODING 1025
SWIDTH 600 0
DWIDTH 14 0
BBX 11 19 2 0
BITMAP
0782D0
0782D0
000000
7FFFF4
7FFFF4
780000
780000
780000
780000
7FFFD0
7FFFD0
780000
780000
780000
780000
780000
780000
7FFFF8
7FFFF8
ENDCHAR
STARTCHAR uni0402
ENCODING 1026
SWIDTH 600 0
DWIDTH 14 0
BBX 14 16 0 0
BITMAP
FFFFFD00
FFFFFD00
00F40000
00F40000
00F40000
00F40000
00FFF900
00FFFF80
00F40BD0
00F402E0
00F401E0
00F400E0
00F401E0
00F407D0
00F47FC0
00F47E00
ENDCHAR
STARTCHAR uni0403
ENCODING 1027
SWIDTH 600 0
DWIDTH 14 0
BBX 10 21 3 0
BITMAP
002400
00B800
02E000
024000
000000
BFFFF0
BFFFF0
B40000
B40000
B40000
B40000
B40000
B40000
B40000
B40000
B40000
B40000
B40000
B40000
B40000
B40000
ENDCHAR
STARTCHAR uni0404
ENCODING 1028
SWIDTH 600 0
DWIDTH 14 0
BBX 12 16 1 0
BITMAP
006FE0
02FFFD
0B901E
1E0004
3C0000
380000
7FFFD0
7FFFD0
780000
780000
3C0000
3D0000
1F0005
0BD01F
02FFFD
006FE0
ENDCHAR
STARTCHAR uni0405
ENCODING 1029
SWIDTH 600 0
DWIDTH 14 0
BBX 11 16 2 0
BITMAP
06FE40
2FFFE0
7D01F0
B80010
B40000
7D0000
2F9000
07FD00
006FD0
0006F4
0000B8
00007C
900078
F901F4
7FFFE0
06FE40
ENDCHAR
STARTCHAR uni0406
ENCODING 1030
SWIDTH 600 0
DWIDTH 14 0
BBX 10 16 2 0
BITMAP
BFFFF0
BFFFF0
00B400
00B400
00B400
00B400
00B400
00B400
00B400
00B400
00B400
00B400
00B400
00B400
BFFFF0
BFFFF0
ENDCHAR
STARTCHAR uni0407
ENCODING 1031
SWIDTH 600 0
DWIDTH 14 0
BBX 10 19 2 0
BITMAP
0F0B40
0F0B40
000000
BFFFF0
BFFFF0
00B400
00B400
00B400
00B400
00B400
00B400
00B400
00B400
00B400
00B400
00B400
00B400
BFFFF0
BFFFF0
ENDCHAR
STARTCHAR uni0408
ENCODING 1032
SWIDTH 600 0
DWIDTH 14 0
BBX 10 16 2 0
BITMAP
2FFFE0
2FFFE0
0000E0
0000E0
0000E0
0000E0
0000E0
0000E0
0000E0
0000E0
0001E0
0001E0
6002E0
B90BD0
3FFF80
07F900
ENDCHAR
STARTCHAR uni0409
ENCODING 1033
SWIDTH 600 0
DWIDTH 14 0
BBX 14 16 0 0
BITMAP
03FF8000
07FF8000
07478000
07478000
07478000
07478000
0B47F900
0B07FF80
0B0787D0
0F0781E0
0F0780E0
0E0780E0
1E0781E0
2D0787D0
FC07FF80
F407F900
ENDCHAR
STARTCHAR uni040A
ENCODING 1034
SWIDTH 600 0
DWIDTH 14 0
BBX 13 16 1 0
BITMAP
E02D0000
E02D0000
E02D0000
E02D0000
E02D0000
E02D0000
FFFFE400
FFFFFE00
E02D1F40
E02D0780
E02D0380
E02D0380
E02D0780
E02D1F40
E02FFE00
E02FE400
ENDCHAR
STARTCHAR uni040B
ENCODING 1035
SWIDTH 600 0
DWIDTH 14 0
BBX 14 16 0 0
BITMAP
FFFFFD00
FFFFFD00
00F00000
00F00000
00F00000
00F00000
00FFF900
00FFFF80
00F40BD0
00F002D0
00F001E0
00F001E0
00F001E0
00F001E0
00F001E0
00F001E0
ENDCHAR
STARTCHAR uni040C
ENCODING 1036
SWIDTH 600 0
DWIDTH 14 0
BBX 12 21 2 0
BITMAP
000600
001F40
007800
00A000
000000
B4002D
B400FD
B402E0
B403C0
B40B40
B41E00
B42D00
BFF800
BFFC00
B42E00
B40F40
B407C0
B402E0
B400F4
B4007C
B4002E
ENDCHAR
STARTCHAR uni040D
ENCODING 1037
SWIDTH 600 0
DWIDTH 14 0
BBX 11 21 2 0
BITMAP
020000
07D000
01F400
002400
000000
E000F8
E001F8
E003F8
E00BB8
E00F78
E02E78
E03C78
E0B878
E0F078
E2D078
E3C078
EB4078
EF0078
FD0078
FC0078
F40078
ENDCHAR
STARTCHAR uni040E
ENCODING 1038
SWIDTH 600 0
DWIDTH 14 0
BBX 12 20 1 0
BITMAP
0780E0
03D1D0
00BF40
000000
B4000F
7C001E
2D002D
1E003C
0F0078
0780B0
03C1E0
02D2D0
00E3C0
00B780
007F00
002E00
002D00
007C00
0FF400
0F9000
ENDCHAR
STARTCHAR uni040F
ENCODING 1039
SWIDTH 600 0
DWIDTH 14 0
BBX 12 21 1 -5
BITMAP
78001E
78001E
78001E
78001E
78001E
78001E
78001E
78001E
78001E
78001E
78001E
78001E
78001E
78001E
7FFFFE
7FFFFE
002D00
002D00
002C00
002C00
002C00
ENDCHAR
STARTCHAR uni0410
ENCODING 1040
SWIDTH 600 0
DWIDTH 14 0
BBX 13 16 1 0
BITMAP
003D0000
007E0000
00BB0000
00E74000
01D38000
02C2C000
0381D000
0740E000
0B00B000
0FFFF400
1FFFF800
2C002C00
3C002D00
78001E00
B4000F00
F0000B40
ENDCHAR
STARTCHAR uni0411
ENCODING 1041
SWIDTH 600 0
DWIDTH 14 0
BBX 11 16 2 0
BITMAP
BFFFF0
BFFFF0
B40000
B40000
B40000
B40000
BFFE40
BFFFE0
B401F8
B4007C
B4003C
B4003C
B4007C
B401F8
BFFFE0
BFFE40
ENDCHAR
STARTCHAR uni0412
ENCODING 1042
SWIDTH 600 0
DWIDTH 14 0
BBX 11 16 2 0
BITMAP
BFFE40
BFFFD0
B406F0
B400F4
B400F0
B406E0
BFFF40
BFFF90
B401F4
B4007C
B4003C
B4003C
B4007C
B406F4
BFFFE0
BFFE40
ENDCHAR
STARTCHAR uni0413
ENCODING 1043
SWIDTH 600 0
DWIDTH 14 0
BBX 10 16 3 0
BITMAP
BFFFF0
BFFFF0
B40000
B40000
B40000
B40000
B40000
B40000
B40000
B40000
B40000
B40000
B40000
B40000
B40000
B40000
ENDCHAR
STARTCHAR uni0414
ENCODING 1044
SWIDTH 600 0
DWIDTH 14 0
BBX 14 21 0 -5
BITMAP
007FFF00
00BFFF00
00B00F00
00F00F00
00E00F00
01E00F00
01D00F00
02D00F00
02C00F00
03C00F00
07800F00
07400F00
0B000F00
1E000F00
7FFFFFF0
7FFFFFF0
780000E0
780000E0
780000E0
780000E0
780000E0
ENDCHAR
STARTCHAR uni0415
ENCODING 1045
SWIDTH 600 0
DWIDTH 14 0
BBX 11 16 2 0
BITMAP
7FFFF4
7FFFF4
780000
780000
780000
780000
7FFFD0
7FFFD0
780000
780000
780000
780000
780000
780000
7FFFF8
7FFFF8
ENDCHAR
STARTCHAR uni0416
ENCODING 1046
SWIDTH 600 0
DWIDTH 14 0
BBX 15 16 0 0
BITMAP
F40B01F4
BD0B03F0
1E0B0780
0B0B0B40
074B0F00
078B1E00
03CB1D00
02FFFC00
03FFFD00
078B1E00
0B4B0F00
0F0B0B80
2E0B03C0
3C0B02D0
780B01E0
B40B00F0
ENDCHAR
STARTCHAR uni0417
ENCODING 1047
SWIDTH 600 0
DWIDTH 14 0
BBX 12 16 1 0
BITMAP
01BE90
1FFFF4
2E41BC
04003C
00003C
0001B8
00FFD0
00FFE4
0001BD
00001E
00000F
00000F
24002E
7E41BD
1FFFF4
01BF90
ENDCHAR
STARTCHAR uni0418
ENCODING 1048
SWIDTH 600 0
DWIDTH 14 0
BBX 11 16 2 0
BITMAP
E000F8
E001F8
E003F8
E00BB8
E00F78
E02E78
E03C78
E0B878
E0F078
E2D078
E3C078
EB4078
EF0078
FD0078
FC0078
F40078
ENDCHAR
STARTCHAR uni0419
ENCODING 1049
SWIDTH 600 0
DWIDTH 14 0
BBX 11 20 2 0
BITMAP
1E0380
0F4740
02FD00
000000
E000F8
E001F8
E003F8
E00BB8
E00F78
E02E78
E03C78
E0B878
E0F078
E2D078
E3C078
EB4078
EF0078
FD0078
FC0078
F40078
ENDCHAR
STARTCHAR uni041A
ENCODING 1050
SWIDTH 600 0
DWIDTH 14 0
BBX 12 16 2 0
BITMAP
B4002D
B400FD
B402E0
B403C0
B40B40
B41E00
B42D00
BFF800
BFFC00
B42E00
B40F40
B407C0
B402E0
B400F4
B4007C
B4002E
ENDCHAR
STARTCHAR uni041B
ENCODING 1051
SWIDTH 600 0
DWIDTH 14 0
BBX 13 16 0 0
BITMAP
003FFF80
007FFF80
00740B80
00B40B80
00B00B80
00F00B80
01E00B80
01E00B80
02D00B80
02D00B80
03C00B80
07800B80
07800B80
0F400B80
BE000B80
B8000B80
ENDCHAR
STARTCHAR uni041C
ENCODING 1052
SWIDTH 600 0
DWIDTH 14 0
BBX 12 16 1 0
BITMAP
7D003E
7E007E
7F00BE
7B40EE
7B81DE
7AC2DE
79D39E
78E75E
78B71E
787E1E
783D1E
78281E
78001E
78001E
78001E
78001E
ENDCHAR
STARTCHAR uni041D
ENCODING 1053
SWIDTH 600 0
DWIDTH 14 0
BBX 11 16 2 0
BITMAP
F000B8
F000B8
F000B8
F000B8
F000B8
F000B8
FFFFF8
FFFFF8
F000B8
F000B8
F000B8
F000B8
F000B8
F000B8
F000B8
F000B8
ENDCHAR
STARTCHAR uni041E
ENCODING 1054
SWIDTH 600 0
DWIDTH 14 0
BBX 13 16 1 0
BITMAP
01BE4000
0BFFF000
1F41F800
3D003D00
7C001E00
B8000F00
B4000F00
B4000F40
B4000F40
B4000F00
B8000F00
7C001E00
3D003D00
1F41F800
0BFFE000
01BE4000
ENDCHAR
STARTCHAR uni041F
ENCODING 1055
SWIDTH 600 0
DWIDTH 14 0
BBX 11 16 2 0
BITMAP
FFFFF8
FFFFF8
F000B8
F000B8
F000B8
F000B8
F000B8
F000B8
F000B8
F000B8
F000B8
F000B8
F000B8
F000B8
F000B8
F000B8
ENDCHAR
STARTCHAR uni0420
ENCODING 1056
SWIDTH 600 0
DWIDTH 14 0
BBX 11 16 2 0
BITMAP
BFFE40
BFFFE0
B401F8
B4007C
B4003C
B4003C
B40078
B401F4
BFFFE0
BFFE40
B40000
B40000
B40000
B40000
B40000
B40000
ENDCHAR
STARTCHAR uni0421
ENCODING 1057
SWIDTH 600 0
DWIDTH 14 0
BBX 12 16 1 0
BITMAP
006FE0
02FFFD
0BD02E
1F4004
3D0000
3C0000
780000
780000
780000
780000
3C0000
3D0000
1F4005
0BD01F
02FFFD
006FE0
ENDCHAR
STARTCHAR uni0422
ENCODING 1058
SWIDTH 600 0
DWIDTH 14 0
BBX 13 16 1 0
BITMAP
FFFFFF40
FFFFFF40
002D0000
002D0000
002D0000
002D0000
002D0000
002D0000
002D0000
002D0000
002D0000
002D0000
002D0000
002D0000
002D0000
002D0000
ENDCHAR
STARTCHAR uni0423
ENCODING 1059
SWIDTH 600 0
DWIDTH 14 0
BBX 12 16 1 0
BITMAP
B4000F
7C001E
2D002D
1E003C
0F0078
0780B0
03C1E0
02D2D0
00E3C0
00B780
007F00
002E00
002D00
007C00
0FF400
0F9000
ENDCHAR
STARTCHAR uni0424
ENCODING 1060
SWIDTH 600 0
DWIDTH 14 0
BBX 14 16 0 0
BITMAP
000B0000
000B0000
01BFE400
0BFFFF00
2F5B5BC0
3D0B03D0
780B01E0
780B01E0
780B01E0
780B01E0
3D0B03D0
1F9B5FC0
0BFFFF00
01BFE400
000B0000
000B0000
ENDCHAR
STARTCHAR uni0425
ENCODING 1061
SWIDTH 600 0
DWIDTH 14 0
BBX 12 16 1 0
BITMAP
3C002E
2E003C
0F40B4
0781E0
02D2D0
01E780
00BF00
007E00
007E00
00FB40
02D3C0
03C2E0
0B40F0
1E0078
3D003D
78001E
ENDCHAR
STARTCHAR uni0426
ENCODING 1062
SWIDTH 600 0
DWIDTH 14 0
BBX 12 21 2 -5
BITMAP
F000B4
F000B4
F000B4
F000B4
F000B4
F000B4
F000B4
F000B4
F000B4
F000B4
F000B4
F000B4
F000B4
F000B4
FFFFFF
FFFFFF
00000B
00000B
00000B
00000B
00000B
ENDCHAR
STARTCHAR uni0427
ENCODING 1063
SWIDTH 600 0
DWIDTH 14 0
BBX 12 16 1 0
BITMAP
78002D
78002D
78002D
78002D
78002D
7C002D
3E402D
1FFFFD
02FFFD
00002D
00002D
00002D
00002D
00002D
00002D
00002D
ENDCHAR
STARTCHAR uni0428
ENCODING 1064
SWIDTH 600 0
DWIDTH 14 0
BBX 13 16 1 0
BITMAP
E02C0740
E02C0740
E02C0740
E02C0740
E02C0740
E02C0740
E02C0740
E02C0740
E02C0740
E02C0740
E02C0740
E02C0740
E02C0740
E02C0740
FFFFFF40
FFFFFF40
ENDCHAR
STARTCHAR uni0429
ENCODING 1065
SWIDTH 600 0
DWIDTH 14 0
BBX 14 21 1 -5
BITMAP
E0380E00
E0380E00
E0380E00
E0380E00
E0380E00
E0380E00
E0380E00
E0380E00
E0380E00
E0380E00
E0380E00
E0380E00
E0380E00
E0380E00
FFFFFFD0
FFFFFFD0
000002C0
000002C0
000002C0
000002C0
000002C0
ENDCHAR
STARTCHAR uni042A
ENCODING 1066
SWIDTH 600 0
DWIDTH 14 0
BBX 14 16 0 0
BITMAP
BFFC0000
BFFC0000
007C0000
007C0000
007C0000
007C0000
007FF900
007FFF40
007C1BD0
007C02E0
007C01E0
007C01E0
007C02E0
007C1BD0
007FFF40
007FF900
ENDCHAR
STARTCHAR uni042B
ENCODING 1067
SWIDTH 600 0
DWIDTH 14 0
BBX 12 16 1 0
BITMAP
B0000B
B0000B
B0000B
B0000B
B0000B
B0000B
BFE00B
BFFD0B
B06E0B
B00B0B
B00B4B
B00B4B
B00F0B
B06E0B
BFFC0B
BFE00B
ENDCHAR
STARTCHAR uni042C
ENCODING 1068
SWIDTH 600 0
DWIDTH 14 0
BBX 11 16 2 0
BITMAP
B40000
B40000
B40000
B40000
B40000
B40000
BFFE40
BFFFE0
B401F8
B4007C
B4003C
B4003C
B4007C
B401F4
BFFFE0
BFFE40
ENDCHAR
STARTCHAR uni042D
ENCODING 1069
SWIDTH 600 0
DWIDTH 14 0
BBX 12 16 1 0
BITMAP
06FE00
2FFFD0
7902F4
10007C
00002D
00001E
02FFFE
02FFFE
00001E
00001E
00002E
00003D
1000BC
B906F4
2FFFD0
06FE00
ENDCHAR
STARTCHAR uni042E
ENCODING 1070
SWIDTH 600 0
DWIDTH 14 0
BBX 13 16 1 0
BITMAP
F00BE000
F02FFC00
F07C2E00
F0B40F00
F0F00B40
F0F00B40
FFE00B40
FFE00B80
F0E00B80
F0E00B40
F0F00B40
F0B00F40
F0B40F00
F07C2E00
F02FFC00
F00BE000
ENDCHAR
STARTCHAR uni042F
ENCODING 1071
SWIDTH 600 0
DWIDTH 14 0
BBX 11 16 1 0
BITMAP
06BFFC
1FFFFC
3E403C
78003C
78003C
7C003C
3E403C
1FFFFC
01FFFC
01E03C
03D03C
0B803C
1F003C
2D003C
7C003C
F4003C
ENDCHAR
STARTCHAR uni0430
ENCODING 1072
SWIDTH 600 0
DWIDTH 14 0
BBX 11 12 2 0
BITMAP
06FE40
2FFFD0
7902F0
1000B4
006BF4
1BFFF4
7E94B4
F400B4
F000B4
F807F4
7FFEB4
1BE474
ENDCHAR
STARTCHAR uni0431
ENCODING 1073
SWIDTH 600 0
DWIDTH 14 0
BBX 12 17 1 0
BITMAP
000168
006FFC
02FFA4
0B9000
1E0000
2D0000
3C6F90
3EFFF4
3F41BC
7C002E
78001E
38001E
3C001E
2D003D
0F80BC
07FFF4
01BF80
ENDCHAR
STARTCHAR uni0432
ENCODING 1074
SWIDTH 600 0
DWIDTH 14 0
BBX 11 12 2 0
BITMAP
BFFE80
BFFFF0
B401F4
B400B4
B401F0
BFFF90
BFFFE0
B401B8
B4003C
B400B8
BFFFF4
BFFF90
ENDCHAR
STARTCHAR uni0433
ENCODING 1075
SWIDTH 600 0
DWIDTH 14 0
BBX 10 12 3 0
BITMAP
BFFFE0
BFFFE0
B40000
B40000
B40000
B40000
B40000
B40000
B40000
B40000
B40000
B40000
ENDCHAR
STARTCHAR uni0434
ENCODING 1076
SWIDTH 600 0
DWIDTH 14 0
BBX 13 17 1 -5
BITMAP
07FFF800
07FFF800
07407800
0B407800
0B007800
0F007800
0E007800
1E007800
1D007800
3C007800
FFFFFF40
FFFFFF40
F0000B40
F0000B40
F0000B40
F0000B40
B0000B40
ENDCHAR
STARTCHAR uni0435
ENCODING 1077
SWIDTH 600 0
DWIDTH 14 0
BBX 12 12 1 0
BITMAP
01BF90
07FFF4
1F907C
3D001E
7C000E
7FFFFF
7FFFFF
780000
3D0000
1F902C
07FFF8
00BF90
ENDCHAR
STARTCHAR uni0436
ENCODING 1078
SWIDTH 600 0
DWIDTH 14 0
BBX 14 12 0 0
BITMAP
B80B01B0
BD0B03F0
1F0B0B80
0B4B0F00
038B1E00
02FFFD00
03FFFE00
0B4B0F00
0F0B0B80
2D0B03C0
3C0B02E0
B40B00F0
ENDCHAR
STARTCHAR uni0437
ENCODING 1079
SWIDTH 600 0
DWIDTH 14 0
BBX 12 12 1 0
BITMAP
06FE80
2FFFF4
3901B8
000078
0001B4
01FFD0
01FFE4
00007C
10002D
7901BC
2FFFF8
06FE90
ENDCHAR
STARTCHAR uni0438
ENCODING 1080
SWIDTH 600 0
DWIDTH 14 0
BBX 10 12 2 0
BITMAP
B401F0
B402F0
B407F0
B40EB0
B42CF0
B474F0
B4E0F0
B6C0F0
B740F0
BE00F0
BD00F0
B800F0
ENDCHAR
STARTCHAR uni0439
ENCODING 1081
SWIDTH 600 0
DWIDTH 14 0
BBX 10 17 2 0
BITMAP
1D02C0
0B4780
02FE00
000000
000000
B401F0
B402F0
B407F0
B40EB0
B42CF0
B474F0
B4E0F0
B6C0F0
B740F0
BE00F0
BD00F0
B800F0
ENDCHAR
STARTCHAR uni043A
ENCODING 1082
SWIDTH 600 0
DWIDTH 14 0
BBX 11 12 2 0
BITMAP
780078
7801F8
7803D0
780780
780F00
7FFD00
7FFE00
780F40
7807C0
7802E0
7800B4
78003C
ENDCHAR
STARTCHAR uni043B
ENCODING 1083
SWIDTH 600 0
DWIDTH 14 0
BBX 12 12 0 0
BITMAP
00FFFF
00FFFF
01E00F
01D00F
01D00F
02D00F
02C00F
03C00F
03800F
0B800F
3F000F
7D000F
ENDCHAR
STARTCHAR uni043C
ENCODING 1084
SWIDTH 600 0
DWIDTH 14 0
BBX 12 12 1 0
BITMAP
7C002F
7E003F
7F007F
7B40EF
7781DF
76C2CF
75D38F
74E74F
747F0F
743D0F
742C0F
74000F
ENDCHAR
STARTCHAR uni043D
ENCODING 1085
SWIDTH 600 0
DWIDTH 14 0
BBX 11 12 2 0
BITMAP
B400B4
B400B4
B400B4
B400B4
B400B4
BFFFF4
BFFFF4
B400B4
B400B4
B400B4
B400B4
B400B4
ENDCHAR
STARTCHAR uni043E
ENCODING 1086
SWIDTH 600 0
DWIDTH 14 0
BBX 12 12 1 0
BITMAP
01BF80
0BFFF4
2F41BC
3D003D
78001E
B8000F
B8000F
78001E
3D003D
2F41BC
0BFFF4
01BF80
ENDCHAR
STARTCHAR uni043F
ENCODING 1087
SWIDTH 600 0
DWIDTH 14 0
BBX 11 12 2 0
BITMAP
BFFFF4
BFFFF4
B400B4
B400B4
B400B4
B400B4
B400B4
B400B4
B400B4
B400B4
B400B4
B400B4
ENDCHAR
STARTCHAR uni0440
ENCODING 1088
SWIDTH 600 0
DWIDTH 14 0
BBX 11 17 2 -5
BITMAP
B1BE40
BBFFE0
BE42F4
B800B8
B4007C
B4003C
B4003C
B40078
B400B4
BE06F0
BBFFD0
B1BE00
B40000
B40000
B40000
B40000
B40000
ENDCHAR
STARTCHAR uni0441
ENCODING 1089
SWIDTH 600 0
DWIDTH 14 0
BBX 11 12 2 0
BITMAP
01BF80
0FFFF4
3F40B4
BC0000
F40000
F00000
F00000
F40000
BC0000
3F4078
1FFFF4
01BF80
ENDCHAR
STARTCHAR uni0442
ENCODING 1090
SWIDTH 600 0
DWIDTH 14 0
BBX 12 12 1 0
BITMAP
7FFFFE
7FFFFE
002D00
002D00
002D00
002D00
002D00
002D00
002D00
002D00
002D00
002D00
ENDCHAR
STARTCHAR uni0443
ENCODING 1091
SWIDTH 600 0
DWIDTH 14 0
BBX 12 17 1 -5
BITMAP
B4000F
38001E
2D002D
1E0038
0B0074
0780B0
03C0E0
01D2D0
00E380
00B740
003F00
002E00
002D00
007800
01F400
3FE000
7E4000
ENDCHAR
STARTCHAR uni0444
ENCODING 1092
SWIDTH 600 0
DWIDTH 14 0
BBX 14 22 0 -5
BITMAP
000B0000
000B0000
000B0000
000B0000
000B0000
06EB7E00
0FFFFF80
2E1F87C0
3C0B02D0
3C0B01E0
780B01E0
780B01E0
3C0B01D0
3C0B02D0
2E0F47C0
1FFFFF40
07EFBD00
000B0000
000B0000
000B0000
000B0000
000B0000
ENDCHAR
STARTCHAR uni0445
ENCODING 1093
SWIDTH 600 0
DWIDTH 14 0
BBX 11 12 2 0
BITMAP
B400F4
3C02D0
1E0780
0B4F00
03ED00
01F800
02F800
07AE00
0F0F40
2D07C0
7801E0
F000B4
ENDCHAR
STARTCHAR uni0446
ENCODING 1094
SWIDTH 600 0
DWIDTH 14 0
BBX 12 17 2 -5
BITMAP
B400F0
B400F0
B400F0
B400F0
B400F0
B400F0
B400F0
B400F0
B400F0
B400F0
BFFFFE
BFFFFE
00001E
00001E
00001E
00001D
00001D
ENDCHAR
STARTCHAR uni0447
ENCODING 1095
SWIDTH 600 0
DWIDTH 14 0
BBX 10 12 2 0
BITMAP
F001E0
F001E0
F001E0
F401E0
BD01E0
3FFFE0
0BFFE0
0001E0
0001E0
0001E0
0001E0
0001E0
ENDCHAR
STARTCHAR uni0448
ENCODING 1096
SWIDTH 600 0
DWIDTH 14 0
BBX 12 12 1 0
BITMAP
B42C0F
B42C0F
B42C0F
B42C0F
B42C0F
B42C0F
B42C0F
B42C0F
B42C0F
B42C0F
BFFFFF
BFFFFF
ENDCHAR
STARTCHAR uni0449
ENCODING 1097
SWIDTH 600 0
DWIDTH 14 0
BBX 14 17 1 -5
BITMAP
B42C0E00
B42C0E00
B42C0E00
B42C0E00
B42C0E00
B42C0E00
B42C0E00
B42C0E00
B42C0E00
B42C0E00
BFFFFFD0
BFFFFFD0
000002D0
000002D0
000002C0
000002C0
000002C0
ENDCHAR
STARTCHAR uni044A
ENCODING 1098
SWIDTH 600 0
DWIDTH 14 0
BBX 13 12 1 0
BITMAP
FFE00000
FFE00000
01E00000
01E00000
01FFE400
01FFFD00
01E02F00
01E00B40
01E00B40
01E02F00
01FFFD00
01FFE400
ENDCHAR
STARTCHAR uni044B
ENCODING 1099
SWIDTH 600 0
DWIDTH 14 0
BBX 12 12 1 0
BITMAP
74000E
74000E
74000E
74000E
7FE40E
7FFE0E
741F4E
74074E
74074E
741F4E
7FFE0E
7FE40E
ENDCHAR
STARTCHAR uni044C
ENCODING 1100
SWIDTH 600 0
DWIDTH 14 0
BBX 10 12 3 0
BITMAP
F00000
F00000
F00000
F00000
FFF900
FFFF80
F007D0
F002D0
F002D0
F007D0
FFFF80
FFF900
ENDCHAR
STARTCHAR uni044D
ENCODING 1101
SWIDTH 600 0
DWIDTH 14 0
BBX 12 12 1 0
BITMAP
06FE40
2FFFE0
3906F4
00007C
00002D
01FFFD
01FFFD
00002D
00003C
7901F8
2FFFE0
06FE40
ENDCHAR
STARTCHAR uni044E
ENCODING 1102
SWIDTH 600 0
DWIDTH 14 0
BBX 13 12 1 0
BITMAP
F00BE400
F02FFD00
F0792F00
F0B00F40
F0F00B40
FFE00B40
FFE00B80
F0F00B40
F0B00F40
F0792F00
F03FFD00
F00BE400
ENDCHAR
STARTCHAR uni044F
ENCODING 1103
SWIDTH 600 0
DWIDTH 14 0
BBX 11 12 1 0
BITMAP
06FFFC
2FFFFC
3D003C
3C003C
3D003C
1FFFFC
06FFFC
02E03C
07C03C
0F403C
2E003C
7C003C
ENDCHAR
STARTCHAR uni0450
ENCODING 1104
SWIDTH 600 0
DWIDTH 14 0
BBX 12 19 1 0
BITMAP
009000
01F000
007800
001E00
000600
000000
000000
01BF90
07FFF4
1F907C
3D001E
7C000E
7FFFFF
7FFFFF
780000
3D0000
1F902C
07FFF8
00BF90
ENDCHAR
STARTCHAR uni0451
ENCODING 1105
SWIDTH 600 0
DWIDTH 14 0
BBX 12 17 1 0
BITMAP
02D0E0
03E1F4
02D0E0
000000
000000
01BF90
07FFF4
1F907C
3D001E
7C000E
7FFFFF
7FFFFF
780000
3D0000
1F902C
07FFF8
00BF90
ENDCHAR
STARTCHAR uni0452
ENCODING 1106
SWIDTH 600 0
DWIDTH 14 0
BBX 13 22 0 -5
BITMAP
0B400000
0B400000
7FFFD000
BFFFD000
0B400000
0B400000
0B0BE400
0B7FFD00
0BE42F00
0B800B40
0B400780
0B400780
0B4003C0
0B4003C0
0B4003C0
0B400780
0B400780
00000B80
00000F40
00002F00
0007FD00
0007E400
ENDCHAR
STARTCHAR uni0453
ENCODING 1107
SWIDTH 600 0
DWIDTH 14 0
BBX 10 19 3 0
BITMAP
000600
000F40
002D00
00B400
009000
000000
000000
BFFFE0
BFFFE0
B40000
B40000
B40000
B40000
B40000
B40000
B40000
B40000
B40000
B40000
ENDCHAR
STARTCHAR uni0454
ENCODING 1108
SWIDTH 600 0
DWIDTH 14 0
BBX 11 12 2 0
BITMAP
01BF80
1FFFF4
3E4074
B80000
F00000
FFFF40
FFFF40
F00000
B40000
3E4078
1FFFF4
02BF80
ENDCHAR
STARTCHAR uni0455
ENCODING 1109
SWIDTH 600 0
DWIDTH 14 0
BBX 11 12 2 0
BITMAP
06FE00
3FFFD0
7D01E0
B80000
7E4000
1FFA00
016FE0
0001B4
400078
F901F4
7FFFE0
06FE40
ENDCHAR
STARTCHAR uni0456
ENCODING 1110
SWIDTH 600 0
DWIDTH 14 0
BBX 8 17 2 0
BITMAP
002D
007F
002D
0000
0000
FFFE
FFFE
001E
001E
001E
001E
001E
001E
001E
001E
001E
001E
ENDCHAR
STARTCHAR uni0457
ENCODING 1111
SWIDTH 600 0
DWIDTH 14 0
BBX 10 17 2 0
BITMAP
02C1E0
07D2F0
02C1E0
000000
000000
FFFE00
FFFE00
001E00
001E00
001E00
001E00
001E00
001E00
001E00
001E00
001E00
001E00
ENDCHAR
STARTCHAR uni0458
ENCODING 1112
SWIDTH 600 0
DWIDTH 14 0
BBX 9 22 1 -5
BITMAP
000B40
001FC0
000B40
000000
000000
3FFF80
3FFF80
000780
000780
000780
000780
000780
000780
000780
000780
000780
000780
000740
000B40
101F00
7FFE00
2FE400
ENDCHAR
STARTCHAR uni0459
ENCODING 1113
SWIDTH 600 0
DWIDTH 14 0
BBX 14 12 0 0
BITMAP
07FF8000
07FF8000
07478000
07478000
0B47F900
0B07FF80
0B0787C0
0F0782D0
0E0782D0
2E0787C0
FD07FF80
F407F900
ENDCHAR
STARTCHAR uni045A
ENCODING 1114
SWIDTH 600 0
DWIDTH 14 0
BBX 13 12 1 0
BITMAP
B42D0000
B42D0000
B42D0000
B42D0000
BAAFE400
BFFFFE00
BABD1F00
B42D0B40
B42D0B40
B42D1F00
B42FFE00
B42FE400
ENDCHAR
STARTCHAR uni045B
ENCODING 1115
SWIDTH 600 0
DWIDTH 14 0
BBX 13 17 0 0
BITMAP
0B400000
0B400000
7FFFD000
BFFFD000
0B400000
0B400000
0B0BF800
0B7FFE00
0BF41F40
0B800B40
0B400780
0B400780
0B400780
0B400780
0B400780
0B400780
0B400780
ENDCHAR
STARTCHAR uni045C
ENCODING 1116
SWIDTH 600 0
DWIDTH 14 0
BBX 11 19 2 0
BITMAP
000240
000B80
002E00
007800
006000
000000
000000
780078
7801F8
7803D0
780780
780F00
7FFD00
7FFE00
780F40
7807C0
7802E0
7800B4
78003C
ENDCHAR
STARTCHAR uni045D
ENCODING 1117
SWIDTH 600 0
DWIDTH 14 0
BBX 10 19 2 0
BITMAP
020000
0B8000
02E000
00B800
002400
000000
000000
B401F0
B402F0
B407F0
B40EB0
B42CF0
B474F0
B4E0F0
B6C0F0
B740F0
BE00F0
BD00F0
B800F0
ENDCHAR
STARTCHAR uni045E
ENCODING 1118
SWIDTH 600 0
DWIDTH 14 0
BBX 12 22 1 -5
BITMAP
0740B0
0381E0
00BF40
000000
000000
B4000F
38001E
2D002D
1E0038
0B0074
0780B0
03C0E0
01D2D0
00E380
00B740
003F00
002E00
002D00
007800
01F400
3FE000
7E4000
ENDCHAR
STARTCHAR uni045F
ENCODING 1119
SWIDTH 600 0
DWIDTH 14 0
BBX 10 17 2 -5
BITMAP
B400F0
B400F0
B400F0
B400F0
B400F0
B400F0
B400F0
B400F0
B400F0
B400F0
BFFFF0
BFFFF0
00BAA0
00B400
00B000
00B000
00B000
ENDCHAR
STARTCHAR uni0462
ENCODING 1122
SWIDTH 600 0
DWIDTH 14 0
BBX 14 17 0 0
BITMAP
00E00000
00E00000
00E00000
7FFFFC00
7FFFFC00
00E00000
00E00000
00E00000
00FFE800
00FFFF40
00E01BC0
00E003C0
00E002D0
00E003C0
00E01B80
00FFFF00
00FFE800
ENDCHAR
STARTCHAR uni0463
ENCODING 1123
SWIDTH 600 0
DWIDTH 14 0
BBX 12 15 1 0
BITMAP
01E000
01E000
01E000
FFFFF0
FFFFF0
01E000
01E000
01FFE4
01FFFD
01E02E
01E00F
01E00F
01E02E
01FFFD
01FFE4
ENDCHAR
STARTCHAR uni0472
ENCODING 1138
SWIDTH 600 0
DWIDTH 14 0
BBX 13 16 1 0
BITMAP
01BF8000
0BFFF000
1F41B800
3C002D00
78001E00
B4000F00
BFFFFF00
BFFFFF40
B4000B40
B4000F00
B8000F00
7C001E00
3D003D00
1F41F800
0BFFF000
01BF8000
ENDCHAR
STARTCHAR uni0473
ENCODING 1139
SWIDTH 600 0
DWIDTH 14 0
BBX 12 12 1 0
BITMAP
01BF80
0BFFF4
2F41BC
3C002D
78000E
BFFFFF
BFFFFF
74000E
3C002E
2E41BC
0BFFF4
01BF80
ENDCHAR
STARTCHAR uni0474
ENCODING 1140
SWIDTH 600 0
DWIDTH 14 0
BBX 14 16 1 0
BITMAP
F40007D0
B4001FC0
78002E00
3C003C00
2D007800
1E00B400
0F00B000
0B40F000
0781E000
0382D000
02C3C000
01D38000
00E74000
00FB0000
00BF0000
007E0000
ENDCHAR
STARTCHAR uni0475
ENCODING 1141
SWIDTH 600 0
DWIDTH 14 0
BBX 12 12 2 0
BITMAP
F0006D
B400FD
7801E0
3C02D0
2D03C0
1E0780
0F0B40
0B4F00
079E00
03ED00
02FC00
01F800
ENDCHAR
STARTCHAR uni0490
ENCODING 1168
SWIDTH 600 0
DWIDTH 14 0
BBX 10 20 3 0
BITMAP
0000E0
0000E0
0000E0
0001E0
BFFFE0
BFFFE0
B40000
B40000
B40000
B40000
B40000
B40000
B40000
B40000
B40000
B40000
B40000
B40000
B40000
B40000
ENDCHAR
STARTCHAR uni0491
ENCODING 1169
SWIDTH 600 0
DWIDTH 14 0
BBX 8 16 4 0
BITMAP
000B
000B
000B
000F
FFFF
FFFF
F000
F000
F000
F000
F000
F000
F000
F000
F000
F000
ENDCHAR
STARTCHAR uni0492
ENCODING 1170
SWIDTH 600 0
DWIDTH 14 0
BBX 12 16 1 0
BITMAP
0BFFFE
0BFFFE
0B4000
0B4000
0B4000
0B4000
0B4000
BFFF40
BFFF40
0B4000
0B4000
0B4000
0B4000
0B4000
0B4000
0B4000
ENDCHAR
STARTCHAR uni0493
ENCODING 1171
SWIDTH 600 0
DWIDTH 14 0
BBX 12 12 1 0
BITMAP
0BFFFE
0BFFFE
0B4000
0B4000
0B4000
7FFF80
7FFF80
0B4000
0B4000
0B4000
0B4000
0B4000
ENDCHAR
STARTCHAR uni0496
ENCODING 1174
SWIDTH 600 0
DWIDTH 14 0
BBX 15 21 0 -5
BITMAP
F40B01F4
BD0B03F0
1E0B0780
0B0B0B40
074B0F00
078B1E00
03CB1D00
02FFFC00
03FFFD00
078B1E00
0B4B0F40
0F0B0B80
2E0B03C0
3C0B02D0
780B01F8
B40B00F8
00000038
00000038
00000038
00000038
00000038
ENDCHAR
STARTCHAR uni0497
ENCODING 1175
SWIDTH 600 0
DWIDTH 14 0
BBX 15 17 0 -5
BITMAP
B80B01B0
BD0B03F0
1F0B0B80
0B4B0F00
038B1E00
02FFFD00
03FFFE00
0B4B0F00
0F0B0B80
2D0B03D0
3C0B02F8
B40B00F8
00000038
00000034
00000034
00000034
00000034
ENDCHAR
STARTCHAR uni0498
ENCODING 1176
SWIDTH 600 0
DWIDTH 14 0
BBX 12 21 1 -5
BITMAP
01BE90
1FFFF4
2E41BC
04003C
00003C
0001B8
00FFD0
00FFE4
0001BD
00001E
00000F
00000F
24002E
7E41BD
1FFFF4
02FF90
002D00
002D00
002D00
002C00
002C00
ENDCHAR
STARTCHAR uni0499
ENCODING 1177
SWIDTH 600 0
DWIDTH 14 0
BBX 12 17 1 -5
BITMAP
06FE80
2FFFF4
3901B8
000078
0001B4
01FFD0
01FFE4
00007C
10002D
7901BC
2FFFF8
06FF90
003C00
003800
003800
003800
003800
ENDCHAR
STARTCHAR uni049A
ENCODING 1178
SWIDTH 600 0
DWIDTH 14 0
BBX 12 21 2 -5
BITMAP
B4002D
B400FD
B402E0
B403C0
B40B40
B41E00
B42D00
BFF800
BFFC00
B42E00
B40F40
B407D0
B402E0
B400F8
B4007F
B4002F
00000B
00000B
00000B
00000B
00000B
ENDCHAR
STARTCHAR uni049B
ENCODING 1179
SWIDTH 600 0
DWIDTH 14 0
BBX 12 17 2 -5
BITMAP
780078
7801F8
7803D0
780B40
795F00
7FFD00
7EAE00
780B80
7803D0
7801F0
7800BE
78003E
00000E
00000E
00000E
00000E
00000E
ENDCHAR
STARTCHAR uni04A0
ENCODING 1184
SWIDTH 600 0
DWIDTH 14 0
BBX 14 16 0 0
BITMAP
BFF801F0
BFF803F0
00380B40
00380E00
00382D00
00383800
00387400
003FF000
003FF400
00387800
00382D00
00381F00
00380B40
003803C0
003801E0
003800B0
ENDCHAR
STARTCHAR uni04A1
ENCODING 1185
SWIDTH 600 0
DWIDTH 14 0
BBX 14 12 0 0
BITMAP
7FF802D0
7FF80BD0
00380E00
00381D00
00383C00
003FF800
003FF800
00382D00
00380E00
00380B40
003803C0
003801E0
ENDCHAR
STARTCHAR uni04A2
ENCODING 1186
SWIDTH 600 0
DWIDTH 14 0
BBX 12 21 2 -5
BITMAP
F000B4
F000B4
F000B4
F000B4
F000B4
F000B4
FFFFF4
FFFFF4
F000B4
F000B4
F000B4
F000B4
F000B4
F000B4
F000BF
F000BF
00000B
00000B
00000B
00000B
00000B
ENDCHAR
STARTCHAR uni04A3
ENCODING 1187
SWIDTH 600 0
DWIDTH 14 0
BBX 12 17 2 -5
BITMAP
B400F0
B400F0
B400F0
B400F0
B400F0
BFFFF0
BFFFF0
B400F0
B400F0
B400F0
B400FE
B400FE
00001E
00001E
00001E
00001D
00001D
ENDCHAR
STARTCHAR uni04AA
ENCODING 1194
SWIDTH 600 0
DWIDTH 14 0
BBX 12 21 1 -5
BITMAP
006FE0
02FFFD
0BD02E
1F4004
2D0000
3C0000
780000
780000
780000
780000
3C0000
3D0000
1F4005
0BD01F
02FFFD
006FE0
000740
000740
000740
000740
000740
ENDCHAR
STARTCHAR uni04AB
ENCODING 1195
SWIDTH 600 0
DWIDTH 14 0
BBX 11 17 2 -5
BITMAP
01BF80
0FFFF4
3F40B4
BC0000
F40000
F00000
F00000
F40000
BC0000
3F4078
1FFFF4
02FF80
002C00
002C00
002C00
002C00
002C00
ENDCHAR
STARTCHAR uni04AE
ENCODING 1198
SWIDTH 600 0
DWIDTH 14 0
BBX 13 16 1 0
BITMAP
B4000B40
78001E00
2D002D00
1E007800
0B40B400
0781E000
02D2C000
01E78000
00BF0000
007E0000
003D0000
002D0000
002D0000
002D0000
002D0000
002D0000
ENDCHAR
STARTCHAR uni04AF
ENCODING 1199
SWIDTH 600 0
DWIDTH 14 0
BBX 12 17 1 -5
BITMAP
B4000F
38001E
2D002C
1E0038
0F00B4
0740F0
0381E0
02D2C0
01E380
00B740
007F00
003D00
002D00
002D00
002D00
002D00
002D00
ENDCHAR
STARTCHAR uni04B0
ENCODING 1200
SWIDTH 600 0
DWIDTH 14 0
BBX 13 16 1 0
BITMAP
B4000B40
78001E00
2D002D00
1E007800
0B40B000
0781E000
02D2C000
01E78000
00BF0000
1FFFFC00
1FFFFC00
002D0000
002D0000
002D0000
002D0000
002D0000
ENDCHAR
STARTCHAR uni04B1
ENCODING 1201
SWIDTH 600 0
DWIDTH 14 0
BBX 12 17 1 -5
BITMAP
B4000F
38001E
2D002C
1E0038
0B00B4
0740E0
0381D0
01D2C0
00E380
00B700
1FFFFC
2FFFFC
002D00
002D00
002D00
002D00
002D00
ENDCHAR
STARTCHAR uni04B2
ENCODING 1202
SWIDTH 600 0
DWIDTH 14 0
BBX 13 21 1 -5
BITMAP
3C002E00
2E003C00
0F40B400
0781F000
03D2D000
01E78000
00BF4000
007E0000
007E0000
00FB4000
02D3C000
03C2E000
0B40F400
1E007800
2D003F80
78001F80
00000740
00000740
00000740
00000740
00000740
ENDCHAR
STARTCHAR uni04B3
ENCODING 1203
SWIDTH 600 0
DWIDTH 14 0
BBX 12 17 2 -5
BITMAP
B400F4
3C02D0
1E0780
0B4F00
03ED00
01F800
02F800
07AE00
0F0F40
2D07D0
7801FD
F000BD
00001D
00001D
00001D
00001D
00001D
ENDCHAR
STARTCHAR uni04B6
ENCODING 1206
SWIDTH 600 0
DWIDTH 14 0
BBX 13 21 1 -5
BITMAP
78002D00
78002D00
78002D00
78002D00
78002D00
7C002D00
3E402D00
1FFFFD00
02FFFD00
00002D00
00002D00
00002D00
00002D00
00002D00
00002FC0
00002FC0
000003C0
000003C0
000003C0
00000380
00000380
ENDCHAR
STARTCHAR uni04B7
ENCODING 1207
SWIDTH 600 0
DWIDTH 14 0
BBX 12 17 2 -5
BITMAP
F001E0
F001E0
F001E0
F401E0
BD01E0
7FFFE0
0BFFE0
0001E0
0001E0
0001E0
0001FD
0001FD
00002D
00002D
00002D
00002D
00002C
ENDCHAR
STARTCHAR uni04BA
ENCODING 1210
SWIDTH 600 0
DWIDTH 14 0
BBX 11 16 2 0
BITMAP
B40000
B40000
B40000
B40000
B40000
B40000
BFFE40
BFFFE0
B406F4
B400B8
B40078
B40078
B40078
B40078
B40078
B40078
ENDCHAR
STARTCHAR uni04BB
ENCODING 1211
SWIDTH 600 0
DWIDTH 14 0
BBX 11 17 2 0
BITMAP
B40000
B40000
B40000
B40000
B40000
B0BF80
B7FFE0
BF41F4
BC00B4
B400B8
B40078
B40078
B40078
B40078
B40078
B40078
B40078
ENDCHAR
STARTCHAR uni04C0
ENCODING 1216
SWIDTH 600 0
DWIDTH 14 0
BBX 10 16 2 0
BITMAP
BFFFF0
BFFFF0
00B400
00B400
00B400
00B400
00B400
00B400
00B400
00B400
00B400
00B400
00B400
00B400
BFFFF0
BFFFF0
ENDCHAR
STARTCHAR uni04C1
ENCODING 1217
SWIDTH 600 0
DWIDTH 14 0
BBX 15 20 0 0
BITMAP
01D03800
00F0B400
002FD000
00000000
F40B01F4
BD0B03F0
1E0B0780
0B0B0B40
074B0F00
078B1E00
03CB1D00
02FFFC00
03FFFD00
078B1E00
0B4B0F00
0F0B0B80
2E0B03C0
3C0B02D0
780B01E0
B40B00F0
ENDCHAR
STARTCHAR uni04C2
ENCODING 1218
SWIDTH 600 0
DWIDTH 14 0
BBX 14 17 0 0
BITMAP
01C02C00
00E07400
006FD000
00000000
00000000
B80B01B0
BD0B03F0
1F0B0B80
0B4B0F00
038B1E00
02FFFD00
03FFFE00
0B4B0F00
0F0B0B80
2D0B03C0
3C0B02E0
B40B00F0
ENDCHAR
STARTCHAR uni04CF
ENCODING 1231
SWIDTH 600 0
DWIDTH 14 0
BBX 12 17 1 0
BITMAP
7FFC00
7FFC00
003C00
003C00
003C00
003C00
003C00
003C00
003C00
003C00
003C00
003C00
003C00
003C00
003E05
001FFE
0006F9
ENDCHAR
STARTCHAR uni04D0
ENCODING 1232
SWIDTH 600 0
DWIDTH 14 0
BBX 13 20 1 0
BITMAP
0740E000
03C2D000
00BF4000
00000000
003D0000
007E0000
00BB0000
00E74000
01D38000
02C2C000
0381D000
0740E000
0B00B000
0FFFF400
1FFFF800
2C002C00
3C002D00
78001E00
B4000F00
F0000B40
ENDCHAR
STARTCHAR uni04D1
ENCODING 1233
SWIDTH 600 0
DWIDTH 14 0
BBX 11 17 2 0
BITMAP
0E01D0
0B42C0
01FE00
000000
000000
06FE40
2FFFD0
7902F0
1000B4
006BF4
1BFFF4
7E94B4
F400B4
F000B4
F807F4
7FFEB4
1BE474
ENDCHAR
STARTCHAR uni04D4
ENCODING 1236
SWIDTH 600 0
DWIDTH 14 0
BBX 15 16 0 0
BITMAP
000FFFF0
001FFFF0
002ED000
003DD000
0075D000
00F1D000
01E1FFC0
02D1FFC0
03C1D000
0781D000
0FFFD000
1FFFD000
2E01D000
3C01D000
7801FFF4
F401FFF4
ENDCHAR
STARTCHAR uni04D5
ENCODING 1237
SWIDTH 600 0
DWIDTH 14 0
BBX 15 12 0 0
BITMAP
0BE46F40
3FFDFFD0
241FD1E0
000B40B0
01BF0074
1BFFFFF4
3E4BFFF4
78070000
B4074000
781FD050
3FF9FFE0
1BD06F80
ENDCHAR
STARTCHAR uni04D6
ENCODING 1238
SWIDTH 600 0
DWIDTH 14 0
BBX 11 20 2 0
BITMAP
0B01D0
0782C0
01BE40
000000
7FFFF4
7FFFF4
780000
780000
780000
780000
7FFFD0
7FFFD0
780000
780000
780000
780000
780000
780000
7FFFF8
7FFFF8
ENDCHAR
STARTCHAR uni04D7
ENCODING 1239
SWIDTH 600 0
DWIDTH 14 0
BBX 12 17 1 0
BITMAP
038074
02D1F0
00BF80
000000
000000
01BF90
07FFF4
1F907C
3D001E
7C000E
7FFFFF
7FFFFF
780000
3D0000
1F902C
07FFF8
00BF90
ENDCHAR
STARTCHAR uni04D8
ENCODING 1240
SWIDTH 600 0
DWIDTH 14 0
BBX 13 16 1 0
BITMAP
01BF8000
07FFF000
0B41B800
00002D00
00001E00
00000F00
00000F00
BFFFFF40
BFFFFF00
74000F00
78000F00
3C001E00
2D003D00
0F41B800
07FFE000
01BE4000
ENDCHAR
STARTCHAR uni04D9
ENCODING 1241
SWIDTH 600 0
DWIDTH 14 0
BBX 12 12 1 0
BITMAP
01BE40
1FFFF4
1D01BC
00002D
00001E
7FFFFF
7FFFFF
78001E
3C002D
2E41BC
0BFFF4
01BF80
ENDCHAR
STARTCHAR uni04E2
ENCODING 1250
SWIDTH 600 0
DWIDTH 14 0
BBX 11 19 2 0
BITMAP
0FFF80
000000
000000
E000F8
E001F8
E003F8
E00BB8
E00F78
E02E78
E03C78
E0B878
E0F078
E2D078
E3C078
EB4078
EF0078
FD0078
FC0078
F40078
ENDCHAR
STARTCHAR uni04E3
ENCODING 1251
SWIDTH 600 0
DWIDTH 14 0
BBX 10 16 2 0
BITMAP
0BFF80
000000
000000
000000
B401F0
B402F0
B407F0
B40EB0
B42CF0
B474F0
B4E0F0
B6C0F0
B740F0
BE00F0
BD00F0
B800F0
ENDCHAR
STARTCHAR uni04E6
ENCODING 1254
SWIDTH 600 0
DWIDTH 14 0
BBX 13 19 1 0
BITMAP
03C2D000
03C2D000
00000000
01BE4000
0BFFF000
1F41F800
3D003D00
7C001E00
B8000F00
B4000F00
B4000F40
B4000F40
B4000F00
B8000F00
7C001E00
3D003D00
1F41F800
0BFFE000
01BE4000
ENDCHAR
STARTCHAR uni04E7
ENCODING 1255
SWIDTH 600 0
DWIDTH 14 0
BBX 12 17 1 0
BITMAP
0381D0
07C2E0
0381D0
000000
000000
01BF80
0BFFF4
2F41BC
3D003D
78001E
B8000F
B8000F
78001E
3D003D
2F41BC
0BFFF4
01BF80
ENDCHAR
STARTCHAR uni04E8
ENCODING 1256
SWIDTH 600 0
DWIDTH 14 0
BBX 13 16 1 0
BITMAP
01BF8000
0BFFF000
1F41B800
3C002D00
78001E00
B4000F00
BFFFFF00
BFFFFF40
B4000B40
B4000F00
B8000F00
7C001E00
3D003D00
1F41F800
0BFFF000
01BF8000
ENDCHAR
STARTCHAR uni04E9
ENCODING 1257
SWIDTH 600 0
DWIDTH 14 0
BBX 12 12 1 0
BITMAP
01BF80
0BFFF4
2F41BC
3C002D
78000E
BFFFFF
BFFFFF
74000E
3C002E
2E41BC
0BFFF4
01BF80
ENDCHAR
STARTCHAR uni04EE
ENCODING 1262
SWIDTH 600 0
DWIDTH 14 0
BBX 12 19 1 0
BITMAP
03FFE0
000000
000000
B4000F
7C001E
2D002D
1E003C
0F0078
0780B0
03C1E0
02D2D0
00E3C0
00B780
007F00
002E00
002D00
007C00
0FF400
0F9000
ENDCHAR
STARTCHAR uni04EF
ENCODING 1263
SWIDTH 600 0
DWIDTH 14 0
BBX 12 21 1 -5
BITMAP
03FFD0
000000
000000
000000
B4000F
38001E
2D002D
1E0038
0B0074
0780B0
03C0E0
01D2D0
00E380
00B740
003F00
002E00
002D00
007800
01F400
3FE000
7E4000
ENDCHAR
STARTCHAR uni04F2
ENCODING 1266
SWIDTH 600 0
DWIDTH 14 0
BBX 12 21 1 0
BITMAP
002824
007874
00A0E0
018180
000000
B4000F
7C001E
2D002D
1E003C
0F0078
0780B0
03C1E0
02D2D0
00E3C0
00B780
007F00
002E00
002D00
007C00
0FF400
0F9000
ENDCHAR
STARTCHAR uni04F3
ENCODING 1267
SWIDTH 600 0
DWIDTH 14 0
BBX 12 23 1 -5
BITMAP
001824
002C74
0074B0
00A0D0
009180
000000
B4000F
38001E
2D002D
1E0038
0B0074
0780B0
03C0E0
01D2D0
00E380
00B740
003F00
002E00
002D00
007800
01F400
3FE000
7E4000
ENDCHAR
STARTCHAR a.sups
ENCODING 7491
SWIDTH 600 0
DWIDTH 14 0
BBX 7 8 4 9
BITMAP
1BE0
BFF4
5078
1AF8
BFF8
E478
FFE8
6E00
ENDCHAR
STARTCHAR b.sups
ENCODING 7495
SWIDTH 600 0
DWIDTH 14 0
BBX 8 11 4 9
BITMAP
A000
E000
E000
E7E0
FFF8
F42C
E01D
E01D
E47C
FFF8
47D0
ENDCHAR
STARTCHAR d.sups
ENCODING 7496
SWIDTH 600 0
DWIDTH 14 0
BBX 8 11 3 9
BITMAP
000D
000E
000E
0BDE
3FFE
781E
B00E
B00E
B81E
3FFE
1B80
ENDCHAR
STARTCHAR e.sups
ENCODING 7497
SWIDTH 600 0
DWIDTH 14 0
BBX 8 8 3 9
BITMAP
07F4
2FFD
740A
7FFF
7FFF
7404
2FFD
07F8
ENDCHAR
STARTCHAR g.sups
ENCODING 7501
SWIDTH 600 0
DWIDTH 14 0
BBX 9 12 3 5
BITMAP
0BFF80
2FFF80
382C00
2FFC00
1FE400
280000
2FFE00
1FFF40
700380
740B40
3FFE00
1BF400
ENDCHAR
STARTCHAR k.sups
ENCODING 7503
SWIDTH 600 0
DWIDTH 14 0
BBX 8 12 4 9
BITMAP
6000
7000
7000
7000
702D
70B4
72D0
7BC0
7DE0
7474
702D
600A
ENDCHAR
STARTCHAR m.sups
ENCODING 7504
SWIDTH 600 0
DWIDTH 14 0
BBX 12 9 1 8
BITMAP
76E1F8
7FFFFD
783E1E
742C0E
742C0A
742C0A
742C0A
742C0A
601805
ENDCHAR
STARTCHAR o.sups
ENCODING 7506
SWIDTH 600 0
DWIDTH 14 0
BBX 8 8 3 9
BITMAP
0BE4
2FFD
781E
B00B
B00B
781E
2FFD
0BE4
ENDCHAR
STARTCHAR p.sups
ENCODING 7510
SWIDTH 600 0
DWIDTH 14 0
BBX 8 11 4 6
BITMAP
D7E0
EFF8
F42C
E01D
E01D
E47C
FFF8
E7D0
E000
E000
5000
ENDCHAR
STARTCHAR t.sups
ENCODING 7511
SWIDTH 600 0
DWIDTH 14 0
BBX 7 11 4 9
BITMAP
0400
0D00
0D00
FFF8
FFF8
1D00
1D00
1D00
0E04
0FFC
06F8
ENDCHAR
STARTCHAR u.sups
ENCODING 7512
SWIDTH 600 0
DWIDTH 14 0
BBX 8 8 3 9
BITMAP
740E
740E
740E
740E
740E
382E
3FFE
1F9A
ENDCHAR
STARTCHAR v.sups
ENCODING 7515
SWIDTH 600 0
DWIDTH 14 0
BBX 8 8 3 9
BITMAP
700A
341D
2C2C
1D38
0E74
0BB0
07E0
03D0
ENDCHAR
STARTCHAR c.sups
ENCODING 7580
SWIDTH 600 0
DWIDTH 14 0
BBX 7 8 4 9
BITMAP
0BE0
2FF8
7914
B000
B000
7814
2FFC
0BE0
ENDCHAR
STARTCHAR f.sups
ENCODING 7584
SWIDTH 600 0
DWIDTH 14 0
BBX 8 13 4 8
BITMAP
01BE
03FF
0780
0740
7FFD
7FFD
0700
0700
0700
0700
0700
0700
0600
ENDCHAR
STARTCHAR z.sups
ENCODING 7611
SWIDTH 600 0
DWIDTH 14 0
BBX 8 8 3 9
BITMAP
3FFE
3FFC
0020
0090
0240
0900
2FFF
7FFF
ENDCHAR
STARTCHAR uni1E06
ENCODING 7686
SWIDTH 600 0
DWIDTH 14 0
BBX 11 19 2 -3
BITMAP
BFFE40
BFFFD0
B406F0
B400F4
B400F0
B406E0
BFFF40
BFFF90
B401F4
B4007C
B4003C
B4003C
B4007C
B406F4
BFFFE0
BFFE40
000000
000000
0BFF80
ENDCHAR
STARTCHAR uni1E07
ENCODING 7687
SWIDTH 600 0
DWIDTH 14 0
BBX 11 20 2 -3
BITMAP
B40000
B40000
B40000
B40000
B40000
B1BE40
BBFFE0
BE42F4
B800B8
B4007C
B4003C
B4003C
B40078
B400F4
BE06F0
BBFFD0
B1BE00
000000
000000
0BFF80
ENDCHAR
STARTCHAR uni1E0C
ENCODING 7692
SWIDTH 600 0
DWIDTH 14 0
BBX 12 21 2 -5
BITMAP
FFF900
FFFF80
F01BE0
F001F4
F000B8
F0003C
F0003D
F0002D
F0003D
F0003C
F0003C
F000B8
F001F4
F01BE0
FFFF80
FFF900
000000
000000
00F400
01F800
00F400
ENDCHAR
STARTCHAR uni1E0D
ENCODING 7693
SWIDTH 600 0
DWIDTH 14 0
BBX 12 22 1 -5
BITMAP
00002D
00002D
00002D
00002D
00002D
01BE2D
0BFFFD
2F41FD
3D003D
78002D
B8002D
B8002D
78002D
7C007D
2F41FD
0FFFED
02FD2D
000000
000000
002D00
007E00
002D00
ENDCHAR
STARTCHAR uni1E0E
ENCODING 7694
SWIDTH 600 0
DWIDTH 14 0
BBX 12 19 2 -3
BITMAP
FFF900
FFFF80
F01BE0
F001F4
F000B8
F0003C
F0003D
F0002D
F0003D
F0003C
F0003C
F000B8
F001F4
F01BE0
FFFF80
FFF900
000000
000000
0FFF40
ENDCHAR
STARTCHAR uni1E0F
ENCODING 7695
SWIDTH 600 0
DWIDTH 14 0
BBX 12 20 1 -3
BITMAP
00002D
00002D
00002D
00002D
00002D
01BE2D
0BFFFD
2F41FD
3D003D
78002D
B8002D
B8002D
78002D
7C007D
2F41FD
0FFFED
02FD2D
000000
000000
03FFD0
ENDCHAR
STARTCHAR uni1E10
ENCODING 7696
SWIDTH 600 0
DWIDTH 14 0
BBX 12 22 2 -6
BITMAP
FFF900
FFFF80
F01BE0
F001F4
F000B8
F0003C
F0003D
F0002D
F0003D
F0003C
F0003C
F000B8
F001F4
F01BE0
FFFF80
FFF900
00D000
00C000
01E400
007800
007800
079000
ENDCHAR
STARTCHAR uni1E11
ENCODING 7697
SWIDTH 600 0
DWIDTH 14 0
BBX 12 23 1 -6
BITMAP
00002D
00002D
00002D
00002D
00002D
01BE2D
0BFFFD
2F41FD
3D003D
78002D
B8002D
B8002D
78002D
7C007D
2F41FD
0FFFED
02FD2D
002800
003400
007D00
001B00
001E00
00E800
ENDCHAR
STARTCHAR uni1E16
ENCODING 7702
SWIDTH 600 0
DWIDTH 14 0
BBX 11 23 2 0
BITMAP
000240
001E00
002400
000000
07FFD0
000000
000000
7FFFF4
7FFFF4
780000
780000
780000
780000
7FFFD0
7FFFD0
780000
780000
780000
780000
780000
780000
7FFFF8
7FFFF8
ENDCHAR
STARTCHAR uni1E17
ENCODING 7703
SWIDTH 600 0
DWIDTH 14 0
BBX 12 20 1 0
BITMAP
000280
001B40
002800
000000
02FFE0
000000
000000
000000
01BF90
07FFF4
1F907C
3D001E
7C000E
7FFFFF
7FFFFF
780000
3D0000
1F902C
07FFF8
00BF90
ENDCHAR
STARTCHAR uni1E20
ENCODING 7712
SWIDTH 600 0
DWIDTH 14 0
BBX 12 19 1 0
BITMAP
01FFF0
000000
000000
006F90
07FFF8
0FD06D
2E0004
3C0000
780000
B40000
B407FE
B407FE
B4000E
78000E
3C000E
2E000E
0F906E
07FFFD
00AFE0
ENDCHAR
STARTCHAR uni1E21
ENCODING 7713
SWIDTH 600 0
DWIDTH 14 0
BBX 13 21 1 -5
BITMAP
02FFE000
00000000
00000000
00000000
01BFFF80
0BFFFF80
1F41E000
2D007400
2D007400
1F41F400
0BFFE000
0BBF4000
1D000000
2E000000
0FFFF900
0BFFFF40
28000B80
78000B40
3D006F00
2FFFFD00
06FF9000
ENDCHAR
STARTCHAR uni1E24
ENCODING 7716
SWIDTH 600 0
DWIDTH 14 0
BBX 11 21 2 -5
BITMAP
F000B8
F000B8
F000B8
F000B8
F000B8
F000B8
FFFFF8
FFFFF8
F000B8
F000B8
F000B8
F000B8
F000B8
F000B8
F000B8
F000B8
000000
000000
00B400
01F800
00B400
ENDCHAR
STARTCHAR uni1E25
ENCODING 7717
SWIDTH 600 0
DWIDTH 14 0
BBX 11 22 2 -5
BITMAP
B40000
B40000
B40000
B40000
B40000
B0BF80
B7FFE0
BF41F4
BC00B4
B400B8
B40078
B40078
B40078
B40078
B40078
B40078
B40078
000000
000000
00B800
00FC00
00B800
ENDCHAR
STARTCHAR uni1E26
ENCODING 7718
SWIDTH 600 0
DWIDTH 14 0
BBX 11 19 2 0
BITMAP
0F0B40
0F0B40
000000
F000B8
F000B8
F000B8
F000B8
F000B8
F000B8
FFFFF8
FFFFF8
F000B8
F000B8
F000B8
F000B8
F000B8
F000B8
F000B8
F000B8
ENDCHAR
STARTCHAR uni1E27
ENCODING 7719
SWIDTH 600 0
DWIDTH 14 0
BBX 13 20 0 0
BITMAP
F0B40000
F0B40000
00000000
0B400000
0B400000
0B400000
0B400000
0B400000
0B0BF800
0B7FFE00
0BF41F40
0BC00B40
0B400B80
0B400780
0B400780
0B400780
0B400780
0B400780
0B400780
0B400780
ENDCHAR
STARTCHAR uni1E28
ENCODING 7720
SWIDTH 600 0
DWIDTH 14 0
BBX 13 22 0 -6
BITMAP
0F000B80
0F000B80
0F000B80
0F000B80
0F000B80
0F000B80
0FFFFF80
0FFFFF80
0F000B80
0F000B80
0F000B80
0F000B80
0F000B80
0F000B80
0F000B80
0F000B80
0A000000
0D000000
1F400000
07800000
07800000
79000000
ENDCHAR
STARTCHAR uni1E29
ENCODING 7721
SWIDTH 600 0
DWIDTH 14 0
BBX 12 23 1 -6
BITMAP
2D0000
2D0000
2D0000
2D0000
2D0000
2C2FE0
2DFFF8
2FD07D
2F002D
2D002E
2D001E
2D001E
2D001E
2D001E
2D001E
2D001E
2D001E
180000
280000
3D0000
0B0000
1B0000
F80000
ENDCHAR
STARTCHAR uni1E2A
ENCODING 7722
SWIDTH 600 0
DWIDTH 14 0
BBX 11 21 2 -5
BITMAP
F000B8
F000B8
F000B8
F000B8
F000B8
F000B8
FFFFF8
FFFFF8
F000B8
F000B8
F000B8
F000B8
F000B8
F000B8
F000B8
F000B8
000000
000000
1C0280
0E0740
02F900
ENDCHAR
STARTCHAR uni1E2B
ENCODING 7723
SWIDTH 600 0
DWIDTH 14 0
BBX 11 22 2 -5
BITMAP
B40000
B40000
B40000
B40000
B40000
B0BF80
B7FFE0
BF41F4
BC00B4
B400B8
B40078
B40078
B40078
B40078
B40078
B40078
B40078
000000
000000
0D01C0
0B4780
02FE00
ENDCHAR
STARTCHAR uni1E32
ENCODING 7730
SWIDTH 600 0
DWIDTH 14 0
BBX 12 21 2 -5
BITMAP
B4007C
B401F0
B403D0
B40B40
B42E00
B47800
B5F800
BBFC00
BF5E00
BE0F40
B80780
B402D0
B401F0
B400B8
B4007C
B4002E
000000
000000
003D00
007E00
003D00
ENDCHAR
STARTCHAR uni1E33
ENCODING 7731
SWIDTH 600 0
DWIDTH 14 0
BBX 12 22 2 -5
BITMAP
780000
780000
780000
780000
780000
7800B8
7802E0
780B80
781E00
787C00
79FC00
7BAE00
7E0B40
7803D0
7801F0
7800B8
78002D
000000
000000
007D00
00BE00
007D00
ENDCHAR
STARTCHAR uni1E34
ENCODING 7732
SWIDTH 600 0
DWIDTH 14 0
BBX 12 19 2 -3
BITMAP
B4007C
B401F0
B403D0
B40B40
B42E00
B47800
B5F800
BBFC00
BF5E00
BE0F40
B80780
B402D0
B401F0
B400B8
B4007C
B4002E
000000
000000
03FFD0
ENDCHAR
STARTCHAR uni1E35
ENCODING 7733
SWIDTH 600 0
DWIDTH 14 0
BBX 12 20 2 -3
BITMAP
780000
780000
780000
780000
780000
7800B8
7802E0
780B80
781E00
787C00
79FC00
7BAE00
7E0B40
7803D0
7801F0
7800B8
78002D
000000
000000
03FFD0
ENDCHAR
STARTCHAR uni1E36
ENCODING 7734
SWIDTH 600 0
DWIDTH 14 0
BBX 10 21 3 -5
BITMAP
B40000
B40000
B40000
B40000
B40000
B40000
B40000
B40000
B40000
B40000
B40000
B40000
B40000
B40000
BFFFF0
BFFFF0
000000
000000
00B400
01FC00
00B400
ENDCHAR
STARTCHAR uni1E37
ENCODING 7735
SWIDTH 600 0
DWIDTH 14 0
BBX 12 22 1 -5
BITMAP
7FFC00
7FFC00
003C00
003C00
003C00
003C00
003C00
003C00
003C00
003C00
003C00
003C00
003C00
003C00
003E05
001FFE
0006F9
000000
000000
0002D0
0007E0
0002D0
ENDCHAR
STARTCHAR uni1E38
ENCODING 7736
SWIDTH 600 0
DWIDTH 14 0
BBX 12 24 1 -5
BITMAP
BFF800
000000
000000
0B4000
0B4000
0B4000
0B4000
0B4000
0B4000
0B4000
0B4000
0B4000
0B4000
0B4000
0B4000
0B4000
0B4000
0BFFFF
0BFFFF
000000
000000
000B40
001FC0
000B40
ENDCHAR
STARTCHAR uni1E39
ENCODING 7737
SWIDTH 600 0
DWIDTH 14 0
BBX 12 25 1 -5
BITMAP
07FFC0
000000
000000
7FFC00
7FFC00
003C00
003C00
003C00
003C00
003C00
003C00
003C00
003C00
003C00
003C00
003C00
003C00
003E05
001FFE
0006F9
000000
000000
0002D0
0007E0
0002D0
ENDCHAR
STARTCHAR uni1E3A
ENCODING 7738
SWIDTH 600 0
DWIDTH 14 0
BBX 10 19 3 -3
BITMAP
B40000
B40000
B40000
B40000
B40000
B40000
B40000
B40000
B40000
B40000
B40000
B40000
B40000
B40000
BFFFF0
BFFFF0
000000
000000
0BFF80
ENDCHAR
STARTCHAR uni1E3B
ENCODING 7739
SWIDTH 600 0
DWIDTH 14 0
BBX 12 20 1 -3
BITMAP
7FFC00
7FFC00
003C00
003C00
003C00
003C00
003C00
003C00
003C00
003C00
003C00
003C00
003C00
003C00
003E05
001FFE
0006F9
000000
000000
003FFD
ENDCHAR
STARTCHAR uni1E3E
ENCODING 7742
SWIDTH 600 0
DWIDTH 14 0
BBX 12 21 1 0
BITMAP
000240
000B80
002E00
002400
000000
7D003E
7E007E
7F00BE
7B40EE
7B81DE
7AC2DE
79D39E
78E75E
78B71E
787E1E
783D1E
78281E
78001E
78001E
78001E
78001E
ENDCHAR
STARTCHAR uni1E3F
ENCODING 7743
SWIDTH 600 0
DWIDTH 14 0
BBX 13 19 1 0
BITMAP
00008000
0002E000
000B8000
002E0000
00180000
00000000
00000000
B2F4BD00
BBFEFF00
BD3F4F40
B82E0B40
B42D0B40
B42D0B40
B42D0B40
B42D0B40
B42D0B40
B42D0B40
B42D0B40
B42D0B40
ENDCHAR
STARTCHAR uni1E40
ENCODING 7744
SWIDTH 600 0
DWIDTH 14 0
BBX 12 20 1 0
BITMAP
002D00
007E00
002D00
000000
7D003E
7E007E
7F00BE
7B40EE
7B81DE
7AC2DE
79D39E
78E75E
78B71E
787E1E
783D1E
78281E
78001E
78001E
78001E
78001E
ENDCHAR
STARTCHAR uni1E41
ENCODING 7745
SWIDTH 600 0
DWIDTH 14 0
BBX 13 17 1 0
BITMAP
002E0000
003F0000
002E0000
00000000
00000000
B2F4BD00
BBFEFF00
BD3F4F40
B82E0B40
B42D0B40
B42D0B40
B42D0B40
B42D0B40
B42D0B40
B42D0B40
B42D0B40
B42D0B40
ENDCHAR
STARTCHAR uni1E42
ENCODING 7746
SWIDTH 600 0
DWIDTH 14 0
BBX 12 21 1 -5
BITMAP
7D003E
7E007E
7F00BE
7B40EE
7B81DE
7AC2DE
79D39E
78E75E
78B71E
787E1E
783D1E
78281E
78001E
78001E
78001E
78001E
000000
000000
002D00
007E00
002D00
ENDCHAR
STARTCHAR uni1E43
ENCODING 7747
SWIDTH 600 0
DWIDTH 14 0
BBX 13 17 1 -5
BITMAP
B2F4BD00
BBFEFF00
BD3F4F40
B82E0B40
B42D0B40
B42D0B40
B42D0B40
B42D0B40
B42D0B40
B42D0B40
B42D0B40
B42D0B40
00000000
00000000
002E0000
003F0000
002E0000
ENDCHAR
STARTCHAR uni1E44
ENCODING 7748
SWIDTH 600 0
DWIDTH 14 0
BBX 11 20 2 0
BITMAP
00B400
00F800
00B400
000000
F40074
FC0074
FD0074
EF0074
E74074
E3C074
F2D074
F0F074
F0B474
F03C74
F02D74
F00F74
F00BB4
F003F4
F002F4
F000F4
ENDCHAR
STARTCHAR uni1E45
ENCODING 7749
SWIDTH 600 0
DWIDTH 14 0
BBX 11 17 2 0
BITMAP
007800
00FD00
007800
000000
000000
B0BF80
B3FFE0
BF41F4
BC00B4
B400B8
B40078
B40078
B40078
B40078
B40078
B40078
B40078
ENDCHAR
STARTCHAR uni1E46
ENCODING 7750
SWIDTH 600 0
DWIDTH 14 0
BBX 11 21 2 -5
BITMAP
F40074
FC0074
FD0074
EF0074
E74074
E3C074
F2D074
F0F074
F0B474
F03C74
F02D74
F00F74
F00BB4
F003F4
F002F4
F000F4
000000
000000
00B400
01F800
00B400
ENDCHAR
STARTCHAR uni1E47
ENCODING 7751
SWIDTH 600 0
DWIDTH 14 0
BBX 11 17 2 -5
BITMAP
B0BF80
B3FFE0
BF41F4
BC00B4
B400B8
B40078
B40078
B40078
B40078
B40078
B40078
B40078
000000
000000
00B800
00FC00
00B800
ENDCHAR
STARTCHAR uni1E48
ENCODING 7752
SWIDTH 600 0
DWIDTH 14 0
BBX 11 19 2 -3
BITMAP
F40074
FC0074
FD0074
EF0074
E74074
E3C074
F2D074
F0F074
F0B474
F03C74
F02D74
F00F74
F00BB4
F003F4
F002F4
F000F4
000000
000000
0FFF40
ENDCHAR
STARTCHAR uni1E49
ENCODING 7753
SWIDTH 600 0
DWIDTH 14 0
BBX 11 15 2 -3
BITMAP
B0BF80
B3FFE0
BF41F4
BC00B4
B400B8
B40078
B40078
B40078
B40078
B40078
B40078
B40078
000000
000000
0BFF80
ENDCHAR
STARTCHAR uni1E52
ENCODING 7762
SWIDTH 600 0
DWIDTH 14 0
BBX 13 23 1 0
BITMAP
00024000
001F4000
00280000
00000000
03FFD000
00000000
00000000
01BE4000
0BFFF000
1F41F800
3D003D00
7C001E00
B8000F00
B4000F00
B4000F40
B4000F40
B4000F00
B8000F00
7C001E00
3D003D00
1F41F800
0BFFE000
01BE4000
ENDCHAR
STARTCHAR uni1E53
ENCODING 7763
SWIDTH 600 0
DWIDTH 14 0
BBX 12 20 1 0
BITMAP
000240
001E40
002400
000000
03FFD0
000000
000000
000000
01BF80
0BFFF4
2F41BC
3D003D
78001E
B8000F
B8000F
78001E
3D003D
2F41BC
0BFFF4
01BF80
ENDCHAR
STARTCHAR uni1E58
ENCODING 7768
SWIDTH 600 0
DWIDTH 14 0
BBX 11 20 2 0
BITMAP
00B400
00F800
00B400
000000
BFFE40
BFFFE0
B401F4
B40078
B40078
B400B8
B402F4
BFFFE0
BFFE40
B42E00
B40F40
B40780
B403D0
B401F0
B400B4
B4007C
ENDCHAR
STARTCHAR uni1E59
ENCODING 7769
SWIDTH 600 0
DWIDTH 14 0
BBX 10 17 3 0
BITMAP
00B400
01FC00
00B400
000000
000000
B42FE0
B5FFE0
BB9010
BE0000
B80000
B40000
B40000
B40000
B40000
B40000
B40000
B40000
ENDCHAR
STARTCHAR uni1E5A
ENCODING 7770
SWIDTH 600 0
DWIDTH 14 0
BBX 11 21 2 -5
BITMAP
BFFE40
BFFFE0
B401F4
B40078
B40078
B400B8
B402F4
BFFFE0
BFFE40
B42E00
B40F40
B40780
B403D0
B401F0
B400B4
B4007C
000000
000000
007800
00FD00
007800
ENDCHAR
STARTCHAR uni1E5B
ENCODING 7771
SWIDTH 600 0
DWIDTH 14 0
BBX 10 17 3 -5
BITMAP
B42FE0
B5FFE0
BB9010
BE0000
B80000
B40000
B40000
B40000
B40000
B40000
B40000
B40000
000000
000000
780000
BD0000
780000
ENDCHAR
STARTCHAR uni1E5C
ENCODING 7772
SWIDTH 600 0
DWIDTH 14 0
BBX 11 24 2 -5
BITMAP
0FFF80
000000
000000
BFFE40
BFFFE0
B401F4
B40078
B40078
B400B8
B402F4
BFFFE0
BFFE40
B42E00
B40F40
B40780
B403D0
B401F0
B400B4
B4007C
000000
000000
007800
00FD00
007800
ENDCHAR
STARTCHAR uni1E5D
ENCODING 7773
SWIDTH 600 0
DWIDTH 14 0
BBX 10 21 3 -5
BITMAP
0FFF80
000000
000000
000000
B42FE0
B5FFE0
BB9010
BE0000
B80000
B40000
B40000
B40000
B40000
B40000
B40000
B40000
000000
000000
780000
BD0000
780000
ENDCHAR
STARTCHAR uni1E5E
ENCODING 7774
SWIDTH 600 0
DWIDTH 14 0
BBX 11 19 2 -3
BITMAP
BFFE40
BFFFE0
B401F4
B40078
B40078
B400B8
B402F4
BFFFE0
BFFE40
B42E00
B40F40
B40780
B403D0
B401F0
B400B4
B4007C
000000
000000
0BFFC0
ENDCHAR
STARTCHAR uni1E5F
ENCODING 7775
SWIDTH 600 0
DWIDTH 14 0
BBX 12 15 1 -3
BITMAP
0B42FE
0B5FFE
0BB901
0BE000
0B8000
0B4000
0B4000
0B4000
0B4000
0B4000
0B4000
0B4000
000000
000000
7FFC00
ENDCHAR
STARTCHAR uni1E60
ENCODING 7776
SWIDTH 600 0
DWIDTH 14 0
BBX 11 20 2 0
BITMAP
007800
00BC00
007800
000000
06FE40
2FFFE0
7D01F0
B80010
B40000
7D0000
2F9000
07FD00
006FD0
0006F4
0000B8
00007C
900078
F901F4
7FFFE0
06FE40
ENDCHAR
STARTCHAR uni1E61
ENCODING 7777
SWIDTH 600 0
DWIDTH 14 0
BBX 11 17 2 0
BITMAP
00B400
01F800
00B400
000000
000000
06FE00
3FFFD0
7D01E0
B80000
7E4000
1FFA00
016FE0
0001B4
400078
F901F4
7FFFE0
06FE40
ENDCHAR
STARTCHAR uni1E62
ENCODING 7778
SWIDTH 600 0
DWIDTH 14 0
BBX 11 21 2 -5
BITMAP
06FE40
2FFFE0
7D01F0
B80010
B40000
7D0000
2F9000
07FD00
006FD0
0006F4
0000B8
00007C
900078
F901F4
7FFFE0
06FE40
000000
000000
00B800
00FC00
00B800
ENDCHAR
STARTCHAR uni1E63
ENCODING 7779
SWIDTH 600 0
DWIDTH 14 0
BBX 11 17 2 -5
BITMAP
06FE00
3FFFD0
7D01E0
B80000
7E4000
1FFA00
016FE0
0001B4
400078
F901F4
7FFFE0
06FE40
000000
000000
00B800
00FC00
00B800
ENDCHAR
STARTCHAR uni1E6C
ENCODING 7788
SWIDTH 600 0
DWIDTH 14 0
BBX 13 21 1 -5
BITMAP
FFFFFF40
FFFFFF40
002D0000
002D0000
002D0000
002D0000
002D0000
002D0000
002D0000
002D0000
002D0000
002D0000
002D0000
002D0000
002D0000
002D0000
00000000
00000000
002D0000
007E0000
002D0000
ENDCHAR
STARTCHAR uni1E6D
ENCODING 7789
SWIDTH 600 0
DWIDTH 14 0
BBX 12 21 1 -5
BITMAP
00B000
00B000
00F000
00F000
7FFFFE
7FFFFE
00F000
00F000
00F000
00F000
00F000
00F000
00F000
00B905
007FFF
001BF9
000000
000000
0003D0
0007E0
0003D0
ENDCHAR
STARTCHAR uni1E6E
ENCODING 7790
SWIDTH 600 0
DWIDTH 14 0
BBX 13 19 1 -3
BITMAP
FFFFFF40
FFFFFF40
002D0000
002D0000
002D0000
002D0000
002D0000
002D0000
002D0000
002D0000
002D0000
002D0000
002D0000
002D0000
002D0000
002D0000
00000000
00000000
03FFD000
ENDCHAR
STARTCHAR uni1E6F
ENCODING 7791
SWIDTH 600 0
DWIDTH 14 0
BBX 12 19 1 -3
BITMAP
00B000
00B000
00F000
00F000
7FFFFE
7FFFFE
00F000
00F000
00F000
00F000
00F000
00F000
00F000
00B905
007FFF
001BF9
000000
000000
003FFD
ENDCHAR
STARTCHAR uni1E7E
ENCODING 7806
SWIDTH 600 0
DWIDTH 14 0
BBX 13 21 1 -5
BITMAP
B4000B40
B8000F00
7C001E00
3C002D00
2D003C00
1E007800
0F00B400
0B40F000
0780E000
03C1D000
02D2C000
01D38000
00E74000
00BB0000
007F0000
003E0000
00000000
00000000
002D0000
007E0000
002D0000
ENDCHAR
STARTCHAR uni1E7F
ENCODING 7807
SWIDTH 600 0
DWIDTH 14 0
BBX 12 17 1 -5
BITMAP
B4000F
78001E
2D002D
1E0038
0F0074
0B40F0
0381E0
02C2C0
01E380
00F740
007F00
003E00
000000
000000
002D00
007E00
002D00
ENDCHAR
STARTCHAR Wgrave
ENCODING 7808
SWIDTH 600 0
DWIDTH 14 0
BBX 14 21 0 0
BITMAP
00200000
007D0000
001F4000
00024000
00000000
B80000F0
B80001F0
780001E0
7C0001E0
3C0B41E0
3C0F82D0
2D1FC2D0
2D2EC2C0
1D2DD3C0
1E39E380
1E74F380
0EB0B780
0FB07B40
0BE07F40
0BD03F00
07D02F00
ENDCHAR
STARTCHAR wgrave
ENCODING 7809
SWIDTH 600 0
DWIDTH 14 0
BBX 14 19 0 0
BITMAP
00600000
00B80000
002D0000
000B4000
00024000
00000000
00000000
B40500B0
740F40F0
780F80E0
3C1EC1D0
3C2EC2D0
2D29D2C0
1D38E3C0
1E74E380
0EB0B740
0BB07B40
0BE07F00
07D03E00
ENDCHAR
STARTCHAR Wacute
ENCODING 7810
SWIDTH 600 0
DWIDTH 14 0
BBX 14 21 0 0
BITMAP
00009000
0002E000
000B8000
00090000
00000000
B80000F0
B80001F0
780001E0
7C0001E0
3C0B41E0
3C0F82D0
2D1FC2D0
2D2EC2C0
1D2DD3C0
1E39E380
1E74F380
0EB0B780
0FB07B40
0BE07F40
0BD03F00
07D02F00
ENDCHAR
STARTCHAR wacute
ENCODING 7811
SWIDTH 600 0
DWIDTH 14 0
BBX 14 19 0 0
BITMAP
00006000
0001F400
0003D000
000F4000
00090000
00000000
00000000
B40500B0
740F40F0
780F80E0
3C1EC1D0
3C2EC2D0
2D29D2C0
1D38E3C0
1E74E380
0EB0B740
0BB07B40
0BE07F00
07D03E00
ENDCHAR
STARTCHAR Wdieresis
ENCODING 7812
SWIDTH 600 0
DWIDTH 14 0
BBX 14 19 0 0
BITMAP
00F0B400
00F0B400
00000000
B80000F0
B80001F0
780001E0
7C0001E0
3C0B41E0
3C0F82D0
2D1FC2D0
2D2EC2C0
1D2DD3C0
1E39E380
1E74F380
0EB0B780
0FB07B40
0BE07F40
0BD03F00
07D02F00
ENDCHAR
STARTCHAR wdieresis
ENCODING 7813
SWIDTH 600 0
DWIDTH 14 0
BBX 14 17 0 0
BITMAP
00E07400
01F0B800
00E07400
00000000
00000000
B40500B0
740F40F0
780F80E0
3C1EC1D0
3C2EC2D0
2D29D2C0
1D38E3C0
1E74E380
0EB0B740
0BB07B40
0BE07F00
07D03E00
ENDCHAR
STARTCHAR uni1E8E
ENCODING 7822
SWIDTH 600 0
DWIDTH 14 0
BBX 13 20 1 0
BITMAP
002D0000
007E0000
002D0000
00000000
B4000B40
78001E00
2D002D00
1E007800
0B40B400
0781E000
02D2C000
01E78000
00BF0000
007E0000
003D0000
002D0000
002D0000
002D0000
002D0000
002D0000
ENDCHAR
STARTCHAR uni1E8F
ENCODING 7823
SWIDTH 600 0
DWIDTH 14 0
BBX 12 22 1 -5
BITMAP
002D00
007E00
002D00
000000
000000
B4000F
38001E
2D002D
1E0038
0B0074
0780B0
03C0E0
01D2D0
00E380
00B740
003F00
002E00
002D00
007800
01F400
3FE000
7E4000
ENDCHAR
STARTCHAR uni1E90
ENCODING 7824
SWIDTH 600 0
DWIDTH 14 0
BBX 12 20 1 0
BITMAP
003F40
00E2D0
028060
000000
2FFFFE
2FFFFE
00003C
0000B4
0001E0
0003C0
000B40
002E00
007C00
00F400
02D000
078000
0F0000
2D0000
7FFFFF
7FFFFF
ENDCHAR
STARTCHAR uni1E91
ENCODING 7825
SWIDTH 600 0
DWIDTH 14 0
BBX 12 18 1 0
BITMAP
002F40
00BBC0
01D0E0
024024
000000
000000
1FFFFE
1FFFFD
0000B8
0002E0
000B80
002E00
00B800
01E000
07C000
1F0000
7FFFFE
7FFFFE
ENDCHAR
STARTCHAR uni1E92
ENCODING 7826
SWIDTH 600 0
DWIDTH 14 0
BBX 12 21 1 -5
BITMAP
2FFFFE
2FFFFE
00003C
0000B4
0001E0
0003C0
000B40
002E00
007C00
00F400
02D000
078000
0F0000
2D0000
7FFFFF
7FFFFF
000000
000000
002E00
003F00
002E00
ENDCHAR
STARTCHAR uni1E93
ENCODING 7827
SWIDTH 600 0
DWIDTH 14 0
BBX 12 17 1 -5
BITMAP
1FFFFE
1FFFFD
0000B8
0002E0
000B80
002E00
00B800
01E000
07C000
1F0000
7FFFFE
7FFFFE
000000
000000
002E00
003F00
002E00
ENDCHAR
STARTCHAR uni1E94
ENCODING 7828
SWIDTH 600 0
DWIDTH 14 0
BBX 12 19 1 -3
BITMAP
2FFFFE
2FFFFE
00003C
0000B4
0001E0
0003C0
000B40
002E00
007C00
00F400
02D000
078000
0F0000
2D0000
7FFFFF
7FFFFF
000000
000000
02FFE0
ENDCHAR
STARTCHAR uni1E95
ENCODING 7829
SWIDTH 600 0
DWIDTH 14 0
BBX 12 15 1 -3
BITMAP
1FFFFE
1FFFFD
0000B8
0002E0
000B80
002E00
00B800
01E000
07C000
1F0000
7FFFFE
7FFFFE
000000
000000
02FFE0
ENDCHAR
STARTCHAR uni1E96
ENCODING 7830
SWIDTH 600 0
DWIDTH 14 0
BBX 11 20 2 -3
BITMAP
B40000
B40000
B40000
B40000
B40000
B0BF80
B7FFE0
BF41F4
BC00B4
B400B8
B40078
B40078
B40078
B40078
B40078
B40078
B40078
000000
000000
0BFF80
ENDCHAR
STARTCHAR uni1E97
ENCODING 7831
SWIDTH 600 0
DWIDTH 14 0
BBX 12 20 1 0
BITMAP
0E0780
1F4BC0
0E0780
000000
00B000
00B000
00F000
00F000
7FFFFE
7FFFFE
00F000
00F000
00F000
00F000
00F000
00F000
00F000
00B905
007FFF
001BF9
ENDCHAR
STARTCHAR uni1E9E
ENCODING 7838
SWIDTH 600 0
DWIDTH 14 0
BBX 12 16 2 0
BITMAP
06FE00
2FFFD0
7E06F0
B800F0
F002D0
F00B40
F02E00
F02FE0
F01BF8
F000BD
F0002E
F0001E
F0002E
F1D07D
F0FFF8
F02FD0
ENDCHAR
STARTCHAR uni1EA0
ENCODING 7840
SWIDTH 600 0
DWIDTH 14 0
BBX 13 21 1 -5
BITMAP
003D0000
007E0000
00BB0000
00E74000
01D38000
02C2C000
0381D000
0740E000
0B00B000
0FFFF400
1FFFF800
2C002C00
3C002D00
78001E00
B4000F00
F0000B40
00000000
00000000
002D0000
007E0000
002D0000
ENDCHAR
STARTCHAR uni1EA1
ENCODING 7841
SWIDTH 600 0
DWIDTH 14 0
BBX 11 17 2 -5
BITMAP
06FE40
2FFFD0
7902F0
1000B4
006BF4
1BFFF4
7E94B4
F400B4
F000B4
F807F4
7FFEB4
1BE474
000000
000000
00B400
01F800
00B400
ENDCHAR
STARTCHAR uni1EA2
ENCODING 7842
SWIDTH 600 0
DWIDTH 14 0
BBX 13 21 1 0
BITMAP
00790000
000B0000
000B0000
00290000
00000000
003D0000
007E0000
00BB0000
00E74000
01D38000
02C2C000
0381D000
0740E000
0B00B000
0FFFF400
1FFFF800
2C002C00
3C002D00
78001E00
B4000F00
F0000B40
ENDCHAR
STARTCHAR uni1EA3
ENCODING 7843
SWIDTH 600 0
DWIDTH 14 0
BBX 11 18 2 0
BITMAP
00F800
001D00
001D00
007400
000000
000000
06FE40
2FFFD0
7902F0
1000B4
006BF4
1BFFF4
7E94B4
F400B4
F000B4
F807F4
7FFEB4
1BE474
ENDCHAR
STARTCHAR uni1EA4
ENCODING 7844
SWIDTH 600 0
DWIDTH 14 0
BBX 13 21 1 0
BITMAP
00000900
007E2800
01E7A000
02818000
00000000
003D0000
007E0000
00BB0000
00E74000
01D38000
02C2C000
0381D000
0740E000
0B00B000
0FFFF400
1FFFF800
2C002C00
3C002D00
78001E00
B4000F00
F0000B40
ENDCHAR
STARTCHAR uni1EA5
ENCODING 7845
SWIDTH 600 0
DWIDTH 14 0
BBX 11 19 2 0
BITMAP
000018
000028
00BC70
02DB90
060280
000000
000000
06FE40
2FFFD0
7902F0
1000B4
006BF4
1BFFF4
7E94B4
F400B4
F000B4
F807F4
7FFEB4
1BE474
ENDCHAR
STARTCHAR uni1EA6
ENCODING 7846
SWIDTH 600 0
DWIDTH 14 0
BBX 13 21 1 0
BITMAP
14000000
1D7E0000
07E78000
02818000
00000000
003D0000
007E0000
00BB0000
00E74000
01D38000
02C2C000
0381D000
0740E000
0B00B000
0FFFF400
1FFFF800
2C002C00
3C002D00
78001E00
B4000F00
F0000B40
ENDCHAR
STARTCHAR uni1EA7
ENCODING 7847
SWIDTH 600 0
DWIDTH 14 0
BBX 11 19 2 0
BITMAP
900000
B00000
28BC00
0ADB40
060280
000000
000000
06FE40
2FFFD0
7902F0
1000B4
006BF4
1BFFF4
7E94B4
F400B4
F000B4
F807F4
7FFEB4
1BE474
ENDCHAR
STARTCHAR uni1EA8
ENCODING 7848
SWIDTH 600 0
DWIDTH 14 0
BBX 13 22 1 0
BITMAP
0000A400
00002C00
007E1C00
01E7B400
02818000
00000000
003D0000
007E0000
00BB0000
00E74000
01D38000
02C2C000
0381D000
0740E000
0B00B000
0FFFF400
1FFFF800
2C002C00
3C002D00
78001E00
B4000F00
F0000B40
ENDCHAR
STARTCHAR uni1EA9
ENCODING 7849
SWIDTH 600 0
DWIDTH 14 0
BBX 11 19 2 0
BITMAP
0001E0
000078
00BC38
02DBA0
060280
000000
000000
06FE40
2FFFD0
7902F0
1000B4
006BF4
1BFFF4
7E94B4
F400B4
F000B4
F807F4
7FFEB4
1BE474
ENDCHAR
STARTCHAR uni1EAA
ENCODING 7850
SWIDTH 600 0
DWIDTH 14 0
BBX 13 22 1 0
BITMAP
02E49000
031BD000
007E0000
01E78000
02818000
00000000
003D0000
007E0000
00BB0000
00E74000
01D38000
02C2C000
0381D000
0740E000
0B00B000
0FFFF400
1FFFF800
2C002C00
3C002D00
78001E00
B4000F00
F0000B40
ENDCHAR
STARTCHAR uni1EAB
ENCODING 7851
SWIDTH 600 0
DWIDTH 14 0
BBX 11 19 2 0
BITMAP
029180
066F40
00BD00
02DB40
060280
000000
000000
06FE40
2FFFD0
7902F0
1000B4
006BF4
1BFFF4
7E94B4
F400B4
F000B4
F807F4
7FFEB4
1BE474
ENDCHAR
STARTCHAR uni1EAC
ENCODING 7852
SWIDTH 600 0
DWIDTH 14 0
BBX 13 25 1 -5
BITMAP
007E0000
01E78000
02409000
00000000
003D0000
007E0000
00BB0000
00E74000
01D38000
02C2C000
0381D000
0740E000
0B00B000
0FFFF400
1FFFF800
2C002C00
3C002D00
78001E00
B4000F00
F0000B40
00000000
00000000
002D0000
007E0000
002D0000
ENDCHAR
STARTCHAR uni1EAD
ENCODING 7853
SWIDTH 600 0
DWIDTH 14 0
BBX 11 23 2 -5
BITMAP
00BC00
02EF00
074380
090080
000000
000000
06FE40
2FFFD0
7902F0
1000B4
006BF4
1BFFF4
7E94B4
F400B4
F000B4
F807F4
7FFEB4
1BE474
000000
000000
00B400
01F800
00B400
ENDCHAR
STARTCHAR uni1EAE
ENCODING 7854
SWIDTH 600 0
DWIDTH 14 0
BBX 13 22 1 0
BITMAP
00024000
000B4000
0718A000
0281D000
00BE4000
00000000
003D0000
007E0000
00BB0000
00E74000
01D38000
02C2C000
0381D000
0740E000
0B00B000
0FFFF400
1FFFF800
2C002C00
3C002D00
78001E00
B4000F00
F0000B40
ENDCHAR
STARTCHAR uni1EAF
ENCODING 7855
SWIDTH 600 0
DWIDTH 14 0
BBX 11 20 2 0
BITMAP
000900
001E00
003800
0D20D0
0B4280
01FE00
000000
000000
06FE40
2FFFD0
7902F0
1000B4
006BF4
1BFFF4
7E94B4
F400B4
F000B4
F807F4
7FFEB4
1BE474
ENDCHAR
STARTCHAR uni1EB0
ENCODING 7856
SWIDTH 600 0
DWIDTH 14 0
BBX 13 22 1 0
BITMAP
00900000
00B40000
0718A000
0281D000
00BE4000
00000000
003D0000
007E0000
00BB0000
00E74000
01D38000
02C2C000
0381D000
0740E000
0B00B000
0FFFF400
1FFFF800
2C002C00
3C002D00
78001E00
B4000F00
F0000B40
ENDCHAR
STARTCHAR uni1EB1
ENCODING 7857
SWIDTH 600 0
DWIDTH 14 0
BBX 11 20 2 0
BITMAP
008000
01E000
007400
0D24D0
0B4280
01FE00
000000
000000
06FE40
2FFFD0
7902F0
1000B4
006BF4
1BFFF4
7E94B4
F400B4
F000B4
F807F4
7FFEB4
1BE474
ENDCHAR
STARTCHAR uni1EB2
ENCODING 7858
SWIDTH 600 0
DWIDTH 14 0
BBX 13 23 1 0
BITMAP
00380000
000A0000
000A0000
0718A000
0281D000
00BE4000
00000000
003D0000
007E0000
00BB0000
00E74000
01D38000
02C2C000
0381D000
0740E000
0B00B000
0FFFF400
1FFFF800
2C002C00
3C002D00
78001E00
B4000F00
F0000B40
ENDCHAR
STARTCHAR uni1EB3
ENCODING 7859
SWIDTH 600 0
DWIDTH 14 0
BBX 11 20 2 0
BITMAP
00B400
001D00
001D00
0D34D0
0B4280
01FE00
000000
000000
06FE40
2FFFD0
7902F0
1000B4
006BF4
1BFFF4
7E94B4
F400B4
F000B4
F807F4
7FFEB4
1BE474
ENDCHAR
STARTCHAR uni1EB4
ENCODING 7860
SWIDTH 600 0
DWIDTH 14 0
BBX 13 22 1 0
BITMAP
02F4A000
031BD000
00000000
0341D000
01BF4000
00000000
003D0000
007E0000
00BB0000
00E74000
01D38000
02C2C000
0381D000
0740E000
0B00B000
0FFFF400
1FFFF800
2C002C00
3C002D00
78001E00
B4000F00
F0000B40
ENDCHAR
STARTCHAR uni1EB5
ENCODING 7861
SWIDTH 600 0
DWIDTH 14 0
BBX 11 19 2 0
BITMAP
02A180
0A6F40
000000
0A42C0
02FE00
000000
000000
06FE40
2FFFD0
7902F0
1000B4
006BF4
1BFFF4
7E94B4
F400B4
F000B4
F807F4
7FFEB4
1BE474
ENDCHAR
STARTCHAR uni1EB6
ENCODING 7862
SWIDTH 600 0
DWIDTH 14 0
BBX 13 25 1 -5
BITMAP
0300A000
0281D000
00BE4000
00000000
003D0000
007E0000
00BB0000
00E74000
01D38000
02C2C000
0381D000
0740E000
0B00B000
0FFFF400
1FFFF800
2C002C00
3C002D00
78001E00
B4000F00
F0000B40
00000000
00000000
002D0000
007E0000
002D0000
ENDCHAR
STARTCHAR uni1EB7
ENCODING 7863
SWIDTH 600 0
DWIDTH 14 0
BBX 11 22 2 -5
BITMAP
0D00D0
0B4680
01FE00
000000
000000
06FE40
2FFFD0
7902F0
1000B4
006BF4
1BFFF4
7E94B4
F400B4
F000B4
F807F4
7FFEB4
1BE474
000000
000000
00B400
01F800
00B400
ENDCHAR
STARTCHAR uni1EB8
ENCODING 7864
SWIDTH 600 0
DWIDTH 14 0
BBX 11 21 2 -5
BITMAP
7FFFF4
7FFFF4
780000
780000
780000
780000
7FFFD0
7FFFD0
780000
780000
780000
780000
780000
780000
7FFFF8
7FFFF8
000000
000000
007D00
00BE00
007D00
ENDCHAR
STARTCHAR uni1EB9
ENCODING 7865
SWIDTH 600 0
DWIDTH 14 0
BBX 12 17 1 -5
BITMAP
01BF90
07FFF4
1F907C
3D001E
7C000E
7FFFFF
7FFFFF
780000
3D0000
1F902C
07FFF8
00BF90
000000
000000
002E00
003F00
002E00
ENDCHAR
STARTCHAR uni1EBA
ENCODING 7866
SWIDTH 600 0
DWIDTH 14 0
BBX 11 21 2 0
BITMAP
00B800
001E00
001E00
003800
000000
7FFFF4
7FFFF4
780000
780000
780000
780000
7FFFD0
7FFFD0
780000
780000
780000
780000
780000
780000
7FFFF8
7FFFF8
ENDCHAR
STARTCHAR uni1EBB
ENCODING 7867
SWIDTH 600 0
DWIDTH 14 0
BBX 12 18 1 0
BITMAP
003900
000740
000740
001D00
000000
000000
01BF90
07FFF4
1F907C
3D001E
7C000E
7FFFFF
7FFFFF
780000
3D0000
1F902C
07FFF8
00BF90
ENDCHAR
STARTCHAR uni1EBC
ENCODING 7868
SWIDTH 600 0
DWIDTH 14 0
BBX 11 20 2 0
BITMAP
07E060
0D28B0
1C0BD0
000000
7FFFF4
7FFFF4
780000
780000
780000
780000
7FFFD0
7FFFD0
780000
780000
780000
780000
780000
780000
7FFFF8
7FFFF8
ENDCHAR
STARTCHAR uni1EBD
ENCODING 7869
SWIDTH 600 0
DWIDTH 14 0
BBX 12 17 1 0
BITMAP
019014
07AD38
0606E0
000000
000000
01BF90
07FFF4
1F907C
3D001E
7C000E
7FFFFF
7FFFFF
780000
3D0000
1F902C
07FFF8
00BF90
ENDCHAR
STARTCHAR uni1EBE
ENCODING 7870
SWIDTH 600 0
DWIDTH 14 0
BBX 11 21 2 0
BITMAP
000008
007D78
01EB90
024180
000000
7FFFF4
7FFFF4
780000
780000
780000
780000
7FFFD0
7FFFD0
780000
780000
780000
780000
780000
780000
7FFFF8
7FFFF8
ENDCHAR
STARTCHAR uni1EBF
ENCODING 7871
SWIDTH 600 0
DWIDTH 14 0
BBX 12 19 1 0
BITMAP
000006
00000E
002F2C
00B7F4
0180A0
000000
000000
01BF90
07FFF4
1F907C
3D001E
7C000E
7FFFFF
7FFFFF
780000
3D0000
1F902C
07FFF8
00BF90
ENDCHAR
STARTCHAR uni1EC0
ENCODING 7872
SWIDTH 600 0
DWIDTH 14 0
BBX 11 21 2 0
BITMAP
240000
1C7D00
06EB40
024180
000000
7FFFF4
7FFFF4
780000
780000
780000
780000
7FFFD0
7FFFD0
780000
780000
780000
780000
780000
780000
7FFFF8
7FFFF8
ENDCHAR
STARTCHAR uni1EC1
ENCODING 7873
SWIDTH 600 0
DWIDTH 14 0
BBX 12 19 1 0
BITMAP
240000
2C0000
0E2F00
02F7C0
0180A0
000000
000000
01BF90
07FFF4
1F907C
3D001E
7C000E
7FFFFF
7FFFFF
780000
3D0000
1F902C
07FFF8
00BF90
ENDCHAR
STARTCHAR uni1EC2
ENCODING 7874
SWIDTH 600 0
DWIDTH 14 0
BBX 11 22 2 0
BITMAP
0000E4
000028
007D28
01EBA4
024180
000000
7FFFF4
7FFFF4
780000
780000
780000
780000
7FFFD0
7FFFD0
780000
780000
780000
780000
780000
780000
7FFFF8
7FFFF8
ENDCHAR
STARTCHAR uni1EC3
ENCODING 7875
SWIDTH 600 0
DWIDTH 14 0
BBX 12 19 1 0
BITMAP
000078
00001E
002F1D
00B7F8
0180A0
000000
000000
01BF90
07FFF4
1F907C
3D001E
7C000E
7FFFFF
7FFFFF
780000
3D0000
1F902C
07FFF8
00BF90
ENDCHAR
STARTCHAR uni1EC4
ENCODING 7876
SWIDTH 600 0
DWIDTH 14 0
BBX 11 22 2 0
BITMAP
02E490
061B80
007D00
01EB40
024180
000000
7FFFF4
7FFFF4
780000
780000
780000
780000
7FFFD0
7FFFD0
780000
780000
780000
780000
780000
780000
7FFFF8
7FFFF8
ENDCHAR
STARTCHAR uni1EC5
ENCODING 7877
SWIDTH 600 0
DWIDTH 14 0
BBX 12 19 1 0
BITMAP
00A460
029BD0
002F00
00B7D0
018090
000000
000000
01BF90
07FFF4
1F907C
3D001E
7C000E
7FFFFF
7FFFFF
780000
3D0000
1F902C
07FFF8
00BF90
ENDCHAR
STARTCHAR uni1EC6
ENCODING 7878
SWIDTH 600 0
DWIDTH 14 0
BBX 11 25 2 -5
BITMAP
00BD00
02D780
060190
000000
7FFFF4
7FFFF4
780000
780000
780000
780000
7FFFD0
7FFFD0
780000
780000
780000
780000
780000
780000
7FFFF8
7FFFF8
000000
000000
007D00
00BE00
007D00
ENDCHAR
STARTCHAR uni1EC7
ENCODING 7879
SWIDTH 600 0
DWIDTH 14 0
BBX 12 23 1 -5
BITMAP
002F00
00BB80
01D1E0
024060
000000
000000
01BF90
07FFF4
1F907C
3D001E
7C000E
7FFFFF
7FFFFF
780000
3D0000
1F902C
07FFF8
00BF90
000000
000000
002E00
003F00
002E00
ENDCHAR
STARTCHAR uni1EC8
ENCODING 7880
SWIDTH 600 0
DWIDTH 14 0
BBX 10 21 2 0
BITMAP
01E400
002C00
002C00
00A400
000000
BFFFF0
BFFFF0
00B400
00B400
00B400
00B400
00B400
00B400
00B400
00B400
00B400
00B400
00B400
00B400
BFFFF0
BFFFF0
ENDCHAR
STARTCHAR uni1EC9
ENCODING 7881
SWIDTH 600 0
DWIDTH 14 0
BBX 8 18 2 0
BITMAP
0079
000B
000B
0019
0000
0000
FFFE
FFFE
001E
001E
001E
001E
001E
001E
001E
001E
001E
001E
ENDCHAR
STARTCHAR uni1ECA
ENCODING 7882
SWIDTH 600 0
DWIDTH 14 0
BBX 10 21 2 -5
BITMAP
BFFFF0
BFFFF0
00B400
00B400
00B400
00B400
00B400
00B400
00B400
00B400
00B400
00B400
00B400
00B400
BFFFF0
BFFFF0
000000
000000
00B400
01F800
00B400
ENDCHAR
STARTCHAR uni1ECB
ENCODING 7883
SWIDTH 600 0
DWIDTH 14 0
BBX 8 22 2 -5
BITMAP
002D
007F
002D
0000
0000
FFFE
FFFE
001E
001E
001E
001E
001E
001E
001E
001E
001E
001E
0000
0000
002D
007F
002D
ENDCHAR
STARTCHAR uni1ECC
ENCODING 7884
SWIDTH 600 0
DWIDTH 14 0
BBX 13 21 1 -5
BITMAP
01BE4000
0BFFF000
1F41F800
3D003D00
7C001E00
B8000F00
B4000F00
B4000F40
B4000F40
B4000F00
B8000F00
7C001E00
3D003D00
1F41F800
0BFFE000
01BE4000
00000000
00000000
002D0000
007E0000
002D0000
ENDCHAR
STARTCHAR uni1ECD
ENCODING 7885
SWIDTH 600 0
DWIDTH 14 0
BBX 12 17 1 -5
BITMAP
01BF80
0BFFF4
2F41BC
3D003D
78001E
B8000F
B8000F
78001E
3D003D
2F41BC
0BFFF4
01BF80
000000
000000
002D00
007E00
002D00
ENDCHAR
STARTCHAR uni1ECE
ENCODING 7886
SWIDTH 600 0
DWIDTH 14 0
BBX 13 21 1 0
BITMAP
00790000
000B0000
000B0000
00290000
00000000
01BE4000
0BFFF000
1F41F800
3D003D00
7C001E00
B8000F00
B4000F00
B4000F40
B4000F40
B4000F00
B8000F00
7C001E00
3D003D00
1F41F800
0BFFE000
01BE4000
ENDCHAR
STARTCHAR uni1ECF
ENCODING 7887
SWIDTH 600 0
DWIDTH 14 0
BBX 12 18 1 0
BITMAP
007900
000B00
000B00
002900
000000
000000
01BF80
0BFFF4
2F41BC
3D003D
78001E
B8000F
B8000F
78001E
3D003D
2F41BC
0BFFF4
01BF80
ENDCHAR
STARTCHAR uni1ED0
ENCODING 7888
SWIDTH 600 0
DWIDTH 14 0
BBX 13 21 1 0
BITMAP
00000900
007E2800
01E7A000
02818000
00000000
01BE4000
0BFFF000
1F41F800
3D003D00
7C001E00
B8000F00
B4000F00
B4000F40
B4000F40
B4000F00
B8000F00
7C001E00
3D003D00
1F41F800
0BFFE000
01BE4000
ENDCHAR
STARTCHAR uni1ED1
ENCODING 7889
SWIDTH 600 0
DWIDTH 14 0
BBX 12 19 1 0
BITMAP
000009
00001D
007E38
01E7A0
024180
000000
000000
01BF80
0BFFF4
2F41BC
3D003D
78001E
B8000F
B8000F
78001E
3D003D
2F41BC
0BFFF4
01BF80
ENDCHAR
STARTCHAR uni1ED2
ENCODING 7890
SWIDTH 600 0
DWIDTH 14 0
BBX 13 21 1 0
BITMAP
14000000
1D7E0000
07E78000
02818000
00000000
01BE4000
0BFFF000
1F41F800
3D003D00
7C001E00
B8000F00
B4000F00
B4000F40
B4000F40
B4000F00
B8000F00
7C001E00
3D003D00
1F41F800
0BFFE000
01BE4000
ENDCHAR
STARTCHAR uni1ED3
ENCODING 7891
SWIDTH 600 0
DWIDTH 14 0
BBX 12 19 1 0
BITMAP
600000
780000
1D7E00
06E780
024180
000000
000000
01BF80
0BFFF4
2F41BC
3D003D
78001E
B8000F
B8000F
78001E
3D003D
2F41BC
0BFFF4
01BF80
ENDCHAR
STARTCHAR uni1ED4
ENCODING 7892
SWIDTH 600 0
DWIDTH 14 0
BBX 13 22 1 0
BITMAP
0000A400
00002C00
007E1C00
01E7B400
02818000
00000000
01BE4000
0BFFF000
1F41F800
3D003D00
7C001E00
B8000F00
B4000F00
B4000F40
B4000F40
B4000F00
B8000F00
7C001E00
3D003D00
1F41F800
0BFFE000
01BE4000
ENDCHAR
STARTCHAR uni1ED5
ENCODING 7893
SWIDTH 600 0
DWIDTH 14 0
BBX 12 19 1 0
BITMAP
0000A4
00002C
007E1C
01E7B4
024180
000000
000000
01BF80
0BFFF4
2F41BC
3D003D
78001E
B8000F
B8000F
78001E
3D003D
2F41BC
0BFFF4
01BF80
ENDCHAR
STARTCHAR uni1ED6
ENCODING 7894
SWIDTH 600 0
DWIDTH 14 0
BBX 13 22 1 0
BITMAP
02E49000
031BD000
007E0000
01E78000
02818000
00000000
01BE4000
0BFFF000
1F41F800
3D003D00
7C001E00
B8000F00
B4000F00
B4000F40
B4000F40
B4000F00
B8000F00
7C001E00
3D003D00
1F41F800
0BFFE000
01BE4000
ENDCHAR
STARTCHAR uni1ED7
ENCODING 7895
SWIDTH 600 0
DWIDTH 14 0
BBX 12 19 1 0
BITMAP
01A490
035B80
007E00
01EB80
024180
000000
000000
01BF80
0BFFF4
2F41BC
3D003D
78001E
B8000F
B8000F
78001E
3D003D
2F41BC
0BFFF4
01BF80
ENDCHAR
STARTCHAR uni1ED8
ENCODING 7896
SWIDTH 600 0
DWIDTH 14 0
BBX 13 25 1 -5
BITMAP
007E0000
01E78000
02409000
00000000
01BE4000
0BFFF000
1F41F800
3D003D00
7C001E00
B8000F00
B4000F00
B4000F40
B4000F40
B4000F00
B8000F00
7C001E00
3D003D00
1F41F800
0BFFE000
01BE4000
00000000
00000000
002D0000
007E0000
002D0000
ENDCHAR
STARTCHAR uni1ED9
ENCODING 7897
SWIDTH 600 0
DWIDTH 14 0
BBX 12 23 1 -5
BITMAP
007E00
00FB40
0282D0
060060
000000
000000
01BF80
0BFFF4
2F41BC
3D003D
78001E
B8000F
B8000F
78001E
3D003D
2F41BC
0BFFF4
01BF80
000000
000000
002D00
007E00
002D00
ENDCHAR
STARTCHAR uni1EDA
ENCODING 7898
SWIDTH 600 0
DWIDTH 14 0
BBX 13 21 1 0
BITMAP
00024000
000B8000
002E0640
00240740
00000740
01BE6F00
0BFFF800
1F41F800
3D003D00
7C001E00
B8000F00
B4000F00
B4000F40
B4000F40
B4000F00
B8000F00
7C001E00
3D003D00
1F41F800
0BFFF000
01BE4000
ENDCHAR
STARTCHAR uni1EDB
ENCODING 7899
SWIDTH 600 0
DWIDTH 14 0
BBX 13 19 1 0
BITMAP
00018000
0007D000
000F4000
003D0600
00240740
00000740
00000B00
01BFAD00
0BFFF400
2F41B800
3D003D00
78001E00
B8000F00
B8000F00
78001E00
3D003E00
2F41BC00
0BFFF400
01BF8000
ENDCHAR
STARTCHAR uni1EDC
ENCODING 7900
SWIDTH 600 0
DWIDTH 14 0
BBX 13 21 1 0
BITMAP
00800000
01F40000
007D0640
00090740
00000740
01BE6F00
0BFFF800
1F41F800
3D003D00
7C001E00
B8000F00
B4000F00
B4000F40
B4000F40
B4000F00
B8000F00
7C001E00
3D003D00
1F41F800
0BFFF000
01BE4000
ENDCHAR
STARTCHAR uni1EDD
ENCODING 7901
SWIDTH 600 0
DWIDTH 14 0
BBX 13 19 1 0
BITMAP
01800000
02E00000
00B40000
002D0600
00090740
00000740
00000B00
01BFAD00
0BFFF400
2F41B800
3D003D00
78001E00
B8000F00
B8000F00
78001E00
3D003E00
2F41BC00
0BFFF400
01BF8000
ENDCHAR
STARTCHAR uni1EDE
ENCODING 7902
SWIDTH 600 0
DWIDTH 14 0
BBX 13 21 1 0
BITMAP
00790000
000B0000
000B0640
00290740
00000740
01BE6F00
0BFFF800
1F41F800
3D003D00
7C001E00
B8000F00
B4000F00
B4000F40
B4000F40
B4000F00
B8000F00
7C001E00
3D003D00
1F41F800
0BFFF000
01BE4000
ENDCHAR
STARTCHAR uni1EDF
ENCODING 7903
SWIDTH 600 0
DWIDTH 14 0
BBX 13 18 1 0
BITMAP
00790000
000B0000
000B0600
00290740
00000740
00000B00
01BFAD00
0BFFF400
2F41B800
3D003D00
78001E00
B8000F00
B8000F00
78001E00
3D003E00
2F41BC00
0BFFF400
01BF8000
ENDCHAR
STARTCHAR uni1EE0
ENCODING 7904
SWIDTH 600 0
DWIDTH 14 0
BBX 13 20 1 0
BITMAP
07D06000
1D78A640
180B8740
00000740
01BE6F00
0BFFF800
1F41F800
3D003D00
7C001E00
B8000F00
B4000F00
B4000F40
B4000F40
B4000F00
B8000F00
7C001E00
3D003D00
1F41F800
0BFFF000
01BE4000
ENDCHAR
STARTCHAR uni1EE1
ENCODING 7905
SWIDTH 600 0
DWIDTH 14 0
BBX 13 17 1 0
BITMAP
01405000
0EB4A600
1C1B8740
00000740
00000B00
01BFAD00
0BFFF400
2F41B800
3D003D00
78001E00
B8000F00
B8000F00
78001E00
3D003E00
2F41BC00
0BFFF400
01BF8000
ENDCHAR
STARTCHAR uni1EE2
ENCODING 7906
SWIDTH 600 0
DWIDTH 14 0
BBX 13 24 1 -5
BITMAP
00000640
00000740
00000740
01BE6F00
0BFFF800
1F41F800
3D003D00
7C001E00
B8000F00
B4000F00
B4000F40
B4000F40
B4000F00
B8000F00
7C001E00
3D003D00
1F41F800
0BFFF000
01BE4000
00000000
00000000
002D0000
007E0000
002D0000
ENDCHAR
STARTCHAR uni1EE3
ENCODING 7907
SWIDTH 600 0
DWIDTH 14 0
BBX 13 21 1 -5
BITMAP
00000600
00000740
00000740
00000B00
01BFAD00
0BFFF400
2F41B800
3D003D00
78001E00
B8000F00
B8000F00
78001E00
3D003E00
2F41BC00
0BFFF400
01BF8000
00000000
00000000
002D0000
007E0000
002D0000
ENDCHAR
STARTCHAR uni1EE4
ENCODING 7908
SWIDTH 600 0
DWIDTH 14 0
BBX 11 21 2 -5
BITMAP
F00078
F00078
F00078
F00078
F00078
F00078
F00078
F00078
F00078
F00074
F00074
F000B4
B800F0
7D06E0
2FFFC0
06FE00
000000
000000
00B400
01F800
00B400
ENDCHAR
STARTCHAR uni1EE5
ENCODING 7909
SWIDTH 600 0
DWIDTH 14 0
BBX 10 17 2 -5
BITMAP
F000F0
F000F0
F000F0
F000F0
F000F0
F000F0
F000F0
F000F0
F002F0
F91BF0
7FFDB0
1BE4B0
000000
000000
00B400
01FC00
00B400
ENDCHAR
STARTCHAR uni1EE6
ENCODING 7910
SWIDTH 600 0
DWIDTH 14 0
BBX 11 21 2 0
BITMAP
01E400
002C00
002C00
00A400
000000
F00078
F00078
F00078
F00078
F00078
F00078
F00078
F00078
F00078
F00074
F00074
F000B4
B800F0
7D06E0
2FFFC0
06FE00
ENDCHAR
STARTCHAR uni1EE7
ENCODING 7911
SWIDTH 600 0
DWIDTH 14 0
BBX 10 18 2 0
BITMAP
01E400
002C00
002C00
00A000
000000
000000
F000F0
F000F0
F000F0
F000F0
F000F0
F000F0
F000F0
F000F0
F002F0
F91BF0
7FFDB0
1BE4B0
ENDCHAR
STARTCHAR uni1EE8
ENCODING 7912
SWIDTH 600 0
DWIDTH 14 0
BBX 13 21 2 0
BITMAP
00090000
002E0280
00B802C0
009002C0
00000780
F0007E00
F0007800
F0007800
F0007800
F0007800
F0007800
F0007800
F0007800
F0007800
F0007400
F0007400
F000B400
B800F000
7D06E000
2FFFC000
06FE0000
ENDCHAR
STARTCHAR uni1EE9
ENCODING 7913
SWIDTH 600 0
DWIDTH 14 0
BBX 13 19 2 0
BITMAP
00050000
001F0000
007D0000
00F40600
00900740
00000B40
00001F00
F000F900
F000F000
F000F000
F000F000
F000F000
F000F000
F000F000
F000F000
F002F000
F91BF000
7FFDB000
1BE4B000
ENDCHAR
STARTCHAR uni1EEA
ENCODING 7914
SWIDTH 600 0
DWIDTH 14 0
BBX 13 21 2 0
BITMAP
02000000
07D00280
01F402C0
002402C0
00000780
F0007E00
F0007800
F0007800
F0007800
F0007800
F0007800
F0007800
F0007800
F0007800
F0007400
F0007400
F000B400
B800F000
7D06E000
2FFFC000
06FE0000
ENDCHAR
STARTCHAR uni1EEB
ENCODING 7915
SWIDTH 600 0
DWIDTH 14 0
BBX 13 19 2 0
BITMAP
06000000
0F800000
03D00000
00F40600
00240740
00000B40
00001F00
F000F900
F000F000
F000F000
F000F000
F000F000
F000F000
F000F000
F000F000
F002F000
F91BF000
7FFDB000
1BE4B000
ENDCHAR
STARTCHAR uni1EEC
ENCODING 7916
SWIDTH 600 0
DWIDTH 14 0
BBX 13 21 2 0
BITMAP
01E40000
002C0280
002C02C0
00A402C0
00000780
F0007E00
F0007800
F0007800
F0007800
F0007800
F0007800
F0007800
F0007800
F0007800
F0007400
F0007400
F000B400
B800F000
7D06E000
2FFFC000
06FE0000
ENDCHAR
STARTCHAR uni1EED
ENCODING 7917
SWIDTH 600 0
DWIDTH 14 0
BBX 13 18 2 0
BITMAP
01E40000
002C0000
002C0600
00A00740
00000B40
00001F00
F000F900
F000F000
F000F000
F000F000
F000F000
F000F000
F000F000
F000F000
F002F000
F91BF000
7FFDB000
1BE4B000
ENDCHAR
STARTCHAR uni1EEE
ENCODING 7918
SWIDTH 600 0
DWIDTH 14 0
BBX 13 20 2 0
BITMAP
0B809280
28B1C2C0
241F42C0
00000780
F0007E00
F0007800
F0007800
F0007800
F0007800
F0007800
F0007800
F0007800
F0007800
F0007400
F0007400
F000B400
B800F000
7D06E000
2FFFC000
06FE0000
ENDCHAR
STARTCHAR uni1EEF
ENCODING 7919
SWIDTH 600 0
DWIDTH 14 0
BBX 13 17 2 0
BITMAP
06404000
2AE2C600
342F4740
00000B40
00001F00
F000F900
F000F000
F000F000
F000F000
F000F000
F000F000
F000F000
F000F000
F002F000
F91BF000
7FFDB000
1BE4B000
ENDCHAR
STARTCHAR uni1EF0
ENCODING 7920
SWIDTH 600 0
DWIDTH 14 0
BBX 13 25 2 -5
BITMAP
00000280
000002C0
000002C0
00000780
F0007E00
F0007800
F0007800
F0007800
F0007800
F0007800
F0007800
F0007800
F0007800
F0007400
F0007400
F000B400
B800F000
7D06E000
2FFFC000
06FE0000
00000000
00000000
00B40000
01F80000
00B40000
ENDCHAR
STARTCHAR uni1EF1
ENCODING 7921
SWIDTH 600 0
DWIDTH 14 0
BBX 13 21 2 -5
BITMAP
00000600
00000740
00000B40
00001F00
F000F900
F000F000
F000F000
F000F000
F000F000
F000F000
F000F000
F000F000
F002F000
F91BF000
7FFDB000
1BE4B000
00000000
00000000
00B40000
01FC0000
00B40000
ENDCHAR
STARTCHAR Ygrave
ENCODING 7922
SWIDTH 600 0
DWIDTH 14 0
BBX 13 21 1 0
BITMAP
00800000
01F40000
007D0000
00090000
00000000
B4000B40
78001E00
2D002D00
1E007800
0B40B400
0781E000
02D2C000
01E78000
00BF0000
007E0000
003D0000
002D0000
002D0000
002D0000
002D0000
002D0000
ENDCHAR
STARTCHAR ygrave
ENCODING 7923
SWIDTH 600 0
DWIDTH 14 0
BBX 12 24 1 -5
BITMAP
018000
02E000
00B800
002D00
000900
000000
000000
B4000F
38001E
2D002D
1E0038
0B0074
0780B0
03C0E0
01D2D0
00E380
00B740
003F00
002E00
002D00
007800
01F400
3FE000
7E4000
ENDCHAR
STARTCHAR uni1EF4
ENCODING 7924
SWIDTH 600 0
DWIDTH 14 0
BBX 13 21 1 -5
BITMAP
B4000B40
78001E00
2D002D00
1E007800
0B40B400
0781E000
02D2C000
01E78000
00BF0000
007E0000
003D0000
002D0000
002D0000
002D0000
002D0000
002D0000
00000000
00000000
002D0000
007E0000
002D0000
ENDCHAR
STARTCHAR uni1EF5
ENCODING 7925
SWIDTH 600 0
DWIDTH 14 0
BBX 12 17 1 -5
BITMAP
B4000F
38001E
2D002D
1E0038
0B0074
0780B0
03C0E0
01D2D0
00E380
00B740
003F00
002E00
002D00
007800
01F47D
3FE0BE
7E407D
ENDCHAR
STARTCHAR uni1EF6
ENCODING 7926
SWIDTH 600 0
DWIDTH 14 0
BBX 13 21 1 0
BITMAP
00790000
000B0000
000B0000
00290000
00000000
B4000B40
78001E00
2D002D00
1E007800
0B40B400
0781E000
02D2C000
01E78000
00BF0000
007E0000
003D0000
002D0000
002D0000
002D0000
002D0000
002D0000
ENDCHAR
STARTCHAR uni1EF7
ENCODING 7927
SWIDTH 600 0
DWIDTH 14 0
BBX 12 23 1 -5
BITMAP
007900
000B00
000B00
002900
000000
000000
B4000F
38001E
2D002D
1E0038
0B0074
0780B0
03C0E0
01D2D0
00E380
00B740
003F00
002E00
002D00
007800
01F400
3FE000
7E4000
ENDCHAR
STARTCHAR uni1EF8
ENCODING 7928
SWIDTH 600 0
DWIDTH 14 0
BBX 13 20 1 0
BITMAP
02E02400
0A2C7000
0907D000
00000000
B4000B40
78001E00
2D002D00
1E007800
0B40B400
0781E000
02D2C000
01E78000
00BF0000
007E0000
003D0000
002D0000
002D0000
002D0000
002D0000
002D0000
ENDCHAR
STARTCHAR uni1EF9
ENCODING 7929
SWIDTH 600 0
DWIDTH 14 0
BBX 12 22 1 -5
BITMAP
019010
076874
0A07E0
000000
000000
B4000F
38001E
2D002D
1E0038
0B0074
0780B0
03C0E0
01D2D0
00E380
00B740
003F00
002E00
002D00
007800
01F400
3FE000
7E4000
ENDCHAR
STARTCHAR uni1FBD
ENCODING 8125
SWIDTH 600 0
DWIDTH 14 0
BBX 4 4 5 14
BITMAP
79
0B
0B
29
ENDCHAR
STARTCHAR uni1FBE
ENCODING 8126
SWIDTH 600 0
DWIDTH 14 0
BBX 4 10 6 0
BITMAP
F0
F0
F0
F0
F0
F0
F0
F0
BE
7E
ENDCHAR
STARTCHAR uni1FBF
ENCODING 8127
SWIDTH 600 0
DWIDTH 14 0
BBX 4 4 5 14
BITMAP
79
0B
0B
29
ENDCHAR
STARTCHAR uni1FC0
ENCODING 8128
SWIDTH 600 0
DWIDTH 14 0
BBX 8 3 3 14
BITMAP
1901
B787
90BD
ENDCHAR
STARTCHAR uni1FC1
ENCODING 8129
SWIDTH 600 0
DWIDTH 14 0
BBX 8 5 3 14
BITMAP
2E46
61BD
0000
381D
381D
ENDCHAR
STARTCHAR uni1FCD
ENCODING 8141
SWIDTH 600 0
DWIDTH 14 0
BBX 7 6 3 13
BITMAP
0010
78B4
1E74
1D38
2828
0004
ENDCHAR
STARTCHAR uni1FCE
ENCODING 8142
SWIDTH 600 0
DWIDTH 14 0
BBX 7 5 3 13
BITMAP
782C
1E38
1D34
2870
0010
ENDCHAR
STARTCHAR uni1FCF
ENCODING 8143
SWIDTH 600 0
DWIDTH 14 0
BBX 7 6 4 13
BITMAP
6924
D6E0
0000
1E40
0380
0A40
ENDCHAR
STARTCHAR uni1FDD
ENCODING 8157
SWIDTH 600 0
DWIDTH 14 0
BBX 7 6 3 13
BITMAP
0010
2DB0
B474
B034
2828
0014
ENDCHAR
STARTCHAR uni1FDE
ENCODING 8158
SWIDTH 600 0
DWIDTH 14 0
BBX 7 6 3 13
BITMAP
0010
1E3C
7438
7474
1CB0
0050
ENDCHAR
STARTCHAR uni1FDF
ENCODING 8159
SWIDTH 600 0
DWIDTH 14 0
BBX 7 6 4 13
BITMAP
6924
D6E0
0000
0B80
1D00
0A00
ENDCHAR
STARTCHAR uni1FED
ENCODING 8173
SWIDTH 600 0
DWIDTH 14 0
BBX 8 5 3 14
BITMAP
0740
0340
0280
75CE
74CE
ENDCHAR
STARTCHAR uni1FEE
ENCODING 8174
SWIDTH 600 0
DWIDTH 14 0
BBX 8 6 3 13
BITMAP
00A0
00E0
00D0
75CE
768E
0240
ENDCHAR
STARTCHAR uni1FEF
ENCODING 8175
SWIDTH 600 0
DWIDTH 14 0
BBX 3 5 5 13
BITMAP
B0
B4
78
38
28
ENDCHAR
STARTCHAR uni1FFD
ENCODING 8189
SWIDTH 600 0
DWIDTH 14 0
BBX 4 6 6 13
BITMAP
29
2D
3C
78
74
70
ENDCHAR
STARTCHAR uni1FFE
ENCODING 8190
SWIDTH 600 0
DWIDTH 14 0
BBX 4 4 5 14
BITMAP
2E
B4
B4
2C
ENDCHAR
STARTCHAR uni2007
ENCODING 8199
SWIDTH 600 0
DWIDTH 14 0
BBX 1 1 0 0
BITMAP
00
ENDCHAR
STARTCHAR uni2010
ENCODING 8208
SWIDTH 600 0
DWIDTH 14 0
BBX 11 2 2 7
BITMAP
FFFFF4
FFFFF4
ENDCHAR
STARTCHAR figuredash
ENCODING 8210
SWIDTH 600 0
DWIDTH 14 0
BBX 11 2 2 5
BITMAP
FFFFF4
FFFFF4
ENDCHAR
STARTCHAR endash
ENCODING 8211
SWIDTH 600 0
DWIDTH 14 0
BBX 11 2 2 5
BITMAP
FFFFF4
FFFFF4
ENDCHAR
STARTCHAR emdash
ENCODING 8212
SWIDTH 600 0
DWIDTH 14 0
BBX 15 2 0 5
BITMAP
FFFFFFF4
FFFFFFF4
ENDCHAR
STARTCHAR uni2015
ENCODING 8213
SWIDTH 600 0
DWIDTH 14 0
BBX 15 2 0 5
BITMAP
FFFFFFF4
FFFFFFF4
ENDCHAR
STARTCHAR uni2016
ENCODING 8214
SWIDTH 600 0
DWIDTH 14 0
BBX 8 24 3 -6
BITMAP
780E
780E
780E
780E
780E
780E
780E
780E
780E
780E
780E
780E
780E
780E
780E
780E
780E
780E
780E
780E
780E
780E
780E
780E
ENDCHAR
STARTCHAR underscoredbl
ENCODING 8215
SWIDTH 600 0
DWIDTH 14 0
BBX 12 5 1 -6
BITMAP
BFFFFF
BFFFFF
000000
BFFFFF
BFFFFF
ENDCHAR
STARTCHAR quoteleft
ENCODING 8216
SWIDTH 600 0
DWIDTH 14 0
BBX 4 9 5 8
BITMAP
05
1E
38
B0
A0
FD
FF
BF
2D
ENDCHAR
STARTCHAR quoteright
ENCODING 8217
SWIDTH 600 0
DWIDTH 14 0
BBX 5 9 5 8
BITMAP
2D00
BF00
BF40
3F40
0700
0B00
1D00
7800
5000
ENDCHAR
STARTCHAR quotesinglbase
ENCODING 8218
SWIDTH 600 0
DWIDTH 14 0
BBX 5 9 5 -6
BITMAP
2D00
BF00
BF40
3F40
0700
0B00
1D00
7800
5000
ENDCHAR
STARTCHAR quotereversed
ENCODING 8219
SWIDTH 600 0
DWIDTH 14 0
BBX 4 9 5 8
BITMAP
2D
BF
BF
FD
A0
70
38
1E
02
ENDCHAR
STARTCHAR quotedblleft
ENCODING 8220
SWIDTH 600 0
DWIDTH 14 0
BBX 10 9 2 8
BITMAP
020050
0F01E0
2C0780
740B00
B00E00
BE1FD0
BF0FE0
7F0FE0
2E07C0
ENDCHAR
STARTCHAR quotedblright
ENCODING 8221
SWIDTH 600 0
DWIDTH 14 0
BBX 10 9 2 8
BITMAP
2E07D0
7F4BE0
7F4BF0
2F87F0
0340B0
0700E0
1E02C0
780B40
200500
ENDCHAR
STARTCHAR quotedblbase
ENCODING 8222
SWIDTH 600 0
DWIDTH 14 0
BBX 10 9 2 -6
BITMAP
2E07D0
7F4BE0
7F4BF0
2F87F0
0340B0
0700E0
1E02C0
780B40
200500
ENDCHAR
STARTCHAR dagger
ENCODING 8224
SWIDTH 600 0
DWIDTH 14 0
BBX 9 20 3 -2
BITMAP
02C000
02C000
02C000
02C000
FFFF40
FFFF40
02C000
02C000
02C000
02C000
02C000
02C000
02C000
02C000
02C000
02C000
02C000
02C000
02C000
018000
ENDCHAR
STARTCHAR daggerdbl
ENCODING 8225
SWIDTH 600 0
DWIDTH 14 0
BBX 9 20 3 -2
BITMAP
02C000
02C000
02C000
02C000
FFFF40
FFFF40
02C000
02C000
02C000
02C000
02C000
02C000
02C000
02C000
FFFF40
FFFF40
02C000
02C000
02C000
02C000
ENDCHAR
STARTCHAR bullet
ENCODING 8226
SWIDTH 600 0
DWIDTH 14 0
BBX 8 7 3 3
BITMAP
0BE4
2FFC
7FFE
7FFE
7FFE
2FFC
0BE4
ENDCHAR
STARTCHAR ellipsis
ENCODING 8230
SWIDTH 600 0
DWIDTH 14 0
BBX 13 4 1 0
BITMAP
B42D1F00
FC7E2F80
FC7E2F80
B42D1F00
ENDCHAR
STARTCHAR uni202F
ENCODING 8239
SWIDTH 600 0
DWIDTH 14 0
BBX 1 1 0 0
BITMAP
00
ENDCHAR
STARTCHAR perthousand
ENCODING 8240
SWIDTH 600 0
DWIDTH 14 0
BBX 13 15 1 0
BITMAP
2F800000
7FD00000
A0A00000
A0A00780
7FD0BE40
2F9B9000
01B90000
1E400000
00000000
2F81B900
7FD3FF00
A0A74740
A0A74740
7FD3FF00
2F81B900
ENDCHAR
STARTCHAR uni2032
ENCODING 8242
SWIDTH 600 0
DWIDTH 14 0
BBX 3 6 6 10
BITMAP
78
74
B4
B0
A0
A0
ENDCHAR
STARTCHAR uni2033
ENCODING 8243
SWIDTH 600 0
DWIDTH 14 0
BBX 7 6 4 10
BITMAP
7478
B478
B074
B070
A0B0
D0A0
ENDCHAR
STARTCHAR uni2035
ENCODING 8245
SWIDTH 600 0
DWIDTH 14 0
BBX 3 6 6 10
BITMAP
E0
F0
F0
B0
70
74
ENDCHAR
STARTCHAR guilsinglleft
ENCODING 8249
SWIDTH 600 0
DWIDTH 14 0
BBX 5 10 4 1
BITMAP
0080
03C0
0B40
2D00
7800
7800
2D00
0B00
0380
0080
ENDCHAR
STARTCHAR guilsinglright
ENCODING 8250
SWIDTH 600 0
DWIDTH 14 0
BBX 5 10 5 1
BITMAP
9000
7400
2D00
0F40
0780
0780
0F40
2D00
7400
9000
ENDCHAR
STARTCHAR exclamdbl
ENCODING 8252
SWIDTH 600 0
DWIDTH 14 0
BBX 10 16 2 0
BITMAP
3C03C0
3C02C0
3C02C0
3C02C0
3C02C0
2802C0
2802C0
2802C0
280280
280280
000000
000000
7D02D0
BE0BE0
BE0BE0
7D02D0
ENDCHAR
STARTCHAR uni203D
ENCODING 8253
SWIDTH 600 0
DWIDTH 14 0
BBX 10 16 2 0
BITMAP
06F900
2FFF80
7907D0
1001E0
01D1D0
01D2C0
00DB40
00F800
00F000
00E000
000000
000000
01E000
02F400
02F400
01E000
ENDCHAR
STARTCHAR uni203E
ENCODING 8254
SWIDTH 600 0
DWIDTH 14 0
BBX 12 2 1 13
BITMAP
BFFFFF
BFFFFF
ENDCHAR
STARTCHAR uni203F
ENCODING 8255
SWIDTH 600 0
DWIDTH 14 0
BBX 22 5 -4 -6
BITMAP
500000000050
7D00000006E0
0BE94005BE40
00BFFFFFE400
0006BFE90000
ENDCHAR
ENDFONT
